#N canvas 717 78 256 536 10;
#X declare -path ../;
#N canvas 495 44 514 379 metapatch 0;
#N canvas 473 430 158 249 args 0;
#X msg 40 64 args;
#X obj 40 85 pdcontrol;
#X obj 40 194 outlet;
#X obj 40 13 loadbang;
#X obj 40 106 list trim;
#X text 67 142 pad number;
#X msg 40 139 \$1;
#X obj 40 34 del 10;
#X connect 0 0 1 0;
#X connect 1 0 4 0;
#X connect 3 0 7 0;
#X connect 4 0 6 0;
#X connect 6 0 2 0;
#X connect 7 0 0 0;
#X restore 68 13 pd args;
#X text 244 297 \$1 - posY;
#N canvas 494 363 294 345 calculate_posY_list 0;
#X obj 27 19 inlet;
#N canvas 222 109 290 324 count_to 0;
#X obj 112 21 inlet;
#X obj 52 260 outlet;
#X obj 25 117 until;
#X obj 82 146 + 1;
#X obj 25 147 float;
#X obj 116 146 sel;
#X msg 116 167 0;
#X obj 141 151 loadbang;
#X obj 112 62 t f f f;
#X obj 197 208 ==;
#X obj 25 168 t f f;
#X obj 197 229 sel 1;
#X obj 197 260 outlet;
#X obj 212 161 - 1;
#X connect 0 0 8 0;
#X connect 2 0 4 0;
#X connect 3 0 4 1;
#X connect 3 0 5 0;
#X connect 4 0 3 0;
#X connect 4 0 10 0;
#X connect 5 0 6 0;
#X connect 6 0 4 1;
#X connect 7 0 6 0;
#X connect 8 0 2 0;
#X connect 8 1 5 1;
#X connect 8 2 13 0;
#X connect 9 0 11 0;
#X connect 10 0 9 0;
#X connect 10 1 1 0;
#X connect 11 0 12 0;
#X connect 11 0 6 0;
#X connect 13 0 9 1;
#X restore 27 71 pd count_to;
#X obj 170 87 t b b;
#X msg 27 236;
#X msg 27 175 add2 \$1;
#X msg 170 122 set;
#X text 109 212 Create a list with posY of the n objects, f 22;
#X obj 27 298 outlet;
#X text 65 21 number of measures to be created;
#X obj 27 92 * 19;
#X text 56 93 deltaY = 19;
#X text 56 143 \$1 = 68;
#X obj 27 143 + 68;
#X connect 0 0 1 0;
#X connect 1 0 9 0;
#X connect 1 1 2 0;
#X connect 2 0 5 0;
#X connect 2 1 3 0;
#X connect 3 0 7 0;
#X connect 4 0 3 0;
#X connect 5 0 3 0;
#X connect 9 0 12 0;
#X connect 12 0 4 0;
#X restore 288 134 pd calculate_posY_list;
#X obj 61 124 until;
#X msg 179 214 reset;
#X obj 231 207 list split 1;
#X obj 231 182 list store;
#X msg 61 264 353 15;
#X msg 231 228 set \$1;
#X msg 98 237 add2 \$1;
#X obj 88 48 t f f f, f 31;
#X obj 393 61 declare -path ../;
#X obj 98 196 else/count 0 3;
#X obj 179 91 - 1;
#X text 244 314 \$2 - pad number (argument defined);
#X obj 61 166 t b b b, f 10;
#X text 468 35 k>=1;
#X msg 61 104 \$1;
#X obj 61 318 s \$0-cutoffs;
#X msg 61 298 obj 36 \$1 esa_cutoff_uni \$2;
#X text 295 17 creates [esa_cutoff_uni] object:;
#X text 348 35 [esa_cutoff_uni k];
#X connect 0 0 10 0;
#X connect 2 0 6 1;
#X connect 3 0 15 0;
#X connect 4 0 12 0;
#X connect 5 0 8 0;
#X connect 5 1 6 1;
#X connect 6 0 5 0;
#X connect 7 0 19 0;
#X connect 8 0 7 0;
#X connect 9 0 7 0;
#X connect 10 0 17 0;
#X connect 10 1 13 0;
#X connect 10 2 2 0;
#X connect 12 0 9 0;
#X connect 12 1 4 0;
#X connect 13 0 12 1;
#X connect 15 0 7 0;
#X connect 15 1 12 0;
#X connect 15 2 6 0;
#X connect 17 0 3 0;
#X connect 19 0 18 0;
#X restore 11 7 pd metapatch;
#N canvas 731 172 457 468 info 0;
#X text 23 63 Argumentos:;
#X msg 30 194 <float-all> <<mensagem_de_controle>>;
#X text 41 216 Sendo:;
#X text 93 217 <float-all> -;
#X text 15 264 <<mensagem_de_controle>> -;
#X text 29 361 Entrada/Saída de sinal de áudio:;
#X text 44 87 De acordo com argumento \$1 \, <float> \, cria a quantidade
de objetos [esa_tremolo_uni] que são enderaçados a cada pad, f 54
;
#X text 105 63 [esa_cutoff_uni <float>];
#X text 22 13 Abstração que cria banco de filtros cutoff para processamento
de efeitos, f 63;
#X text 23 163 Mensagens podem ser enviadas para [s cutoff_in] no formato:
, f 61;
#X text 183 217 (0-k) índice do [esa_cutoff_uni];
#X text 183 234 (all) todos os objetos [esa_cutoff_uni];
#X text 23 315 [esa_cutoff_uni] não retorna mensagens;
#X text 66 386 entrada: [catch~ cutoff~_in_\$1];
#X text 78 406 saída: [throw~ cutoff~_out_\$1];
#N canvas 787 189 347 177 cutoff_messages 0;
#X text 121 59 float \, processor id;
#X text 37 119 <dry-wet> -;
#X text 121 119 dry/wet signal rate (0-100);
#X text 121 132 (default 100);
#X text 25 79 <frequency> -;
#X text 25 99 <resonance> -;
#X text 121 79 cut off frequency in hertz;
#X text 121 99 tremolo depth (from 0 to 15);
#X text 49 59 <pad_n> -;
#X msg 13 15 <pad_n> <frequency> <resonance> <dry-wet>;
#X restore 178 263 pd cutoff_messages;
#X restore 11 29 pd info;
#X obj 111 7 namecanvas \$0-cutoffs;
