#N canvas 388 259 380 285 10;
#N canvas 275 96 321 269 cutoff_input_messages 0;
#X obj 43 216 outlet;
#X obj 124 216 outlet;
#X text 140 146 dry/wet;
#X obj 53 92 unpack f f f;
#X obj 53 147 pack;
#X obj 134 129 else/rescale 0 100 -1 1;
#X text 23 129 freq;
#X text 83 130 res;
#X obj 23 18 r cutoff_in;
#X obj 151 102 else/initmess 0;
#X connect 3 0 4 0;
#X connect 3 1 4 1;
#X connect 3 2 5 0;
#X connect 4 0 0 0;
#X connect 5 0 1 0;
#X connect 8 0 3 0;
#X connect 9 0 5 0;
#X restore 105 67 pd cutoff_input_messages;
#X obj 50 171 else/xfade~, f 29;
#X obj 20 23 catch~ cutoff~_in_\$1;
#X obj 40 243 throw~ cutoff~_out_\$1;
#X obj 246 85 t f f;
#N canvas 0 22 443 249 cutoff 0;
#X obj 29 39 inlet~;
#X obj 59 100 cutoff~;
#X obj 98 63 inlet;
#X text 108 79 <frequência \, ressonância>;
#X obj 288 63 inlet;
#X obj 298 122 switch~;
#X obj 298 104 != -1;
#X text 308 81 dry/wet message;
#X obj 49 171 outlet~;
#X connect 0 0 1 0;
#X connect 1 0 8 0;
#X connect 2 0 1 1;
#X connect 4 0 6 0;
#X connect 6 0 5 0;
#X restore 135 137 pd cutoff;
#X obj 246 155 sig~;
#X connect 0 0 5 1;
#X connect 0 1 4 0;
#X connect 1 0 3 0;
#X connect 2 0 1 0;
#X connect 2 0 5 0;
#X connect 4 0 6 0;
#X connect 4 1 5 2;
#X connect 5 0 1 1;
#X connect 6 0 1 2;
