#N canvas 647 317 450 300 10;
#N canvas 717 173 332 265 vibrato_input_messages 0;
#X obj 63 206 outlet;
#X obj 132 206 outlet;
#X text 136 186 dry/wet;
#X obj 63 98 unpack f f f;
#X obj 63 173 pack;
#X text 33 155 rate;
#X text 86 156 depth;
#X obj 132 135 else/rescale 0 100 -1 1;
#X obj 84 135 * 100;
#X obj 43 18 r vibrato_in;
#X obj 63 67 route \$1;
#X obj 120 67 route all;
#X obj 157 111 else/initmess 0;
#X connect 3 0 4 0;
#X connect 3 1 8 0;
#X connect 3 2 7 0;
#X connect 4 0 0 0;
#X connect 7 0 1 0;
#X connect 8 0 4 1;
#X connect 9 0 10 0;
#X connect 10 0 3 0;
#X connect 10 1 11 0;
#X connect 12 0 7 0;
#X restore 156 84 pd vibrato_input_messages;
#X obj 43 177 else/xfade~, f 29;
#X obj 13 21 catch~ vibrato~_in_\$1;
#X obj 33 241 throw~ vibrato~_out_\$1;
#X obj 302 103 t f f;
#N canvas 227 415 541 200 vibrato 0;
#X obj 19 25 inlet~;
#X obj 49 86 else/vibrato~, f 34;
#X obj 139 25 inlet;
#X text 181 29 <rate \, depth>;
#X obj 149 51 unpack;
#X obj 347 24 inlet;
#X obj 357 79 switch~;
#X obj 357 61 != -1;
#X text 367 41 dry/wet message;
#X obj 39 137 outlet~;
#X connect 0 0 1 0;
#X connect 1 0 9 0;
#X connect 2 0 4 0;
#X connect 4 0 1 1;
#X connect 4 1 1 2;
#X connect 5 0 7 0;
#X connect 7 0 6 0;
#X restore 128 141 pd vibrato;
#X obj 233 161 sig~;
#X connect 0 0 5 1;
#X connect 0 1 4 0;
#X connect 1 0 3 0;
#X connect 2 0 1 0;
#X connect 2 0 5 0;
#X connect 4 0 6 0;
#X connect 4 1 5 2;
#X connect 5 0 1 1;
#X connect 6 0 1 2;
