#N canvas 285 189 450 300 10;
#X obj 47 175 else/xfade~, f 29;
#N canvas 240 245 417 323 pitch-shift_input_messages 0;
#X obj 120 256 outlet;
#X obj 320 256 outlet;
#X obj 210 256 outlet;
#X text 301 220 dry/wet;
#X obj 217 130 else/rescale 0 100 -1 1;
#X obj 120 103 unpack f f, f 14;
#X text 188 220 window size;
#X text 28 219 transposition;
#X obj 53 78 route size;
#X obj 120 130 * 100;
#X obj 217 100 else/initmess 0;
#X obj 33 18 r pitch_shift_in;
#X connect 4 0 1 0;
#X connect 5 0 9 0;
#X connect 5 1 4 0;
#X connect 8 0 2 0;
#X connect 8 1 5 0;
#X connect 9 0 0 0;
#X connect 10 0 4 0;
#X connect 11 0 8 0;
#X restore 145 71 pd pitch-shift_input_messages;
#X obj 316 91 t f f;
#X obj 37 234 throw~ pitch_shift~_out_\$1;
#X obj 17 18 catch~ pitch_shift~_in_\$1;
#N canvas 96 450 543 183 pitch_shift 0;
#X obj 44 115 outlet~;
#X obj 24 22 inlet~;
#X obj 175 43 inlet;
#X obj 297 45 inlet;
#X obj 401 14 inlet;
#X text 31 5 audio signal_in;
#X obj 401 85 switch~;
#X obj 401 67 != -1;
#X text 413 31 dry/wet message;
#X text 293 26 window size;
#X text 179 23 transposition;
#X obj 54 68 else/pitch.shift~, f 41;
#X connect 1 0 11 0;
#X connect 2 0 11 1;
#X connect 3 0 11 2;
#X connect 4 0 7 0;
#X connect 7 0 6 0;
#X connect 11 0 0 0;
#X restore 132 127 pd pitch_shift;
#X f 25;
#X obj 316 159 sig~;
#X connect 0 0 3 0;
#X connect 1 0 5 1;
#X connect 1 1 5 2;
#X connect 1 2 2 0;
#X connect 2 0 6 0;
#X connect 2 1 5 3;
#X connect 4 0 5 0;
#X connect 4 0 0 0;
#X connect 5 0 0 1;
#X connect 6 0 0 2;
