#N canvas 782 214 369 332 10;
#N canvas 758 402 362 290 tremolo_input_messages 0;
#X obj 63 229 outlet;
#X obj 144 229 outlet;
#X text 153 210 dry/wet;
#X obj 63 108 unpack f f f, f 14;
#X obj 63 183 pack;
#X text 33 167 rate;
#X text 94 167 depth;
#X obj 144 145 else/rescale 0 100 -1 1;
#X obj 63 59 route \$1;
#X obj 119 59 route all;
#X obj 164 112 else/initmess 0;
#X obj 33 18 r tremolo_in;
#X connect 3 0 4 0;
#X connect 3 1 4 1;
#X connect 3 2 7 0;
#X connect 4 0 0 0;
#X connect 7 0 1 0;
#X connect 8 0 3 0;
#X connect 8 1 9 0;
#X connect 9 0 3 0;
#X connect 10 0 7 0;
#X connect 11 0 8 0;
#X restore 130 81 pd tremolo_input_messages;
#X obj 17 198 else/xfade~, f 29;
#X obj 17 29 catch~ tremolo~_in_\$1;
#X obj 17 269 throw~ tremolo~_out_\$1;
#X obj 277 101 t f f;
#N canvas 437 489 512 204 tremolo 0;
#X obj 19 25 inlet~;
#X obj 139 25 inlet;
#X text 181 29 <rate \, depth>;
#X obj 149 51 unpack;
#X obj 347 24 inlet;
#X obj 357 79 switch~;
#X obj 357 61 != -1;
#X text 367 41 dry/wet message;
#X obj 39 137 outlet~;
#X obj 49 86 else/tremolo~, f 34;
#X connect 0 0 9 0;
#X connect 1 0 3 0;
#X connect 3 0 9 1;
#X connect 3 1 9 2;
#X connect 4 0 6 0;
#X connect 6 0 5 0;
#X connect 9 0 8 0;
#X restore 102 163 pd tremolo;
#X obj 188 172 sig~;
#X connect 0 0 5 1;
#X connect 0 1 4 0;
#X connect 1 0 3 0;
#X connect 2 0 1 0;
#X connect 2 0 5 0;
#X connect 4 0 6 0;
#X connect 4 1 5 2;
#X connect 5 0 1 1;
#X connect 6 0 1 2;
