#N canvas 425 185 182 260 10;
#X obj 41 92 else/LFO 0.25 -sine;
#X obj 41 111 else/rescale -1 1;
#X obj 41 51 route \$1;
#X obj 98 51 route all;
#X obj 41 171 list trim;
#X obj 41 150 list prepend \$1;
#X obj 11 16 r LFO_in;
#X obj 31 227 s LFO_out;
#X connect 0 0 1 0;
#X connect 1 0 5 0;
#X connect 2 0 0 0;
#X connect 2 1 3 0;
#X connect 3 0 0 0;
#X connect 4 0 7 0;
#X connect 5 0 4 0;
#X connect 6 0 2 0;
