#N canvas 665 165 239 467 10;
#X declare -path ../;
#N canvas 495 44 542 379 metapatch 0;
#N canvas 473 430 158 249 args 0;
#X msg 40 64 args;
#X obj 40 85 pdcontrol;
#X obj 40 194 outlet;
#X obj 40 33 loadbang;
#X obj 40 106 list trim;
#X text 67 142 pad number;
#X msg 40 139 \$1;
#X connect 0 0 1 0;
#X connect 1 0 4 0;
#X connect 3 0 0 0;
#X connect 4 0 6 0;
#X connect 6 0 2 0;
#X restore 68 13 pd args;
#X text 204 297 \$1 - posY;
#N canvas 494 363 294 345 calculate_posY_list 0;
#X obj 27 19 inlet;
#N canvas 222 109 290 324 count_to 0;
#X obj 112 21 inlet;
#X obj 52 260 outlet;
#X obj 25 117 until;
#X obj 82 146 + 1;
#X obj 25 147 float;
#X obj 116 146 sel;
#X msg 116 167 0;
#X obj 141 151 loadbang;
#X obj 112 62 t f f f;
#X obj 197 208 ==;
#X obj 25 168 t f f;
#X obj 197 229 sel 1;
#X obj 197 260 outlet;
#X obj 212 161 - 1;
#X connect 0 0 8 0;
#X connect 2 0 4 0;
#X connect 3 0 4 1;
#X connect 3 0 5 0;
#X connect 4 0 3 0;
#X connect 4 0 10 0;
#X connect 5 0 6 0;
#X connect 6 0 4 1;
#X connect 7 0 6 0;
#X connect 8 0 2 0;
#X connect 8 1 5 1;
#X connect 8 2 13 0;
#X connect 9 0 11 0;
#X connect 10 0 9 0;
#X connect 10 1 1 0;
#X connect 11 0 12 0;
#X connect 11 0 6 0;
#X connect 13 0 9 1;
#X restore 27 71 pd count_to;
#X obj 170 87 t b b;
#X msg 27 236;
#X msg 27 175 add2 \$1;
#X msg 170 122 set;
#X text 109 212 Create a list with posY of the n objects, f 22;
#X obj 27 298 outlet;
#X text 65 21 number of measures to be created;
#X obj 27 92 * 19;
#X text 56 93 deltaY = 19;
#X text 56 143 \$1 = 68;
#X obj 27 143 + 68;
#X connect 0 0 1 0;
#X connect 1 0 9 0;
#X connect 1 1 2 0;
#X connect 2 0 5 0;
#X connect 2 1 3 0;
#X connect 3 0 7 0;
#X connect 4 0 3 0;
#X connect 5 0 3 0;
#X connect 9 0 12 0;
#X connect 12 0 4 0;
#X restore 288 134 pd calculate_posY_list;
#X obj 61 124 until;
#X msg 179 214 reset;
#X obj 231 207 list split 1;
#X obj 231 182 list store;
#X msg 61 264 353 15;
#X msg 231 228 set \$1;
#X msg 98 237 add2 \$1;
#X obj 88 48 t f f f, f 31;
#X obj 403 61 declare -path ../;
#X obj 98 196 else/count 0 3;
#X obj 179 91 - 1;
#X text 204 314 \$2 - pad number (argument defined);
#X obj 61 166 t b b b, f 10;
#X text 448 35 k>=1;
#X msg 61 104 \$1;
#X text 352 17 creates [recorder] object:;
#X text 367 35 [recorder k];
#X obj 61 318 s \$0-lfos;
#X msg 61 298 obj 36 \$1 esaLFO \$2;
#X connect 0 0 10 0;
#X connect 2 0 6 1;
#X connect 3 0 15 0;
#X connect 4 0 12 0;
#X connect 5 0 8 0;
#X connect 5 1 6 1;
#X connect 6 0 5 0;
#X connect 7 0 21 0;
#X connect 8 0 7 0;
#X connect 9 0 7 0;
#X connect 10 0 17 0;
#X connect 10 1 13 0;
#X connect 10 2 2 0;
#X connect 12 0 9 0;
#X connect 12 1 4 0;
#X connect 13 0 12 1;
#X connect 15 0 7 0;
#X connect 15 1 12 0;
#X connect 15 2 6 0;
#X connect 17 0 3 0;
#X connect 21 0 20 0;
#X restore 11 7 pd metapatch;
#N canvas 521 212 419 468 info 0;
#X text 23 63 Argumentos:;
#X text 105 63 [esaLFO <float>];
#X text 22 13 Abstração que cria banco de LFO's para processamento
de efeitos, f 63;
#X text 44 87 De acordo com argumento \$1 \, <float> \, cria a quantidade
de objetos [esaLFO] que são endereçados a cada pad, f 54;
#N canvas 482 240 450 355 LFO_info 1;
#X msg 42 49 <float-all> <<mensagem_de_controle>>;
#X text 53 71 Sendo:;
#X text 105 72 <float-all> -;
#X text 195 72 (0-k) índice do [recorder];
#X text 195 89 (all) todos os objetos [recorder];
#X text 65 239 <float-all> -;
#X text 155 239 (0-k) índice do [recorder];
#X text 155 256 (all) todos os objetos [recorder];
#X text 35 25 Mensagens podem ser enviadas para [s LFO_in] no formato:
, f 61;
#X text 35 177 Retorno de mensagens podem ser recebidas através de
[r LFO_out] no formato:, f 52;
#X msg 42 209 <float-all> <<valor_do_LFO>>;
#X text 47 279 <valor_do_LFO> -;
#X text 155 279 (-1 | 1);
#N canvas 406 299 514 266 LFO_messages 0;
#X text 70 102 float;
#X text 111 102 - frequency in hertz up to 100 (negative values accepted)
;
#X text 52 119 anything;
#X text 111 119 -;
#X text 123 119 sets waveform (sine \, tri \, saw \, vsaw and square)
;
#X text 113 156 - sets waveform to sine (default), f 60;
#X text 113 172 - sets waveform to triangular, f 60;
#X text 113 188 - sets waveform to sawtooth, f 60;
#X text 7 10 INPUT MESSAGES;
#X text 70 156 sine;
#X text 76 172 tri;
#X text 76 188 saw;
#X text 10 204 square <float>;
#X text 22 220 vsaw <float>;
#X text 113 220 - sets waveform to variable sawtooth and width (from
-1 to 1), f 61;
#X text 126 236 (default 1), f 61;
#X text 113 204 - sets waveform to square and width (from 0 to 1) (default
0.5), f 63;
#X text 25 73 <<control_message>>;
#X text 25 36 <pad_n> -> número do pad que contém este módulo;
#X msg 127 7 <pad_n> <<control_message>>;
#X restore 194 120 pd LFO_messages;
#X text 27 119 <<mensagem_de_controle>> -;
#X restore 150 178 pd LFO_info;
#X restore 11 29 pd info;
#X obj 111 7 namecanvas \$0-lfos;
