#N canvas 819 131 448 277 10;
#X declare -path esa_player~_abs;
#N canvas 126 273 794 329 player_message_processor 1;
#X obj 42 57 list split 1, f 22;
#X obj 117 86 list trim;
#X obj 42 189 list trim;
#N canvas 548 335 199 292 stop 0;
#X obj 46 37 inlet;
#X obj 86 204 outlet;
#X msg 86 89 stop;
#X connect 0 0 2 0;
#X connect 2 0 1 0;
#X restore 204 141 pd stop;
#N canvas 183 430 369 275 start 0;
#X obj 33 31 inlet;
#X obj 100 198 outlet;
#X obj 33 77 route bang;
#X msg 33 116 start;
#X connect 0 0 2 0;
#X connect 2 0 3 0;
#X connect 3 0 1 0;
#X restore 117 140 pd start;
#N canvas 666 330 242 275 loop 0;
#X obj 33 31 inlet;
#X obj 90 198 outlet;
#X floatatom 90 99 5 0 0 1 loop - -;
#X obj 33 77 route bang;
#X msg 90 119 loop \$1;
#X connect 0 0 3 0;
#X connect 2 0 4 0;
#X connect 3 1 2 0;
#X connect 4 0 1 0;
#X restore 467 141 pd loop;
#X obj 42 168 list append;
#N canvas 570 316 242 275 pause 0;
#X obj 33 31 inlet;
#X obj 90 198 outlet;
#X msg 90 75 pause;
#X connect 0 0 2 0;
#X connect 2 0 1 0;
#X restore 292 141 pd pause;
#N canvas 633 254 212 269 resume 0;
#X obj 43 26 inlet;
#X obj 73 223 outlet;
#X msg 73 77 resume;
#X connect 0 0 2 0;
#X connect 2 0 1 0;
#X restore 379 141 pd resume;
#X msg 577 251 <pad> <<control_message>>;
#X obj 117 114 route start stop pause resume loop play speed, f 88
;
#N canvas 671 53 247 300 play 1;
#X obj 31 26 inlet;
#X obj 61 232 outlet;
#X obj 61 83 list prepend play;
#X obj 61 107 list trim;
#X connect 0 0 2 0;
#X connect 2 0 3 0;
#X connect 3 0 1 0;
#X restore 554 141 pd play;
#N canvas 671 53 247 300 speed 0;
#X obj 31 26 inlet;
#X obj 61 232 outlet;
#X msg 61 87 speed \$1;
#X connect 0 0 2 0;
#X connect 2 0 1 0;
#X restore 642 141 pd speed;
#N canvas 250 256 457 329 error 0;
#X obj 30 30 inlet;
#X obj 50 260 mensagem_de_erro;
#X obj 60 91 t b a, f 47;
#X obj 60 181 list append, f 43;
#X obj 60 202 list trim;
#X msg 60 130 [esa_pads](E3-D2) - Mensagem inválida:;
#X obj 339 113 route bang;
#X msg 339 133 symbol bang;
#X connect 0 0 2 0;
#X connect 2 0 5 0;
#X connect 2 1 6 0;
#X connect 3 0 4 0;
#X connect 4 0 1 0;
#X connect 5 0 3 0;
#X connect 6 0 7 0;
#X connect 6 1 3 1;
#X connect 7 0 3 1;
#X restore 711 140 pd error;
#X obj 21 16 r player~_entrada;
#X obj 42 289 s player_in;
#N canvas 105 394 568 344 Player_Control_Messages 0;
#X text 87 111 float;
#X text 76 245 <stop>;
#X text 70 261 <pause>;
#X text 64 277 <resume>;
#X text 120 245 - stops playing and outputs 0 (cannot be resumed),
f 61;
#X text 125 111 - non zero plays the array in original speed \, <0>
stops it, f 61;
#X text 120 277 - resumes playing after being paused, f 61;
#X text 64 293 loop <f>;
#X text 120 293 - non zero enables looping \, <0> disbales it, f 61
;
#X text 120 261 - pauses at a particular point (can be resumed), f
61;
#X msg 9 7 <pad> <<control_message>>;
#X text 31 42 <pad> - integer 0-15;
#X text 29 82 <<control_message>>;
#X text 30 136 start <float>;
#X text 124 136 - sets start point in ms, f 61;
#X text 115 163 -;
#X text 23 163 play <f \, f \, f>;
#X text 127 163 start playing \, if no float is given \, array is played
from start to end. 1st float sets start \, 2nd sets end (in ms) and
3rd sets speed rate;
#X text 29 212 speed <float>;
#X text 115 212 - sets playing speed in percentage, f 61;
#X restore 577 270 pd Player_Control_Messages;
#X connect 0 0 6 0;
#X connect 0 1 1 0;
#X connect 1 0 10 0;
#X connect 2 0 15 0;
#X connect 3 0 6 1;
#X connect 4 0 6 1;
#X connect 5 0 6 1;
#X connect 6 0 2 0;
#X connect 7 0 6 1;
#X connect 8 0 6 1;
#X connect 10 0 4 0;
#X connect 10 1 3 0;
#X connect 10 2 7 0;
#X connect 10 3 8 0;
#X connect 10 4 5 0;
#X connect 10 5 11 0;
#X connect 10 6 12 0;
#X connect 10 7 13 0;
#X connect 11 0 6 1;
#X connect 12 0 6 1;
#X connect 14 0 0 0;
#X restore 30 93 pd player_message_processor;
#X obj 249 14 declare -path esa_player~_abs;
#X obj 30 113 players \$1 \$2;
