#N canvas 571 163 406 298 10;
#X obj 98 69 route all;
#X obj 38 69 route \$1;
#X obj 221 158 player_outs \$1;
#X obj 15 18 r player_in;
#X obj 211 214 s player_out;
#N canvas 222 288 344 285 cpu_saver 0;
#X obj 31 21 inlet;
#X obj 51 227 outlet;
#X obj 169 136 loadbang;
#X obj 181 21 inlet;
#X obj 181 46 route \$1;
#X obj 181 67 route endbang;
#X obj 61 62 route play stop;
#X msg 61 153 1;
#X msg 104 152 0;
#X obj 104 126 del 36;
#X connect 0 0 6 0;
#X connect 2 0 8 0;
#X connect 3 0 4 0;
#X connect 4 0 5 0;
#X connect 5 0 9 0;
#X connect 6 0 7 0;
#X connect 6 1 9 0;
#X connect 7 0 1 0;
#X connect 8 0 1 0;
#X connect 9 0 8 0;
#X restore 284 107 pd cpu_saver;
#X obj 38 91 t a a;
#X obj 284 128 switch~;
#X obj 28 214 throw~ player~_out;
#X obj 38 132 else/tabplayer~ pad_\$1 -fade 32;
#X connect 0 0 9 0;
#X connect 1 0 6 0;
#X connect 1 1 0 0;
#X connect 2 0 4 0;
#X connect 3 0 1 0;
#X connect 5 0 7 0;
#X connect 6 0 9 0;
#X connect 6 1 5 0;
#X connect 9 0 8 0;
#X connect 9 1 2 0;
