#N canvas 571 163 318 298 10;
#X obj 98 69 route all;
#X obj 38 69 route \$1;
#X obj 38 132 else/tabplayer~ pad_\$1;
#X obj 167 158 player_outs \$1;
#X obj 15 18 r player_in;
#X obj 157 214 s player_out;
#X obj 28 214 throw~ player~_\$1;
#N canvas 222 288 344 285 cpu_saver 0;
#X obj 31 21 inlet;
#X obj 51 227 outlet;
#X obj 130 102 loadbang;
#X obj 181 21 inlet;
#X obj 211 96 route \$1;
#X obj 211 117 route endbang;
#X obj 61 62 route play stop;
#X msg 61 153 1;
#X msg 104 152 0;
#X connect 0 0 6 0;
#X connect 2 0 8 0;
#X connect 3 0 4 0;
#X connect 4 0 5 0;
#X connect 5 0 8 0;
#X connect 6 0 7 0;
#X connect 6 1 8 0;
#X connect 7 0 1 0;
#X connect 8 0 1 0;
#X restore 234 107 pd cpu_saver;
#X obj 38 91 t a a;
#X obj 234 128 switch~;
#X connect 0 0 2 0;
#X connect 1 0 8 0;
#X connect 1 1 0 0;
#X connect 2 0 6 0;
#X connect 2 1 3 0;
#X connect 3 0 5 0;
#X connect 4 0 1 0;
#X connect 7 0 9 0;
#X connect 8 0 2 0;
#X connect 8 1 7 0;
