#N canvas 367 262 506 385 10;
#X obj 109 320 outlet;
#X obj 55 30 inlet;
#X obj 138 109 tgl 15 0 empty empty empty 17 7 0 10 -262144 -1 -1 1
1;
#X obj 275 30 inlet;
#X text 314 34 beat_atual;
#X text 298 199 retorna o índice do compasso atual do pad, f 21;
#X text 321 245 -;
#X text 333 245 liga quando pad é acionado, f 15;
#N canvas 647 107 453 300 endbang 0;
#X obj 69 33 inlet;
#X obj 79 236 outlet;
#X obj 89 77 sel 0, f 11;
#X obj 134 127 f 0, f 4;
#X obj 89 169 spigot 0;
#X obj 89 101 t f b, f 8;
#X obj 134 151 != 0;
#X obj 89 192 bng 15 250 50 0 empty empty empty 17 7 0 10 -262144 -1
-1;
#X text 152 45 Envia um bang quando contagem volta a zero;
#X text 169 157 retém se o número anterior não for diferente de
zero, f 27;
#X connect 0 0 2 0;
#X connect 2 0 5 0;
#X connect 2 1 3 1;
#X connect 3 0 6 0;
#X connect 4 0 7 0;
#X connect 5 0 4 0;
#X connect 5 1 3 0;
#X connect 6 0 4 1;
#X connect 7 0 1 0;
#X restore 305 80 pd endbang;
#X obj 75 82 route reset;
#X msg 75 195 reset;
#X text 94 34 liga_desl/reset;
#X obj 119 195 spigot 0;
#X text 118 304 índice do compasso atual;
#X text 321 50 índice da subdivisão;
#X text 321 230 - máx \$1 compassos;
#X obj 119 225 else/count 0 \$1;
#X obj 138 129 t b f b;
#X connect 1 0 9 0;
#X connect 2 0 17 0;
#X connect 3 0 8 0;
#X connect 8 0 12 0;
#X connect 9 0 10 0;
#X connect 9 1 2 0;
#X connect 10 0 16 0;
#X connect 12 0 16 0;
#X connect 16 0 0 0;
#X connect 16 1 10 0;
#X connect 17 0 12 0;
#X connect 17 1 12 1;
#X connect 17 2 10 0;
