#N canvas 711 70 255 385 10;
#X declare -path ../;
#N canvas 680 215 575 371 metapatch 0;
#N canvas 439 353 450 249 args 0;
#X msg 40 64 args;
#X obj 40 85 pdcontrol;
#X obj 181 201 outlet;
#X obj 40 201 outlet;
#X obj 40 33 loadbang;
#X obj 40 126 t a a, f 24;
#X text 208 149 number of measures to be created;
#X text 65 149 pad number;
#X obj 40 106 list trim;
#X msg 181 146 \$1;
#X msg 40 147 \$3;
#X connect 0 0 1 0;
#X connect 1 0 8 0;
#X connect 4 0 0 0;
#X connect 5 0 10 0;
#X connect 5 1 9 0;
#X connect 8 0 5 0;
#X connect 9 0 2 0;
#X connect 10 0 3 0;
#X restore 49 23 pd args;
#X text 244 286 \$1 - posY;
#X text 244 303 \$2 - measure number (argument defined);
#X text 244 321 \$3 - pad number (argument defined);
#N canvas 494 363 294 345 calculate_posY_list 0;
#X obj 27 19 inlet;
#N canvas 222 109 290 324 count_to 0;
#X obj 112 21 inlet;
#X obj 52 260 outlet;
#X obj 25 117 until;
#X obj 82 146 + 1;
#X obj 25 147 float;
#X obj 116 146 sel;
#X msg 116 167 0;
#X obj 141 151 loadbang;
#X obj 112 62 t f f f;
#X obj 197 208 ==;
#X obj 25 168 t f f;
#X obj 197 229 sel 1;
#X obj 197 260 outlet;
#X obj 212 161 - 1;
#X connect 0 0 8 0;
#X connect 2 0 4 0;
#X connect 3 0 4 1;
#X connect 3 0 5 0;
#X connect 4 0 3 0;
#X connect 4 0 10 0;
#X connect 5 0 6 0;
#X connect 6 0 4 1;
#X connect 7 0 6 0;
#X connect 8 0 2 0;
#X connect 8 1 5 1;
#X connect 8 2 13 0;
#X connect 9 0 11 0;
#X connect 10 0 9 0;
#X connect 10 1 1 0;
#X connect 11 0 12 0;
#X connect 11 0 6 0;
#X connect 13 0 9 1;
#X restore 27 71 pd count_to;
#X obj 170 87 t b b;
#X msg 27 236;
#X msg 27 175 add2 \$1;
#X msg 170 122 set;
#X text 109 212 Create a list with posY of the n objects, f 22;
#X obj 27 298 outlet;
#X text 65 21 number of measures to be created;
#X obj 27 92 * 19;
#X text 56 93 deltaY = 19;
#X text 56 143 \$1 = 68;
#X obj 27 143 + 68;
#X connect 0 0 1 0;
#X connect 1 0 9 0;
#X connect 1 1 2 0;
#X connect 2 0 5 0;
#X connect 2 1 3 0;
#X connect 3 0 7 0;
#X connect 4 0 3 0;
#X connect 5 0 3 0;
#X connect 9 0 12 0;
#X connect 12 0 4 0;
#X restore 288 134 pd calculate_posY_list;
#X obj 61 145 f;
#X obj 23 124 until;
#X obj 49 64 pack;
#X obj 49 85 t a a;
#X msg 76 111 \$1;
#X msg 23 104 \$2;
#X msg 180 214 reset;
#X obj 231 207 list split 1;
#X obj 231 182 list store;
#X msg 61 264 125 4 0;
#X msg 231 228 set \$1;
#X msg 99 237 add2 \$1;
#X msg 24 218 add2 \$1;
#X obj 61 166 t b f b b, f 10;
#X obj 88 48 t f f f, f 31;
#X text 382 11 creates measure object:;
#X text 397 29 [measure k pad n];
#X obj 364 267 declare -path ../;
#X obj 61 318 s \$0-pad_measures;
#X msg 61 298 obj 36 \$1 measure \$2 pad \$3;
#X obj 99 196 else/count 0 3;
#X obj 179 91 - 1;
#X obj 99 216 + 1;
#X text 418 47 k>=1 and <int> n>=0;
#X connect 0 0 7 0;
#X connect 0 1 19 0;
#X connect 4 0 13 1;
#X connect 5 0 18 0;
#X connect 6 0 5 0;
#X connect 7 0 8 0;
#X connect 8 0 10 0;
#X connect 8 1 9 0;
#X connect 9 0 5 1;
#X connect 10 0 6 0;
#X connect 11 0 25 0;
#X connect 12 0 15 0;
#X connect 12 1 13 1;
#X connect 13 0 12 0;
#X connect 14 0 24 0;
#X connect 15 0 14 0;
#X connect 16 0 14 0;
#X connect 17 0 14 0;
#X connect 18 0 14 0;
#X connect 18 1 17 0;
#X connect 18 2 25 0;
#X connect 18 3 13 0;
#X connect 19 0 7 1;
#X connect 19 1 26 0;
#X connect 19 2 4 0;
#X connect 24 0 23 0;
#X connect 25 0 27 0;
#X connect 25 1 11 0;
#X connect 26 0 25 1;
#X connect 27 0 16 0;
#X restore 5 5 pd metapatch;
#N canvas 846 96 400 238 info 0;
#X text 22 13 Abstração que cria a estrutura de compassos (measures)
graváveis e reproduziveis do sequencer;
#X text 22 83 Argumentos:;
#X text 44 154 Mantém correlação com o ESA_pad correspondente no
que tange recebimento de mensagens de controle através do argumento
\$3 <float-all>, f 54;
#X text 104 83 [measures <float> pad <float-all>];
#X text 43 107 De acordo com argumento \$1 \, <float> \, cria a quantidade
de compassos que ficarão disponíveis para gravação e reprodução
de sequências, f 54;
#X restore 5 27 pd info;
#X obj 84 5 namecanvas \$0-pad_measures;
