#N canvas 148 194 763 509 10;
#X obj 179 72 r T2_timestamp;
#X text 157 127 fase;
#X msg 292 110 \$5;
#X text 267 110 bpm;
#X obj 185 94 t a a, f 9;
#X floatatom 111 218 5 0 0 1 subdivisões - -;
#X floatatom 292 131 5 0 0 0 - - -;
#X floatatom 36 344 5 0 0 0 - - -;
#X obj 36 20 tgl 15 0 empty empty liga/desl 17 7 0 10 -262144 -1 -1
0 1;
#X msg 185 125 fase \$3;
#X floatatom 73 304 5 0 0 0 - - -;
#X floatatom 111 273 9 0 0 0 - - -;
#X obj 32 370 bng 15 250 50 0 empty empty empty 17 7 0 10 -262144 -1
-1;
#X obj 36 243 pad_beat 4 16;
#X text 75 346 índice do compasso atual;
#X text 108 303 índice da subdivisão do compasso;
#X text 174 274 fase da subdivisão;
#X obj 464 453 s T_entrada;
#X floatatom 463 408 5 0 0 0 - - -;
#X msg 463 428 bpm \$1;
#X obj 373 407 tgl 15 0 empty empty empty 17 7 0 10 -262144 -1 -1 0
1;
#X msg 373 427 connect \$1;
#X text 406 138 A partir da fase do objeto [abl_link~] retorna parâmetros
necessários para construção do sequencer, f 39;
#X text 158 50 Recuperando phase do [abl_link~];
#X text 372 374 para testar com sincronização com Ableton LINK,
f 30;
#N canvas 562 393 450 300 Timestamp 0;
#X obj 98 41 else/click 1;
#X msg 98 62 \; pd-T2-Gerador_de_Timestamp vis 1;
#X connect 0 0 1 0;
#X restore 641 28 pd Timestamp;
#X text 399 208 ARGUMENTOS;
#X text 410 226 necessários 2 argumentos:;
#X text 420 243 - primeiro: <int> número máximo de compassos;
#X text 420 260 - segundo: <int> número de subdivisões de compasso
;
#X text 399 118 DESCRIÇÃO:;
#X connect 0 0 4 0;
#X connect 2 0 6 0;
#X connect 4 0 9 0;
#X connect 4 1 2 0;
#X connect 5 0 13 1;
#X connect 7 0 12 0;
#X connect 8 0 13 0;
#X connect 9 0 13 0;
#X connect 13 0 7 0;
#X connect 13 1 10 0;
#X connect 13 2 11 0;
#X connect 18 0 19 0;
#X connect 19 0 17 0;
#X connect 20 0 21 0;
#X connect 21 0 17 0;
