#N canvas 262 400 570 361 10;
#X obj 56 289 outlet;
#X obj 48 55 inlet;
#X text 84 56 liga/desl e reset;
#X obj 68 106 route fase;
#X obj 269 55 inlet;
#X obj 230 235 t f f;
#X text 71 307 índice do compasso;
#X obj 216 289 outlet;
#X text 231 307 índice da subdivisão;
#X obj 396 289 outlet;
#X text 411 307 fase da subdivisão;
#X obj 125 256 current_measure \$1;
#X obj 125 126 t a a, f 10;
#N canvas 360 218 450 300 on-off 0;
#X obj 86 52 inlet;
#X obj 104 101 route float;
#X obj 104 122 sel 0;
#X msg 104 142 0;
#X msg 131 142 1;
#X obj 89 214 outlet;
#X connect 0 0 1 0;
#X connect 1 0 2 0;
#X connect 2 0 3 0;
#X connect 2 1 4 0;
#X connect 3 0 5 0;
#X connect 4 0 5 0;
#X restore 190 146 pd on-off;
#X obj 145 165 spigot 0;
#X obj 230 214 beat_tracker \$2;
#X text 361 18 Depende do external abl_link~;
#X text 305 56 resolução;
#N canvas 757 473 450 259 init_padSeq_dim 0;
#X obj 85 208 v padSeq_dim;
#X obj 65 37 r seq_resolution;
#X text 223 75 Inicializa variável padSeq_dim que determina a dimensão
da tabela padSeq que contém as mensagens do sequenciador, f 30;
#X obj 85 154 *;
#X obj 112 118 v quantum;
#X obj 85 98 t f b;
#X obj 112 136 + 1;
#X obj 85 79 pipe 10;
#X connect 1 0 7 0;
#X connect 3 0 0 0;
#X connect 4 0 6 0;
#X connect 5 0 3 0;
#X connect 5 1 4 0;
#X connect 6 0 3 1;
#X connect 7 0 5 0;
#X restore 425 46 pd init_padSeq_dim;
#X connect 1 0 3 0;
#X connect 3 0 14 0;
#X connect 3 1 12 0;
#X connect 4 0 15 1;
#X connect 5 0 11 1;
#X connect 5 1 7 0;
#X connect 11 0 0 0;
#X connect 12 0 11 0;
#X connect 12 1 13 0;
#X connect 13 0 14 1;
#X connect 14 0 15 0;
#X connect 15 0 5 0;
#X connect 15 1 9 0;
