#N canvas 226 147 450 372 10;
#X declare -path ../;
#X obj 27 32 r.mess tempo out phase;
#X obj 57 105 t f f, f 18;
#X obj 180 129 * 0.25;
#N canvas 492 325 511 300 beat_tracker 0;
#X obj 35 43 else/quantizer;
#X obj 35 67 % 4;
#X floatatom 35 91 5 0 0 0 - - -;
#X obj 35 184 % 4;
#X floatatom 35 228 5 0 0 0 - - -;
#X floatatom 60 166 5 0 0 0 - - -;
#X obj 35 110 change;
#X obj 35 140 * 1;
#X floatatom 68 134 5 0 0 0 - - -;
#X obj 35 12 inlet;
#X obj 35 261 outlet;
#X text 134 100 retorna o beat atual (0-3);
#X text 228 204 pode requerer nova codificação se for trabalhar com
quantum variável, f 34;
#X obj 132 244 bng 15 250 50 0 empty empty empty 17 7 0 10 -262144
-1 -1;
#N canvas 647 107 299 300 endbang 0;
#X obj 49 33 inlet;
#X obj 49 256 outlet;
#X obj 49 57 sel 0, f 11;
#X obj 105 109 f 0;
#X obj 49 181 spigot 0;
#X obj 49 81 t f b;
#X obj 105 133 != 0;
#X text 143 139 stop first bang;
#X connect 0 0 2 0;
#X connect 2 0 5 0;
#X connect 2 1 3 1;
#X connect 3 0 6 0;
#X connect 4 0 1 0;
#X connect 5 0 4 0;
#X connect 5 1 3 0;
#X connect 6 0 4 1;
#X restore 122 225 pd endbang;
#X obj 122 262 outlet;
#X obj 35 206 t f f;
#X connect 0 0 1 0;
#X connect 1 0 2 0;
#X connect 2 0 6 0;
#X connect 3 0 16 0;
#X connect 4 0 10 0;
#X connect 5 0 3 1;
#X connect 6 0 7 0;
#X connect 7 0 3 0;
#X connect 8 0 7 1;
#X connect 9 0 0 0;
#X connect 14 0 15 0;
#X connect 14 0 13 0;
#X connect 16 0 4 0;
#X connect 16 1 14 0;
#X restore 57 213 pd beat_tracker;
#X f 29;
#X obj 57 287 outlet;
#N canvas 0 22 613 300 array_index 0;
#X obj 39 14 inlet;
#X obj 135 62 v tables_size;
#X obj 135 40 loadbang;
#X floatatom 75 132 5 0 0 0 - - -;
#X obj 135 83 - 1;
#X obj 75 108 * 191, f 9;
#X obj 75 235 outlet;
#X text 133 177 retorna índice para leitura de tabelas de automação
;
#X connect 0 0 5 0;
#X connect 1 0 4 0;
#X connect 2 0 1 0;
#X connect 3 0 6 0;
#X connect 4 0 5 1;
#X connect 5 0 3 0;
#X restore 180 157 pd array_index;
#X obj 180 287 outlet;
#X obj 301 287 outlet;
#X text 67 307 actual beat;
#X text 327 307 endbang;
#X text 186 306 index for automation arrays, f 12;
#X obj 303 16 declare -path ../;
#X connect 0 0 1 0;
#X connect 1 0 3 0;
#X connect 1 1 2 0;
#X connect 2 0 5 0;
#X connect 3 0 4 0;
#X connect 3 1 7 0;
#X connect 5 0 6 0;
