#N canvas 52 480 479 237 10;
#X obj 382 6 cpuMeter;
#X obj 277 66 looper_buffers;
#X obj 277 84 gravador~;
#X obj 28 26 r core2;
#X obj 423 38 dsp;
#N canvas 143 324 329 192 entradas 0;
#X obj 21 16 inlet;
#X obj 110 122 s recorder~_entrada;
#X obj 169 104 s buffers_entrada;
#X obj 51 140 s samplers_in;
#X obj 51 82 route samplers gravador buffer;
#X obj 113 38 s~ gravador_in~;
#X obj 113 18 adc~;
#X text 145 18 Áudio da entrada do gravador;
#X connect 0 0 4 0;
#X connect 4 0 3 0;
#X connect 4 1 1 0;
#X connect 4 2 2 0;
#X connect 6 0 5 0;
#X restore 38 54 pd entradas;
#N canvas 798 392 402 232 init 0;
#X obj 18 13 loadbang;
#X msg 18 34 \; pd dsp 1;
#X obj 17 82 loadbang;
#X obj 17 124 until;
#X obj 17 166 print Core_2;
#X msg 17 103 26;
#X msg 17 145 Sampler from [pd~] | Sampler from [pd~] | Sampler from
[pd~];
#X connect 0 0 1 0;
#X connect 2 0 5 0;
#X connect 3 0 6 0;
#X connect 5 0 3 0;
#X connect 6 0 4 0;
#X restore 422 114 pd init;
#N canvas 228 73 469 555 sampler_instrumento 0;
#N canvas 472 302 270 277 sampler_pad_0 0;
#X obj 60 179 clone sampler_pad0 16;
#X obj 109 64 route all;
#X obj 60 100 poly 16 1, f 16;
#X obj 60 121 - 1;
#X obj 60 142 pack f f f;
#X obj 30 17 inlet;
#X obj 50 249 outlet~;
#X obj 60 64 route 0;
#X connect 0 0 6 0;
#X connect 1 0 2 0;
#X connect 2 0 3 0;
#X connect 2 1 4 1;
#X connect 2 2 4 2;
#X connect 3 0 4 0;
#X connect 4 0 0 0;
#X connect 5 0 7 0;
#X connect 7 0 2 0;
#X connect 7 1 1 0;
#X restore 242 38 pd sampler_pad_0;
#N canvas 472 302 270 276 sampler_pad_2 0;
#X obj 109 64 route all;
#X obj 60 100 poly 16 1, f 16;
#X obj 60 121 - 1;
#X obj 60 142 pack f f f;
#X obj 30 17 inlet;
#X obj 50 230 outlet~;
#X obj 60 179 clone sampler_pad2 16;
#X obj 60 64 route 2;
#X connect 0 0 1 0;
#X connect 1 0 2 0;
#X connect 1 1 3 1;
#X connect 1 2 3 2;
#X connect 2 0 3 0;
#X connect 3 0 6 0;
#X connect 4 0 7 0;
#X connect 6 0 5 0;
#X connect 7 0 1 0;
#X connect 7 1 0 0;
#X restore 244 78 pd sampler_pad_2;
#N canvas 472 302 270 276 sampler_pad_3 0;
#X obj 109 64 route all;
#X obj 60 100 poly 16 1, f 16;
#X obj 60 121 - 1;
#X obj 60 142 pack f f f;
#X obj 30 17 inlet;
#X obj 50 230 outlet~;
#X obj 60 179 clone sampler_pad3 16;
#X obj 60 64 route 3;
#X connect 0 0 1 0;
#X connect 1 0 2 0;
#X connect 1 1 3 1;
#X connect 1 2 3 2;
#X connect 2 0 3 0;
#X connect 3 0 6 0;
#X connect 4 0 7 0;
#X connect 6 0 5 0;
#X connect 7 0 1 0;
#X connect 7 1 0 0;
#X restore 245 98 pd sampler_pad_3;
#N canvas 472 302 270 276 sampler_pad_4 0;
#X obj 109 64 route all;
#X obj 60 100 poly 16 1, f 16;
#X obj 60 121 - 1;
#X obj 60 142 pack f f f;
#X obj 30 17 inlet;
#X obj 50 230 outlet~;
#X obj 60 179 clone sampler_pad4 16;
#X obj 60 64 route 4;
#X connect 0 0 1 0;
#X connect 1 0 2 0;
#X connect 1 1 3 1;
#X connect 1 2 3 2;
#X connect 2 0 3 0;
#X connect 3 0 6 0;
#X connect 4 0 7 0;
#X connect 6 0 5 0;
#X connect 7 0 1 0;
#X connect 7 1 0 0;
#X restore 246 118 pd sampler_pad_4;
#N canvas 472 302 270 276 sampler_pad_5 0;
#X obj 109 64 route all;
#X obj 60 100 poly 16 1, f 16;
#X obj 60 121 - 1;
#X obj 60 142 pack f f f;
#X obj 30 17 inlet;
#X obj 50 230 outlet~;
#X obj 60 179 clone sampler_pad5 16;
#X obj 60 64 route 5;
#X connect 0 0 1 0;
#X connect 1 0 2 0;
#X connect 1 1 3 1;
#X connect 1 2 3 2;
#X connect 2 0 3 0;
#X connect 3 0 6 0;
#X connect 4 0 7 0;
#X connect 6 0 5 0;
#X connect 7 0 1 0;
#X connect 7 1 0 0;
#X restore 247 138 pd sampler_pad_5;
#N canvas 472 302 270 276 sampler_pad_6 0;
#X obj 109 64 route all;
#X obj 60 100 poly 16 1, f 16;
#X obj 60 121 - 1;
#X obj 60 142 pack f f f;
#X obj 30 17 inlet;
#X obj 50 230 outlet~;
#X obj 60 179 clone sampler_pad6 16;
#X obj 60 64 route 6;
#X connect 0 0 1 0;
#X connect 1 0 2 0;
#X connect 1 1 3 1;
#X connect 1 2 3 2;
#X connect 2 0 3 0;
#X connect 3 0 6 0;
#X connect 4 0 7 0;
#X connect 6 0 5 0;
#X connect 7 0 1 0;
#X connect 7 1 0 0;
#X restore 248 158 pd sampler_pad_6;
#N canvas 472 302 270 276 sampler_pad_7 0;
#X obj 109 64 route all;
#X obj 60 100 poly 16 1, f 16;
#X obj 60 121 - 1;
#X obj 60 142 pack f f f;
#X obj 30 17 inlet;
#X obj 50 230 outlet~;
#X obj 60 179 clone sampler_pad7 16;
#X obj 60 64 route 7;
#X connect 0 0 1 0;
#X connect 1 0 2 0;
#X connect 1 1 3 1;
#X connect 1 2 3 2;
#X connect 2 0 3 0;
#X connect 3 0 6 0;
#X connect 4 0 7 0;
#X connect 6 0 5 0;
#X connect 7 0 1 0;
#X connect 7 1 0 0;
#X restore 249 178 pd sampler_pad_7;
#N canvas 472 302 270 276 sampler_pad_8 0;
#X obj 109 64 route all;
#X obj 60 100 poly 16 1, f 16;
#X obj 60 121 - 1;
#X obj 60 142 pack f f f;
#X obj 30 17 inlet;
#X obj 50 230 outlet~;
#X obj 60 179 clone sampler_pad8 16;
#X obj 60 64 route 8;
#X connect 0 0 1 0;
#X connect 1 0 2 0;
#X connect 1 1 3 1;
#X connect 1 2 3 2;
#X connect 2 0 3 0;
#X connect 3 0 6 0;
#X connect 4 0 7 0;
#X connect 6 0 5 0;
#X connect 7 0 1 0;
#X connect 7 1 0 0;
#X restore 250 198 pd sampler_pad_8;
#N canvas 472 302 270 276 sampler_pad_9 0;
#X obj 109 64 route all;
#X obj 60 100 poly 16 1, f 16;
#X obj 60 121 - 1;
#X obj 60 142 pack f f f;
#X obj 30 17 inlet;
#X obj 50 230 outlet~;
#X obj 60 179 clone sampler_pad9 16;
#X obj 60 64 route 9;
#X connect 0 0 1 0;
#X connect 1 0 2 0;
#X connect 1 1 3 1;
#X connect 1 2 3 2;
#X connect 2 0 3 0;
#X connect 3 0 6 0;
#X connect 4 0 7 0;
#X connect 6 0 5 0;
#X connect 7 0 1 0;
#X connect 7 1 0 0;
#X restore 251 218 pd sampler_pad_9;
#N canvas 472 302 270 276 sampler_pad_10 0;
#X obj 119 64 route all;
#X obj 60 100 poly 16 1, f 16;
#X obj 60 121 - 1;
#X obj 60 142 pack f f f;
#X obj 30 17 inlet;
#X obj 50 230 outlet~;
#X obj 60 179 clone sampler_pad10 16;
#X obj 60 64 route 10;
#X connect 0 0 1 0;
#X connect 1 0 2 0;
#X connect 1 1 3 1;
#X connect 1 2 3 2;
#X connect 2 0 3 0;
#X connect 3 0 6 0;
#X connect 4 0 7 0;
#X connect 6 0 5 0;
#X connect 7 0 1 0;
#X connect 7 1 0 0;
#X restore 252 238 pd sampler_pad_10;
#N canvas 472 302 270 276 sampler_pad_11 0;
#X obj 119 64 route all;
#X obj 60 100 poly 16 1, f 16;
#X obj 60 121 - 1;
#X obj 60 142 pack f f f;
#X obj 30 17 inlet;
#X obj 50 230 outlet~;
#X obj 60 179 clone sampler_pad11 16;
#X obj 60 64 route 11;
#X connect 0 0 1 0;
#X connect 1 0 2 0;
#X connect 1 1 3 1;
#X connect 1 2 3 2;
#X connect 2 0 3 0;
#X connect 3 0 6 0;
#X connect 4 0 7 0;
#X connect 6 0 5 0;
#X connect 7 0 1 0;
#X connect 7 1 0 0;
#X restore 253 258 pd sampler_pad_11;
#N canvas 472 302 270 276 sampler_pad_12 0;
#X obj 119 64 route all;
#X obj 60 100 poly 16 1, f 16;
#X obj 60 121 - 1;
#X obj 60 142 pack f f f;
#X obj 30 17 inlet;
#X obj 50 230 outlet~;
#X obj 60 179 clone sampler_pad12 16;
#X obj 60 64 route 12;
#X connect 0 0 1 0;
#X connect 1 0 2 0;
#X connect 1 1 3 1;
#X connect 1 2 3 2;
#X connect 2 0 3 0;
#X connect 3 0 6 0;
#X connect 4 0 7 0;
#X connect 6 0 5 0;
#X connect 7 0 1 0;
#X connect 7 1 0 0;
#X restore 254 278 pd sampler_pad_12;
#N canvas 472 302 270 276 sampler_pad_13 0;
#X obj 119 64 route all;
#X obj 60 100 poly 16 1, f 16;
#X obj 60 121 - 1;
#X obj 60 142 pack f f f;
#X obj 30 17 inlet;
#X obj 50 230 outlet~;
#X obj 60 179 clone sampler_pad13 16;
#X obj 60 64 route 13;
#X connect 0 0 1 0;
#X connect 1 0 2 0;
#X connect 1 1 3 1;
#X connect 1 2 3 2;
#X connect 2 0 3 0;
#X connect 3 0 6 0;
#X connect 4 0 7 0;
#X connect 6 0 5 0;
#X connect 7 0 1 0;
#X connect 7 1 0 0;
#X restore 255 298 pd sampler_pad_13;
#N canvas 472 302 270 276 sampler_pad_14 0;
#X obj 119 64 route all;
#X obj 60 100 poly 16 1, f 16;
#X obj 60 121 - 1;
#X obj 60 142 pack f f f;
#X obj 30 17 inlet;
#X obj 50 230 outlet~;
#X obj 60 179 clone sampler_pad14 16;
#X obj 60 64 route 14;
#X connect 0 0 1 0;
#X connect 1 0 2 0;
#X connect 1 1 3 1;
#X connect 1 2 3 2;
#X connect 2 0 3 0;
#X connect 3 0 6 0;
#X connect 4 0 7 0;
#X connect 6 0 5 0;
#X connect 7 0 1 0;
#X connect 7 1 0 0;
#X restore 256 318 pd sampler_pad_14;
#N canvas 472 302 270 276 sampler_pad_15 0;
#X obj 119 64 route all;
#X obj 60 100 poly 16 1, f 16;
#X obj 60 121 - 1;
#X obj 60 142 pack f f f;
#X obj 30 17 inlet;
#X obj 50 230 outlet~;
#X obj 60 179 clone sampler_pad15 16;
#X obj 60 64 route 15;
#X connect 0 0 1 0;
#X connect 1 0 2 0;
#X connect 1 1 3 1;
#X connect 1 2 3 2;
#X connect 2 0 3 0;
#X connect 3 0 6 0;
#X connect 4 0 7 0;
#X connect 6 0 5 0;
#X connect 7 0 1 0;
#X connect 7 1 0 0;
#X restore 257 338 pd sampler_pad_15;
#X obj 28 13 r samplers_in;
#X obj 99 221 outlet~;
#X obj 105 241 outlet~;
#X obj 110 260 outlet~;
#X obj 115 281 outlet~;
#X obj 120 300 outlet~;
#X obj 126 320 outlet~;
#X obj 131 339 outlet~;
#X obj 137 360 outlet~;
#X obj 142 379 outlet~;
#X obj 148 399 outlet~;
#X obj 153 418 outlet~;
#X obj 157 438 outlet~;
#X obj 162 457 outlet~;
#X obj 168 477 outlet~;
#X obj 173 496 outlet~;
#X obj 94 202 outlet~;
#X text 57 203 pad_0;
#X text 63 222 pad_1;
#X text 69 241 pad_2;
#X text 75 260 pad_3;
#X text 79 281 pad_4;
#X text 85 300 pad_5;
#X text 91 319 pad_6;
#X text 97 338 pad_7;
#X text 100 361 pad_8;
#X text 106 380 pad_9;
#X text 108 399 pad_10;
#X text 114 418 pad_11;
#X text 117 438 pad_12;
#X text 122 457 pad_13;
#X text 128 476 pad_14;
#X text 133 496 pad_15;
#N canvas 472 302 270 276 sampler_pad_1 0;
#X obj 60 64 route 1;
#X obj 109 64 route all;
#X obj 60 100 poly 16 1, f 16;
#X obj 60 121 - 1;
#X obj 60 142 pack f f f;
#X obj 30 17 inlet;
#X obj 50 230 outlet~;
#X obj 60 179 clone sampler_pad1 16;
#X connect 0 0 2 0;
#X connect 0 1 1 0;
#X connect 1 0 2 0;
#X connect 2 0 3 0;
#X connect 2 1 4 1;
#X connect 2 2 4 2;
#X connect 3 0 4 0;
#X connect 4 0 7 0;
#X connect 5 0 0 0;
#X connect 7 0 6 0;
#X restore 243 58 pd sampler_pad_1;
#X connect 0 0 31 0;
#X connect 1 0 17 0;
#X connect 2 0 18 0;
#X connect 3 0 19 0;
#X connect 4 0 20 0;
#X connect 5 0 21 0;
#X connect 6 0 22 0;
#X connect 7 0 23 0;
#X connect 8 0 24 0;
#X connect 9 0 25 0;
#X connect 10 0 26 0;
#X connect 11 0 27 0;
#X connect 12 0 28 0;
#X connect 13 0 29 0;
#X connect 14 0 30 0;
#X connect 15 0 0 0;
#X connect 15 0 14 0;
#X connect 15 0 13 0;
#X connect 15 0 12 0;
#X connect 15 0 11 0;
#X connect 15 0 10 0;
#X connect 15 0 9 0;
#X connect 15 0 8 0;
#X connect 15 0 7 0;
#X connect 15 0 6 0;
#X connect 15 0 5 0;
#X connect 15 0 4 0;
#X connect 15 0 3 0;
#X connect 15 0 2 0;
#X connect 15 0 1 0;
#X connect 15 0 48 0;
#X connect 48 0 16 0;
#X restore 26 152 pd sampler_instrumento;
#X f 38;
#N canvas 473 389 476 179 mensagens_entrada_sampler 0;
#N canvas 579 273 450 114 Mensagens_de_controle_buffers 0;
#X obj 44 18 else/click 1;
#X msg 44 39 \; pd-Mensagens_de_controle_dos_buffers_em_samplers vis
1;
#X connect 0 0 1 0;
#X restore 223 79 pd Mensagens_de_controle_buffers;
#X text 169 79 buffer -;
#X text 157 103 gravador -;
#X text 157 129 samplers -;
#X msg 24 31 <módulo_do_sampler> <<Mensagens_de_controle_do_módulo>>
;
#X text 19 10 Formato das mensagens ao chegar no módulo:;
#N canvas 501 347 403 124 Mensagens_de_controle_gravadores 0;
#X obj 23 28 else/click 1;
#X msg 23 49 \; pd-Mensagens_de_controle_dos_gravadores_em_samplers
vis 1;
#X connect 0 0 1 0;
#X restore 223 102 pd Mensagens_de_controle_gravadores;
#X text 34 78 <módulo_do_sampler>:;
#X text 239 131 FALTANDO DOCUMENTAR;
#X restore 38 72 pd mensagens_entrada_sampler;
#X obj 13 188 dac~ 1 2 3 4 5 6 7 8 9 10 11 12 13 14 15 16;
#X obj 159 4 else/note 425 18 Menlo empty 0 0 0 0 0 255 255 255 0 0
[[Sampler]];
#X connect 3 0 5 0;
#X connect 7 0 9 0;
#X connect 7 1 9 1;
#X connect 7 2 9 2;
#X connect 7 3 9 3;
#X connect 7 4 9 4;
#X connect 7 5 9 5;
#X connect 7 6 9 6;
#X connect 7 7 9 7;
#X connect 7 8 9 8;
#X connect 7 9 9 9;
#X connect 7 10 9 10;
#X connect 7 11 9 11;
#X connect 7 12 9 12;
#X connect 7 13 9 13;
#X connect 7 14 9 14;
#X connect 7 15 9 15;
