#N canvas 755 86 452 558 10;
#X obj 38 15 inlet;
#X obj 67 370 else/pitch.shift~, f 22;
#X obj 98 502 outlet~;
#X obj 141 125 else/initmess 0;
#X obj 68 59 unpack;
#X obj 68 122 - 60;
#X obj 68 143 * 50;
#X obj 68 189 f;
#X obj 68 210 sel 0;
#X obj 68 164 t b f, f 11;
#X msg 95 231 1;
#X msg 48 231 0;
#X obj 252 230 else/rescale 0 127 0 1 0.38;
#X obj 75 423 sig~;
#X obj 252 411 vline~;
#X obj 237 432 *~;
#X obj 252 251 * 0.75;
#X obj 95 252 t f f;
#X obj 48 252 t f f;
#X msg 252 393 \$1 60;
#X obj 108 462 else/autofade~ hann 50;
#X obj 141 283 text get sampler_active_buffer;
#X obj 141 144 t f f;
#X obj 141 304 list trim;
#X obj 168 201 switch~;
#N canvas 260 197 450 300 cpu_saver_control 0;
#X obj 91 42 inlet;
#X obj 111 229 outlet;
#X obj 121 93 sel 0, f 17;
#X msg 121 114 0;
#X msg 220 114 1;
#X text 247 34 Controla o acionamento do objeto [switch] \, ligando/desligando
DSP do patch sampler_pad.pd, f 24;
#X obj 121 134 pipe 85;
#X connect 0 0 2 0;
#X connect 2 0 3 0;
#X connect 2 1 4 0;
#X connect 3 0 6 0;
#X connect 4 0 1 0;
#X connect 6 0 1 0;
#X restore 168 182 pd cpu_saver_control;
#X obj 67 346 else/tabplayer~ -fade 80;
#X obj 138 95 t f f f f, f 29;
#X obj 309 121 sel 0;
#X msg 336 140 0;
#X connect 0 0 4 0;
#X connect 1 0 15 0;
#X connect 3 0 22 0;
#X connect 4 0 5 0;
#X connect 4 1 27 0;
#X connect 5 0 6 0;
#X connect 6 0 9 0;
#X connect 7 0 8 0;
#X connect 8 0 11 0;
#X connect 8 1 10 0;
#X connect 9 0 7 0;
#X connect 9 1 1 1;
#X connect 10 0 17 0;
#X connect 11 0 18 0;
#X connect 12 0 16 0;
#X connect 13 0 20 0;
#X connect 14 0 15 1;
#X connect 15 0 20 1;
#X connect 16 0 19 0;
#X connect 17 0 26 0;
#X connect 17 1 13 0;
#X connect 18 0 26 0;
#X connect 18 1 13 0;
#X connect 19 0 14 0;
#X connect 20 0 2 0;
#X connect 21 0 23 0;
#X connect 22 0 21 0;
#X connect 22 1 25 0;
#X connect 23 0 26 0;
#X connect 25 0 24 0;
#X connect 26 0 1 0;
#X connect 27 0 7 1;
#X connect 27 1 25 0;
#X connect 27 2 12 0;
#X connect 27 3 28 0;
#X connect 28 1 29 0;
#X connect 29 0 21 0;
