#N canvas 168 127 344 494 10;
#X obj 18 15 inlet;
#X obj 47 300 else/pitch.shift~, f 22;
#X obj 38 432 outlet~;
#X obj 163 146 != 0;
#X obj 163 167 switch~;
#X obj 179 96 else/initmess 0;
#X obj 48 59 unpack;
#X obj 48 92 - 60;
#X obj 48 113 * 50;
#X obj 48 159 f;
#X obj 48 180 sel 0;
#X obj 48 134 t b f, f 11;
#X obj 118 75 t f f f, f 8;
#X msg 75 201 1;
#X msg 28 201 0;
#X obj 140 200 else/rescale 0 127 0 1 0.38;
#X obj 47 276 else/tabplayer~ pad_0 -fade 80;
#X obj 15 353 sig~;
#X obj 140 341 vline~;
#X obj 125 362 *~;
#X obj 140 225 * 0.75;
#X obj 75 222 t f f;
#X obj 28 222 t f f;
#X msg 140 323 \$1 60;
#X obj 48 392 else/autofade~ hann 50;
#X connect 0 0 6 0;
#X connect 1 0 19 0;
#X connect 3 0 4 0;
#X connect 5 0 3 0;
#X connect 6 0 7 0;
#X connect 6 1 12 0;
#X connect 7 0 8 0;
#X connect 8 0 11 0;
#X connect 9 0 10 0;
#X connect 10 0 14 0;
#X connect 10 1 13 0;
#X connect 11 0 9 0;
#X connect 11 1 1 1;
#X connect 12 0 9 1;
#X connect 12 1 15 0;
#X connect 12 2 3 0;
#X connect 13 0 21 0;
#X connect 14 0 22 0;
#X connect 15 0 20 0;
#X connect 16 0 1 0;
#X connect 17 0 24 0;
#X connect 18 0 19 1;
#X connect 19 0 24 1;
#X connect 20 0 23 0;
#X connect 21 0 16 0;
#X connect 21 1 17 0;
#X connect 22 0 16 0;
#X connect 22 1 17 0;
#X connect 23 0 18 0;
#X connect 24 0 2 0;
