#N canvas 716 -938 915 331 10;
#X obj 29 68 abl_link~, f 103;
#X obj 358 223 r #abl_link_num_peers;
#X floatatom 53 104 5 0 0 0 - - -;
#X obj 29 147 s.mess tempo out step;
#X obj 208 147 s.mess tempo out phase;
#X obj 388 147 s.mess tempo out beat_time;
#X obj 587 147 s.mess tempo out bpm;
#X obj 747 147 s.mess tempo out is_playing;
#X obj 358 247 s.mess tempo out #abl_link_num_peers;
#X obj 767 29 loadbang;
#X msg 767 50 \; pd dsp 1;
#X obj 323 29 cpuMeter;
#X obj 655 247 stdout;
#X obj 29 25 r in_pd~;
#X obj 655 218 r.mess;
#X floatatom 389 110 5 0 0 0 - - -;
#X floatatom 212 106 5 0 0 0 - - -;
#X obj 203 207 dac~;
#X obj 185 175 sig~;
#X obj 278 181 sig~;
#X connect 0 0 2 0;
#X connect 0 0 3 0;
#X connect 0 1 16 0;
#X connect 0 1 18 0;
#X connect 0 2 15 0;
#X connect 0 2 19 0;
#X connect 0 3 6 0;
#X connect 0 4 7 0;
#X connect 1 0 8 0;
#X connect 9 0 10 0;
#X connect 13 0 0 0;
#X connect 14 0 12 0;
#X connect 18 0 17 0;
#X connect 19 0 17 1;
