#N canvas 916 224 323 505 10;
#X obj 99 75 *~ 0.5;
#X text 31 11 [[Sampler]];
#X text 145 11 [[LooperStation]];
#X obj 34 33 catch~ sampler~_\$1;
#X obj 153 33 catch~ player~_\$1;
#X obj 119 173 throw~ vibrato~_in_\$1;
#X obj 119 189 catch~ vibrato~_out_\$1;
#X obj 119 233 throw~ tremolo~_in_\$1;
#X obj 119 249 catch~ tremolo~_out_\$1;
#X obj 119 294 throw~ cutoff~_in_\$1;
#X obj 119 310 catch~ cutoff~_out_\$1;
#X obj 99 368 throw~ pad~_\$1;
#X text 10 124 [[pitch_shift]];
#X text 34 182 [[vibrato]];
#X text 34 242 [[tremolo]];
#X text 46 304 [[cutoff];
#X text 198 369 <pad_n~>;
#X obj 99 384 catch~ pad~_\$1;
#X obj 89 459 throw~ esa_Master_out~;
#X obj 119 132 catch~ pitch_shift~_out_\$1;
#X obj 99 411 clip~ -1 1;
#X obj 119 116 throw~ pitch_shift~_in_\$1;
#X connect 0 0 21 0;
#X connect 3 0 0 0;
#X connect 4 0 0 0;
#X connect 6 0 7 0;
#X connect 8 0 9 0;
#X connect 10 0 11 0;
#X connect 17 0 20 0;
#X connect 19 0 5 0;
#X connect 20 0 18 0;
