#N canvas 231 238 835 431 12;
#X obj 21 21 cnv 15 154 154 empty empty empty 20 12 0 14 -66577 -66577
0;
#X text 208 28 ToDo:;
#X text 24 188 16 pads - 0 a 15;
#N canvas 726 115 307 173 receivingMessages_fromPads 0;
#X obj 71 135 outlet;
#X obj 39 23 r pad_send;
#X connect 1 0 0 0;
#X restore 527 338 pd receivingMessages_fromPads;
#N canvas 27 221 450 364 sendingMessages_toPads 0;
#X obj 39 126 t a f, f 6;
#X obj 109 155 \$1;
#X obj 91 177 ==;
#X obj 39 204 spigot 0;
#X obj 39 249 list split 1;
#X obj 79 271 list trim;
#X obj 39 6 inlet;
#X text 156 272 this drumpad - integer argument;
#X obj 79 326 s pad_receive;
#X obj 79 295 route in;
#X obj 109 131 else/lb;
#X obj 39 76 route in;
#X connect 0 0 3 0;
#X connect 0 1 2 0;
#X connect 1 0 2 1;
#X connect 2 0 3 1;
#X connect 3 0 4 0;
#X connect 4 1 5 0;
#X connect 5 0 9 0;
#X connect 6 0 11 0;
#X connect 9 0 8 0;
#X connect 10 0 1 0;
#X connect 11 1 0 0;
#X restore 20 387 pd sendingMessages_toPads;
#X text 256 105 As mensagens:;
#X text 270 149 - formato: drumpad <numero> <in/out> pad <numero_do_pad>
bang, f 62;
#X text 287 168 exemplos:, f 59;
#X text 297 188 - drumpad 0 in pad 0 (no drumpad de argumento 0 aciona
bang pad 0), f 66;
#X text 297 208 - drumpad 0 out pad 0 bang (pad 0 acionado via interface)
, f 66;
#X text 295 235 loadbang positions;
#X text 218 43 - documentar patch;
#N canvas 1091 -716 596 300 debug\ drumpad 0;
#X obj 31 27 bng 15 250 50 0 empty empty empty 17 7 0 10 -262144 -1
-1;
#X obj 31 75 print drumpad_number;
#X obj 31 51 \$1;
#N canvas 598 205 391 300 this_drumpad_messages 0;
#X obj 24 102 t a f, f 6;
#X obj 94 131 \$1;
#X obj 76 153 ==;
#X obj 24 180 spigot 0;
#X obj 24 205 list split 1;
#X obj 64 227 list trim;
#X text 141 228 this drumpad - integer argument;
#X obj 64 272 outlet;
#X obj 94 107 else/lb;
#X obj 24 67 route in;
#X obj 24 12 r.mess drumpad;
#X connect 0 0 3 0;
#X connect 0 1 2 0;
#X connect 1 0 2 1;
#X connect 2 0 3 1;
#X connect 3 0 4 0;
#X connect 4 1 5 0;
#X connect 5 0 7 0;
#X connect 8 0 1 0;
#X connect 9 1 0 0;
#X connect 10 0 9 0;
#X restore 274 34 pd this_drumpad_messages;
#X obj 274 58 spigot 0;
#X obj 274 98 print messages_drumpad;
#X obj 238 23 tgl 35 0 empty empty empty 17 7 0 10 -262144 -1 -1 0
1;
#X connect 0 0 2 0;
#X connect 2 0 1 0;
#X connect 3 0 4 0;
#X connect 4 0 5 0;
#X connect 6 0 4 1;
#X restore 585 23 pd debug\ drumpad;
#X obj 26 26 d_pad 12 127 255 255 255;
#X obj 26 64 d_pad 8 127 255 255 255;
#X obj 26 102 d_pad 4 127 255 255 255;
#X obj 26 140 d_pad 0 127 255 255 255;
#X obj 63 140 d_pad 1 127 255 255 255;
#X obj 63 102 d_pad 5 127 255 255 255;
#X obj 63 64 d_pad 9 127 255 255 255;
#X obj 63 26 d_pad 13 127 255 255 255;
#X obj 101 26 d_pad 14 127 255 255 255;
#X obj 101 64 d_pad 10 127 255 255 255;
#X obj 101 102 d_pad 6 127 255 255 255;
#X obj 101 140 d_pad 2 127 255 255 255;
#X obj 139 140 d_pad 3 127 255 255 255;
#X obj 139 102 d_pad 7;
#X obj 139 64 d_pad 11 127 255 255 255;
#X obj 139 26 d_pad 15 127 255 255 255;
#X obj 527 375 s.mess drumpad \$1 out;
#X obj 20 339 r.mess drumpad;
#X text 270 129 - chegam por OSC via objeto [r.mess];
#X connect 3 0 29 0;
#X connect 30 0 4 0;
#X coords 0 -1 1 1 156 156 2 20 20;
