#N canvas 626 400 565 378 10;
#N canvas 650 292 352 408 tick-sound 0;
#X obj 66 140 mtof;
#X obj 98 344 outlet~;
#X obj 149 259 vline~;
#X obj 98 278 *~;
#X obj 32 15 inlet;
#X obj 96 15 inlet;
#X obj 98 211 osc~;
#X msg 149 211 0 0 0 \, 1 4 4 \, 0 5 5;
#X obj 155 15 inlet;
#X msg 45 73 set \$1;
#X msg 132 73 set \$1;
#X msg 32 106 97;
#X msg 96 106 90;
#X obj 132 52 - 7;
#X obj 66 164 t b f;
#X msg 218 42 97;
#X obj 218 18 loadbang;
#X connect 0 0 14 0;
#X connect 2 0 3 1;
#X connect 3 0 1 0;
#X connect 4 0 11 0;
#X connect 5 0 12 0;
#X connect 6 0 3 0;
#X connect 7 0 2 0;
#X connect 8 0 9 0;
#X connect 8 0 13 0;
#X connect 9 0 11 0;
#X connect 10 0 12 0;
#X connect 11 0 0 0;
#X connect 12 0 0 0;
#X connect 13 0 10 0;
#X connect 14 0 7 0;
#X connect 14 1 6 0;
#X connect 15 0 13 0;
#X connect 15 0 9 0;
#X connect 16 0 15 0;
#X restore 29 178 pd tick-sound;
#X obj 313 29 loadbang;
#X obj 29 314 *~;
#X obj 313 295 vline~;
#X msg 313 273 \$1 40;
#X obj 313 53 t b b;
#X obj 29 112 spigot 0;
#X obj 82 89 r \$0-tgl-tempo_sound_send;
#X text 331 118 external metronomo volume slider;
#X obj 110 156 bng 15 250 50 0 empty empty empty 17 7 0 10 -262144
-1 -1;
#X obj 29 156 bng 15 250 50 0 empty empty empty 17 7 0 10 -262144 -1
-1;
#X obj 29 135 sel 0, f 12;
#X msg 313 240 0.6;
#X msg 345 75 set 0.6;
#N canvas 542 22 495 481 phase_beat 0;
#X floatatom 50 334 9 0 0 0 - - -;
#X obj 42 344 bng 8 250 50 0 empty empty empty 17 7 0 10 -262144 -1
-1;
#X floatatom 226 284 5 0 0 0 - - -;
#X floatatom 224 333 9 0 0 0 - - -;
#X obj 226 310 change;
#X obj 216 343 bng 8 250 50 0 empty empty empty 17 7 0 10 -262144 -1
-1;
#N canvas 0 22 417 300 if_note_value_equal_1 0;
#X obj 105 24 inlet;
#X text 109 6 tempo phase;
#X obj 128 102 else/quantizer 1 1;
#X obj 128 126 change;
#X obj 128 150 route 0;
#X obj 128 174 bang;
#X obj 128 248 outlet;
#X obj 128 74 spigot 0;
#X obj 225 24 inlet;
#X text 229 6 note_value;
#X text 18 218 if phase==0 and note_value==1 then bang, f 16;
#X obj 221 245 outlet;
#X text 225 209 else output phase quantized, f 15;
#X obj 225 48 == 1;
#X connect 0 0 7 0;
#X connect 2 0 3 0;
#X connect 3 0 4 0;
#X connect 4 0 5 0;
#X connect 4 1 11 0;
#X connect 5 0 6 0;
#X connect 7 0 2 0;
#X connect 8 0 13 0;
#X connect 13 0 7 1;
#X restore 50 184 pd if_note_value_equal_1;
#X obj 50 153 t f f, f 11;
#X obj 226 260 quantizer 1 1;
#X obj 228 157 t f f f, f 15;
#X obj 226 227 spigot 1;
#X obj 279 203 != 1;
#X text 442 211 (?);
#X text 359 220 quantum value divided by, f 13;
#X obj 330 222 /;
#X obj 330 179 t b f;
#X msg 330 200 4, f 1;
#X floatatom 343 288 5 0 0 0 - - -;
#X obj 224 425 outlet;
#X obj 198 22 r.mess tempo out note_value;
#X obj 20 21 r T_saida_phase;
#X connect 0 0 1 0;
#X connect 0 0 18 0;
#X connect 2 0 4 0;
#X connect 3 0 5 0;
#X connect 3 0 18 0;
#X connect 4 0 3 0;
#X connect 6 0 0 0;
#X connect 7 0 6 0;
#X connect 7 1 10 0;
#X connect 8 0 2 0;
#X connect 9 0 6 1;
#X connect 9 1 11 0;
#X connect 9 2 15 0;
#X connect 10 0 8 0;
#X connect 11 0 10 1;
#X connect 14 0 8 1;
#X connect 14 0 17 0;
#X connect 15 0 16 0;
#X connect 15 1 14 1;
#X connect 16 0 14 0;
#X connect 19 0 9 0;
#X connect 20 0 7 0;
#X restore 29 28 pd phase_beat;
#N canvas 543 76 450 300 beats_per_bar 0;
#X obj 27 13 inlet;
#X obj 27 271 outlet;
#X floatatom 27 37 5 0 0 0 - - -;
#X obj 27 60 bng 15 250 50 0 empty empty empty 17 7 0 10 -262144 -1
-1;
#X obj 159 90 - 1;
#X obj 27 135 else/count 0 3;
#X obj 159 66 r.mess tempo in beats_per_bar;
#X connect 0 0 2 0;
#X connect 2 0 3 0;
#X connect 3 0 5 0;
#X connect 4 0 5 1;
#X connect 5 0 1 0;
#X connect 6 0 4 0;
#X restore 29 58 pd beats_per_bar;
#X obj 29 338 outlet~;
#X obj 345 98 s slider_volume_metronomo_receive;
#X obj 365 239 r metronomo_volume_rcv;
#X connect 0 0 2 0;
#X connect 1 0 5 0;
#X connect 2 0 16 0;
#X connect 3 0 2 1;
#X connect 4 0 3 0;
#X connect 5 0 12 0;
#X connect 5 1 13 0;
#X connect 6 0 11 0;
#X connect 7 0 6 1;
#X connect 9 0 0 1;
#X connect 10 0 0 0;
#X connect 11 0 10 0;
#X connect 11 1 9 0;
#X connect 12 0 4 0;
#X connect 13 0 17 0;
#X connect 14 0 15 0;
#X connect 15 0 6 0;
#X connect 18 0 4 0;
