#N canvas 200 183 520 300 10;
#X declare -path esa_gravadores~_abs;
#X declare -path esa_sampler_abs;
#X declare -path esa_looper_abs;
#X obj 296 9 declare -path esa_gravadores~_abs;
#X obj 296 29 declare -path esa_sampler_abs;
#X obj 296 48 declare -path esa_looper_abs;
#X obj 85 134 - 1;
#X obj 85 155 pack f f f;
#X obj 85 113 poly 16 1, f 10;
#X obj 85 176 clone sampler_pad 16;
#X obj 75 227 outlet~;
#X obj 55 20 r sampler_in;
#N canvas 562 223 641 484 Mensagem_sampler_in 0;
#X text 32 25 O sampler recebe mensagens via [s sampler_in] no formato
;
#X msg 49 51 <message_type> <<control_message>>;
#X text 75 81 <message_type>;
#X text 93 106 midiNote <<control_message>> -;
#X text 283 106 recebe par de float representando altura MIDI e velocity
;
#X text 45 192 Acionar sampler pad_n;
#X text 200 192 pad_n = último pad acionado (pad atual);
#X msg 48 227 sampler <float>;
#X text 162 271 grava o conteúdo de pad_101 no buffer de pad_n;
#X text 156 228 <float> = pad_n - grava conteúdo de pad_n no buffer
de pad_100, f 63;
#X text 173 288 essa mensagem é enviada pelo sequencer. Se essa mensagem
não chegar o conteúdo é descartado;
#X msg 48 271 sampler <valid>;
#X msg 48 341 sampler <clear>;
#X text 158 341 limpa o conteúdo do buffer pad_101;
#X msg 48 391 sampler <rec>;
#X text 158 391 grava novo conteúdo do buffer pad_100 descartando
totalmente o anterior;
#X restore 347 264 pd Mensagem_sampler_in;
#X obj 85 70 route midiNote;
#X text 269 130 para copiar arrays talvez usar ofelia;
#X obj 228 151 else/openfile https://github.com/cuinjune/Ofelia/issues/41
-h;
#X obj 85 91 t a b, f 13;
#N canvas 470 282 450 300 set_buffer 0;
#X obj 94 96 inlet;
#X obj 103 222 text define sampler_active_buffer;
#X text 19 16 Define objeto text 'sampler_active_buffer' com o buffer
do pad atual para setar o buffer que o objeto [else/tabplayer] deve
utilizar para efetuar a reprodução;
#X msg 113 171 set set pad_\$1;
#X text 208 173 <--;
#X text 231 166 seta buffers do sampler para buffer do pad atual,
f 25;
#X obj 113 150 v pad_n;
#X connect 0 0 6 0;
#X connect 3 0 1 0;
#X connect 6 0 3 0;
#X restore 176 107 pd set_buffer;
#X obj 372 217 buffers 1 1200 100;
#X obj 371 196 buffer -1 1;
#X obj 372 236 gravador~ 1 100;
#X connect 3 0 4 0;
#X connect 4 0 6 0;
#X connect 5 0 3 0;
#X connect 5 1 4 1;
#X connect 5 2 4 2;
#X connect 6 0 7 0;
#X connect 8 0 10 0;
#X connect 10 0 13 0;
#X connect 13 0 5 0;
#X connect 13 1 14 0;
