#N canvas 256 43 845 681 10;
#X declare -lib ofelia;
#X declare -path else;
#X declare -path abl_link~;
#X obj 63 391 of_abl_link_metro;
#X msg 508 142 tempo \$1;
#X msg 206 142 resolution \$1;
#X msg 302 142 reset \$1 \$2;
#X obj 302 121 pack f f;
#X obj 63 122 tgl 15 0 empty empty empty 17 7 0 10 -262144 -1 -1 1
1;
#X floatatom 508 123 5 0 0 2 tempo - -;
#X floatatom 347 102 5 0 0 2 quantum - -;
#X floatatom 302 102 5 0 0 2 beat - -;
#X floatatom 206 122 5 0 0 2 resolution - -;
#X msg 63 143 connect \$1;
#X obj 146 122 tgl 15 0 empty empty empty 17 7 0 10 -262144 -1 -1 0
1;
#X msg 146 142 play \$1;
#X floatatom 571 123 5 0 0 0 - - -;
#X msg 571 142 offset \$1;
#X floatatom 434 122 5 0 0 2 quantum - -;
#X floatatom 382 122 5 0 0 2 beat - -;
#X msg 382 142 beat \$1;
#X msg 434 142 quantum \$1;
#X floatatom 162 417 5 0 0 1 beat_time - -;
#X floatatom 129 435 5 0 0 1 phase - -;
#X floatatom 96 452 5 0 0 1 step - -;
#X msg 155 545 step;
#X msg 207 545 phase;
#X msg 268 545 beat_time;
#X msg 418 545 is_playing;
#X msg 507 545 peers;
#X msg 355 545 bpm;
#X msg 652 545 resolution;
#X msg 735 545 quantum;
#X msg 561 545 is_connected;
#X obj 155 589 ofelia get abl_link;
#X text 22 12 Ableton Link [abl_link~] com suporte a scripts em Lua
com o objeto [ofelia], f 75;
#X obj 155 620 else/display;
#X text 73 54 É possível setar parâmtros via mensagem:;
#X text 274 434 e ter os dados de step \, phase e beat_time em streaming
\, porém \, como os dados de phase são cuspidos a cada bloco de dsp
\, fica custoso em termos de uso de CPU usar dessa maneira \, por isso
implementar tudo dentro em ofelia., f 46;
#X text 313 606 É possível recuperar via mensagem os parâmetros
acima;
#X obj 63 472 else/display;
#X text 61 497 dados retornados;
#X msg 735 185 step;
#X msg 735 207 phase;
#X msg 735 229 beat_time;
#X msg 735 271 is_playing;
#X msg 735 291 peers;
#X msg 735 251 bpm;
#X msg 735 332 resolution;
#X msg 735 352 quantum;
#X msg 735 312 is_connected;
#X text 525 185 Recuperação de dados sob demanda:;
#X obj 406 46 else/note 249 18 Menlo empty 0 0 0 0 0 255 255 255 0
0 DOCUMENTAR MELHOR PARA Q SERVE CADA PARÂMETRO;
#X obj 712 28 declare -lib ofelia;
#X obj 717 49 declare -path else;
#X obj 688 8 declare -path abl_link~;
#X connect 0 0 37 0;
#X connect 0 1 21 0;
#X connect 0 2 20 0;
#X connect 0 3 19 0;
#X connect 1 0 0 0;
#X connect 2 0 0 0;
#X connect 3 0 0 0;
#X connect 4 0 3 0;
#X connect 5 0 10 0;
#X connect 6 0 1 0;
#X connect 7 0 4 1;
#X connect 8 0 4 0;
#X connect 9 0 2 0;
#X connect 10 0 0 0;
#X connect 11 0 12 0;
#X connect 12 0 0 0;
#X connect 13 0 14 0;
#X connect 14 0 0 0;
#X connect 15 0 18 0;
#X connect 16 0 17 0;
#X connect 17 0 0 0;
#X connect 18 0 0 0;
#X connect 22 0 31 0;
#X connect 23 0 31 0;
#X connect 24 0 31 0;
#X connect 25 0 31 0;
#X connect 26 0 31 0;
#X connect 27 0 31 0;
#X connect 28 0 31 0;
#X connect 29 0 31 0;
#X connect 30 0 31 0;
#X connect 31 0 33 0;
#X connect 39 0 0 0;
#X connect 40 0 0 0;
#X connect 41 0 0 0;
#X connect 42 0 0 0;
#X connect 43 0 0 0;
#X connect 44 0 0 0;
#X connect 45 0 0 0;
#X connect 46 0 0 0;
#X connect 47 0 0 0;
