#N canvas 913 159 303 532 10;
#X declare -path ../;
#N canvas 495 44 542 379 metapatch 0;
#N canvas 542 210 386 306 args 0;
#X msg 40 57 args;
#X obj 40 78 pdcontrol;
#X obj 30 233 outlet;
#X obj 20 16 loadbang;
#X obj 40 99 list trim;
#X text 67 201 pad number;
#X msg 40 198 \$1;
#X obj 40 40 del 10;
#X msg 146 194 \$2;
#X text 174 195 constagem inicial;
#X obj 136 233 outlet;
#X obj 293 134 list length;
#X obj 146 143 spigot 1;
#X obj 293 193 t f f;
#X msg 293 174 0;
#X obj 40 118 t a a a, f 36;
#X obj 293 155 sel 1;
#X connect 0 0 1 0;
#X connect 1 0 4 0;
#X connect 3 0 7 0;
#X connect 4 0 15 0;
#X connect 6 0 2 0;
#X connect 7 0 0 0;
#X connect 8 0 10 0;
#X connect 11 0 16 0;
#X connect 12 0 8 0;
#X connect 13 0 10 0;
#X connect 13 1 12 1;
#X connect 14 0 13 0;
#X connect 15 0 6 0;
#X connect 15 1 12 0;
#X connect 15 2 11 0;
#X connect 16 0 14 0;
#X restore 74 13 pd args;
#X text 254 296 \$1 - posY;
#N canvas 494 363 294 345 calculate_posY_list 0;
#X obj 27 19 inlet;
#N canvas 222 109 290 324 count_to 0;
#X obj 112 21 inlet;
#X obj 52 260 outlet;
#X obj 25 117 until;
#X obj 82 146 + 1;
#X obj 25 147 float;
#X obj 116 146 sel;
#X msg 116 167 0;
#X obj 141 151 loadbang;
#X obj 112 62 t f f f;
#X obj 197 208 ==;
#X obj 25 168 t f f;
#X obj 197 229 sel 1;
#X obj 197 260 outlet;
#X obj 212 161 - 1;
#X connect 0 0 8 0;
#X connect 2 0 4 0;
#X connect 3 0 4 1;
#X connect 3 0 5 0;
#X connect 4 0 3 0;
#X connect 4 0 10 0;
#X connect 5 0 6 0;
#X connect 6 0 4 1;
#X connect 7 0 6 0;
#X connect 8 0 2 0;
#X connect 8 1 5 1;
#X connect 8 2 13 0;
#X connect 9 0 11 0;
#X connect 10 0 9 0;
#X connect 10 1 1 0;
#X connect 11 0 12 0;
#X connect 11 0 6 0;
#X connect 13 0 9 1;
#X restore 27 71 pd count_to;
#X obj 170 87 t b b;
#X msg 27 236;
#X msg 27 175 add2 \$1;
#X msg 170 122 set;
#X text 109 212 Create a list with posY of the n objects, f 22;
#X obj 27 298 outlet;
#X text 65 21 number of measures to be created;
#X obj 27 92 * 19;
#X text 56 93 deltaY = 19;
#X text 56 143 \$1 = 68;
#X obj 27 143 + 68;
#X connect 0 0 1 0;
#X connect 1 0 9 0;
#X connect 1 1 2 0;
#X connect 2 0 5 0;
#X connect 2 1 3 0;
#X connect 3 0 7 0;
#X connect 4 0 3 0;
#X connect 5 0 3 0;
#X connect 9 0 12 0;
#X connect 12 0 4 0;
#X restore 288 134 pd calculate_posY_list;
#X obj 61 124 until;
#X msg 179 214 reset;
#X obj 231 207 list split 1;
#X obj 231 182 list store;
#X msg 61 264 353 15;
#X msg 231 228 set \$1;
#X msg 98 237 add2 \$1;
#X obj 88 48 t f f f, f 31;
#X obj 403 61 declare -path ../;
#X obj 98 196 else/count 0 3;
#X obj 179 91 - 1;
#X text 254 313 \$2 - pad number (argument defined);
#X obj 61 166 t b b b, f 10;
#X text 455 28 k>=1;
#X msg 61 104 \$1;
#X obj 98 215 + 0;
#X obj 61 318 s \$0-pad_audio_chains;
#X msg 61 298 obj 36 \$1 audio_chain~_pad \$2;
#X text 310 10 creates [audio_chain~_pad] object:;
#X text 324 28 [audio_chain~_pad k];
#X connect 0 0 10 0;
#X connect 0 1 18 1;
#X connect 2 0 6 1;
#X connect 3 0 15 0;
#X connect 4 0 12 0;
#X connect 5 0 8 0;
#X connect 5 1 6 1;
#X connect 6 0 5 0;
#X connect 7 0 20 0;
#X connect 8 0 7 0;
#X connect 9 0 7 0;
#X connect 10 0 17 0;
#X connect 10 1 13 0;
#X connect 10 2 2 0;
#X connect 12 0 18 0;
#X connect 12 1 4 0;
#X connect 13 0 12 1;
#X connect 15 0 7 0;
#X connect 15 1 12 0;
#X connect 15 2 6 0;
#X connect 17 0 3 0;
#X connect 18 0 9 0;
#X connect 20 0 19 0;
#X restore 11 7 pd metapatch;
#N canvas 672 140 418 395 info 0;
#X text 23 83 Argumentos:;
#X text 22 13 Abstração que cria cadeias de ligações de sinal de
audio de cada pad da ESA;
#N canvas 0 50 286 217 cadeia_de_audio_do_pad 0;
#X obj 21 10 cnv 15 240 190 empty empty <pad_n> 12 12 0 12 -228856
-33289 0;
#X text 121 58 |;
#X text 121 68 |;
#X text 79 85 [[pitch_shift]];
#X text 120 99 |;
#X text 90 114 [[vibrato]];
#X text 120 128 |;
#X text 90 143 [[tremolo]];
#X text 120 158 |;
#X text 92 173 [[cutoff]];
#X text 45 42 [[Sampler]] && [[LooperStation]];
#X restore 122 29 pd cadeia_de_audio_do_pad;
#X text 105 83 [audio_chain~_pad <float>];
#X text 44 106 De acordo com argumento \$1 \, <float> \, cria a quantidade
de [audio_chain~_pad] que ficarão disponíveis, f 54;
#X text 44 196 A saída de áudio de cada cadeia pode ser recuperada
através de:, f 54;
#X text 54 230 [catch~ pad~_<pad_n>];
#X text 189 231 onde <pad_n> é o índice referente ao pad a ter o
sinal de áudio recuperado, f 25;
#X text 23 173 Saída de áudio;
#X restore 11 29 pd info;
#X obj 97 7 namecanvas \$0-pad_audio_chains;
