#N canvas 80 324 311 384 10;
#N canvas 573 30 661 682 metapatch 0;
#X obj 211 258 cnv 15 430 100 empty empty empty 20 12 0 14 -233017
-66577 0;
#X obj 21 388 cnv 15 335 46 empty empty empty 20 12 0 14 -233017 -66577
0;
#X obj 78 606 cnv 15 200 46 empty empty empty 20 12 0 14 -233017 -66577
0;
#N canvas 141 517 338 261 osc_parser_creation 0;
#X obj 38 22 inlet;
#X text 85 86 \$1 - posY of route object;
#X text 85 103 \$2 - argument of route object;
#X obj 38 63 t b a;
#X obj 38 194 outlet;
#X text 82 194 endbang;
#X msg 65 135 obj 50 \$1 route \$2;
#X obj 65 156 s \$0-receive_InternalMessages;
#X connect 0 0 3 0;
#X connect 3 0 4 0;
#X connect 3 1 6 0;
#X connect 6 0 7 0;
#X restore 27 395 pd osc_parser_creation;
#N canvas 170 223 450 163 connecting_coords 0;
#X obj 30 12 inlet;
#X text 93 26 \$1 - index of of object that connects with;
#X text 93 45 \$2 - index of object that will receive the connection
;
#X msg 30 96 connect \$1 0 \$2 0;
#X obj 30 120 s \$0-receive_InternalMessages;
#X connect 0 0 3 0;
#X connect 3 0 4 0;
#X restore 84 613 pd connecting_coords;
#X text 431 35 objects indexes;
#X text 451 58 1 - [r OSC_bus];
#X text 451 94 3 - [list trim];
#X text 451 112 4 - [outlet];
#X text 441 262 \$1 - posY of [r OSC_bus] object;
#X text 451 131 n - [route <<arg_nb>>];
#X text 451 76 2 - [oscparse <<arg_0>>];
#X text 490 145 n>=5 and nb>=1;
#N canvas 187 38 292 269 args 0;
#X msg 40 84 args;
#X obj 40 105 pdcontrol;
#X obj 40 126 t a a, f 24;
#X obj 181 201 outlet;
#X obj 40 201 outlet;
#X obj 181 171 list length;
#X obj 40 33 else/lb -init;
#X connect 0 0 1 0;
#X connect 1 0 2 0;
#X connect 2 0 5 0;
#X connect 2 1 4 0;
#X connect 5 0 3 0;
#X connect 6 0 0 0;
#X restore 117 8 pd args;
#N canvas 494 363 278 345 calculate_posY_list 0;
#X obj 27 19 inlet;
#X text 69 24 number of arguments;
#X text 56 143 \$1 = 58;
#X text 56 93 deltaY = 25;
#N canvas 222 109 290 324 count_to 0;
#X obj 112 21 inlet;
#X obj 52 260 outlet;
#X obj 25 117 until;
#X obj 82 146 + 1;
#X obj 25 147 float;
#X obj 116 146 sel;
#X msg 116 167 0;
#X obj 141 151 loadbang;
#X obj 112 62 t f f f;
#X obj 197 208 ==;
#X obj 25 168 t f f;
#X obj 197 229 sel 1;
#X obj 197 260 outlet;
#X obj 212 161 - 1;
#X connect 0 0 8 0;
#X connect 2 0 4 0;
#X connect 3 0 4 1;
#X connect 3 0 5 0;
#X connect 4 0 3 0;
#X connect 4 0 10 0;
#X connect 5 0 6 0;
#X connect 6 0 4 1;
#X connect 7 0 6 0;
#X connect 8 0 2 0;
#X connect 8 1 5 1;
#X connect 8 2 13 0;
#X connect 9 0 11 0;
#X connect 10 0 9 0;
#X connect 10 1 1 0;
#X connect 11 0 12 0;
#X connect 11 0 6 0;
#X connect 13 0 9 1;
#X restore 27 71 pd count_to;
#X obj 170 87 t b b;
#X msg 27 236;
#X msg 27 175 add2 \$1;
#X msg 170 122 set;
#X obj 27 92 * 25;
#X obj 27 143 + 58;
#X text 109 212 Create a list with posY of the n objects, f 22;
#X obj 27 298 outlet;
#X connect 0 0 4 0;
#X connect 4 0 9 0;
#X connect 4 1 5 0;
#X connect 5 0 8 0;
#X connect 5 1 6 0;
#X connect 6 0 12 0;
#X connect 7 0 6 0;
#X connect 8 0 6 0;
#X connect 9 0 10 0;
#X connect 10 0 7 0;
#X restore 190 140 pd calculate_posY_list;
#N canvas 257 269 306 427 argument_and_position 0;
#X obj 28 22 inlet;
#X obj 55 373 outlet;
#X obj 58 198 list store;
#N canvas 748 155 439 300 list-drip2 0;
#X text 19 17 Drips two lists in sync \, as long as the first list
lasts.;
#X obj 74 247 outlet;
#X obj 74 64 inlet;
#X obj 137 247 outlet;
#X obj 245 247 outlet;
#X obj 230 64 inlet;
#X text 292 245 End;
#X obj 74 149 t a b;
#N canvas 0 22 756 481 list-drip 0;
#X obj 63 84 t a a;
#X obj 63 241 spigot;
#X obj 102 149 bang;
#X obj 102 168 1;
#X obj 223 149 route bang;
#X obj 183 150 bang;
#X obj 183 169 0;
#X obj 102 114 list split 2;
#X obj 232 379 list split;
#X obj 299 328 list length;
#X obj 299 350 >> 1;
#X obj 63 260 t a a a a;
#X obj 63 446 list split;
#X obj 130 398 list length;
#X obj 130 423 >> 1;
#X obj 31 19 inlet;
#X obj 290 175 outlet;
#X text 73 19 Copyright 2009 by Mathieu Bouchard;
#X obj 31 53 t b a;
#X obj 465 119 outlet;
#X text 520 121 signal end of list;
#X text 381 23 made compatible with [list-drip]: fbar 2009;
#X connect 0 0 1 0;
#X connect 0 1 7 0;
#X connect 1 0 11 0;
#X connect 2 0 3 0;
#X connect 3 0 1 1;
#X connect 4 1 16 0;
#X connect 5 0 6 0;
#X connect 6 0 1 1;
#X connect 7 0 2 0;
#X connect 7 2 4 0;
#X connect 7 2 5 0;
#X connect 8 0 0 0;
#X connect 9 0 10 0;
#X connect 10 0 8 1;
#X connect 11 0 12 0;
#X connect 11 1 13 0;
#X connect 11 2 8 0;
#X connect 11 3 9 0;
#X connect 12 1 0 0;
#X connect 13 0 14 0;
#X connect 14 0 12 1;
#X connect 15 0 18 0;
#X connect 18 0 19 0;
#X connect 18 1 0 0;
#X restore 74 127 pd list-drip;
#X text 276 169 COPIED FROM list-abs;
#N canvas 0 22 450 300 list-dripslow 0;
#X obj 148 186 list split 1;
#X obj 148 161 list append;
#X obj 148 237 outlet;
#X obj 148 37 inlet;
#X obj 229 237 outlet;
#X obj 222 35 inlet;
#X obj 148 72 b;
#X text 265 36 list;
#X text 103 37 bang;
#X text 273 237 EOL;
#X text 89 236 element;
#X obj 229 207 b;
#X connect 0 0 2 0;
#X connect 0 1 1 1;
#X connect 0 2 11 0;
#X connect 1 0 0 0;
#X connect 3 0 6 0;
#X connect 5 0 1 1;
#X connect 6 0 1 0;
#X connect 11 0 4 0;
#X restore 137 199 pd list-dripslow;
#X connect 2 0 8 0;
#X connect 5 0 10 1;
#X connect 7 0 1 0;
#X connect 7 1 10 0;
#X connect 8 0 7 0;
#X connect 8 1 4 0;
#X connect 10 0 3 0;
#X restore 28 222 pd list-drip2;
#X obj 28 179 t a b;
#X obj 28 291 t b a;
#X obj 55 107 list length;
#X obj 28 81 t a a;
#X obj 28 146 list split;
#X obj 28 270 list append;
#X obj 164 20 inlet;
#X text 47 39 list of posY;
#X text 172 41 list of arguments;
#X text 74 330 list of <posY argument_n>;
#X text 142 350 once at a time;
#X connect 0 0 7 0;
#X connect 2 0 3 1;
#X connect 3 0 9 0;
#X connect 3 1 9 1;
#X connect 4 0 3 0;
#X connect 4 1 2 0;
#X connect 5 0 9 1;
#X connect 5 1 1 0;
#X connect 6 0 8 1;
#X connect 7 0 8 0;
#X connect 7 1 6 0;
#X connect 8 0 4 0;
#X connect 9 0 5 0;
#X connect 10 0 2 1;
#X restore 27 345 pd argument_and_position;
#X obj 27 295 t a b, f 6;
#X obj 108 320 list store;
#N canvas 157 206 290 324 counter 0;
#X obj 25 21 inlet;
#X obj 52 260 outlet;
#X obj 82 146 + 1;
#X obj 25 147 float;
#X obj 116 146 sel;
#X msg 116 167 0;
#X obj 148 151 loadbang;
#X obj 197 208 ==;
#X obj 25 168 t f f;
#X obj 197 229 sel 1;
#X obj 197 260 outlet;
#X obj 212 161 - 1;
#X obj 131 20 inlet;
#X obj 131 111 t f f;
#X text 133 3 max count;
#X text 27 4 bang to count;
#X text 212 277 endbang;
#X text 59 280 counted;
#X connect 0 0 3 0;
#X connect 2 0 3 1;
#X connect 2 0 4 0;
#X connect 3 0 2 0;
#X connect 3 0 8 0;
#X connect 4 0 5 0;
#X connect 5 0 3 1;
#X connect 6 0 5 0;
#X connect 7 0 9 0;
#X connect 8 0 7 0;
#X connect 8 1 1 0;
#X connect 9 0 10 0;
#X connect 9 0 5 0;
#X connect 11 0 7 1;
#X connect 12 0 13 0;
#X connect 13 0 4 1;
#X connect 13 1 11 0;
#X restore 27 498 pd counter;
#X obj 190 74 t f f, f 17;
#X text 118 495 release coords connection after end of object creation
, f 28;
#X text 93 500 -->;
#X text 130 633 Connect objects created;
#N canvas 790 217 302 468 connection_manager 0;
#X obj 20 17 inlet;
#X text 61 18 number of objects to connect;
#N canvas 222 109 290 324 count_to 0;
#X obj 112 21 inlet;
#X obj 52 260 outlet;
#X obj 25 117 until;
#X obj 82 146 + 1;
#X obj 25 147 float;
#X obj 116 146 sel;
#X msg 116 167 0;
#X obj 141 151 loadbang;
#X obj 112 62 t f f f;
#X obj 197 208 ==;
#X obj 25 192 t f f;
#X obj 197 229 sel 1;
#X obj 197 260 outlet;
#X obj 212 161 - 1;
#X obj 25 169 pipe 1;
#X connect 0 0 8 0;
#X connect 2 0 4 0;
#X connect 3 0 4 1;
#X connect 3 0 5 0;
#X connect 4 0 3 0;
#X connect 4 0 14 0;
#X connect 5 0 6 0;
#X connect 6 0 4 1;
#X connect 7 0 6 0;
#X connect 8 0 2 0;
#X connect 8 1 5 1;
#X connect 8 2 13 0;
#X connect 9 0 11 0;
#X connect 10 0 9 0;
#X connect 10 1 1 0;
#X connect 11 0 12 0;
#X connect 11 0 6 0;
#X connect 13 0 9 1;
#X connect 14 0 10 0;
#X restore 20 71 pd count_to;
#X msg 110 269 add2 \$1;
#X msg 110 330;
#X obj 190 272 t b b;
#X obj 44 218 f;
#X obj 59 157 t f b b f;
#X msg 110 354 \$2 \$1;
#X msg 83 111 0, f 1;
#X obj 44 239 route 0;
#X msg 44 267 set;
#X msg 190 304 set;
#X obj 110 414 outlet;
#X floatatom 88 43 5 0 0 0 - - -;
#X obj 20 92 + 3;
#X obj 83 92 t b b;
#X text 136 115 connect with outlet;
#X msg 110 111 1;
#X connect 0 0 2 0;
#X connect 2 0 15 0;
#X connect 2 1 16 0;
#X connect 3 0 4 0;
#X connect 4 0 8 0;
#X connect 5 0 12 0;
#X connect 5 1 4 0;
#X connect 6 0 10 0;
#X connect 7 0 6 1;
#X connect 7 1 5 0;
#X connect 7 2 6 0;
#X connect 7 3 3 0;
#X connect 8 0 13 0;
#X connect 9 0 6 1;
#X connect 10 0 11 0;
#X connect 10 1 3 0;
#X connect 11 0 4 0;
#X connect 12 0 4 0;
#X connect 14 0 2 0;
#X connect 15 0 7 0;
#X connect 16 0 9 0;
#X connect 16 1 18 0;
#X connect 18 0 7 0;
#X restore 84 561 pd connection_manager;
#X obj 190 230 t b a;
#X obj 27 275 list store;
#X text 499 619 Esteban Viveros (2020);
#X text 51 415 Create route objects that will parse OSC messages;
#X obj 17 111 route bang, f 20;
#X obj 17 132 t b b, f 7;
#X msg 72 161 0;
#X obj 84 538 f;
#X obj 190 116 t f f, f 19;
#X obj 27 368 spigot 1;
#X text 441 279 \$2 - posY of [list trim];
#X obj 217 334 s \$0-receive_InternalMessages;
#X msg 161 162 1;
#X obj 134 141 t a b;
#X msg 217 263 obj 40 \$1 r appOSC_bus \, obj 50 \$2 list trim \,,
f 23;
#X text 252 296 Creates first 2 objects;
#X obj 190 97 + 2;
#X obj 190 178 list split 2;
#X msg 17 158 2;
#X connect 3 0 18 0;
#X connect 13 0 28 0;
#X connect 13 1 19 0;
#X connect 14 0 41 0;
#X connect 15 0 33 0;
#X connect 16 0 15 0;
#X connect 16 1 17 0;
#X connect 17 0 15 1;
#X connect 18 1 31 0;
#X connect 19 0 40 0;
#X connect 19 1 18 1;
#X connect 23 0 4 0;
#X connect 24 0 25 0;
#X connect 24 1 38 0;
#X connect 25 0 16 0;
#X connect 28 0 29 0;
#X connect 28 1 37 0;
#X connect 29 0 42 0;
#X connect 29 1 30 0;
#X connect 30 0 33 1;
#X connect 31 0 23 0;
#X connect 32 0 14 0;
#X connect 32 1 31 1;
#X connect 33 0 3 0;
#X connect 36 0 33 1;
#X connect 37 0 17 1;
#X connect 37 1 36 0;
#X connect 38 0 35 0;
#X connect 40 0 32 0;
#X connect 41 0 24 0;
#X connect 41 1 25 1;
#X connect 42 0 31 0;
#X restore 10 10 pd metapatch;
#X obj 235 350 outlet;
#X obj 9 30 namecanvas \$0-receive_InternalMessages;
