#N canvas 211 81 575 114 10;
#X declare -path ./esa_gravadores~_abs;
#X declare -path ./esa_player~_abs;
#X declare -path ./esa_looper_abs;
#X declare -path ./esa_sampler_abs;
#N canvas 552 144 242 141 sampler-doc 0;
#X obj 12 10 else/click 1;
#N canvas 16 30 580 462 sampler_documentação 0;
#X restore 12 70 pd sampler_documentação;
#X msg 12 31 \; pd-sampler_documentação vis 1;
#X connect 0 0 2 0;
#X restore 14 14 pd sampler-doc;
#N canvas 639 240 439 422 processador_de_mensagens_dos_samplers 0;
#X text 67 60 <f \, f> pad_do_sampler \, iniciar/interromper gravação
;
#X obj 230 130 r E1_entradaMIDI_notein;
#X obj 61 75 t a a, f 24;
#X obj 187 238 list append;
#X obj 250 181 t b a;
#X obj 187 214 f;
#X obj 51 379 s samplers_in;
#X msg 202 105 \$1;
#X obj 187 259 list prepend samplers;
#X obj 61 166 list prepend gravador;
#X obj 61 187 list trim;
#X obj 31 19 r samplers_entrada;
#X obj 61 96 unpack;
#X msg 93 114 rec \$1;
#X obj 61 140 list append;
#X obj 209 302 r samplers_buffers_entrada;
#N canvas 553 285 282 196 controle_dos_buffers_samplers 0;
#X obj 37 37 inlet;
#X obj 47 136 outlet;
#X obj 67 79 list prepend buffer;
#X obj 67 100 list trim;
#X text 122 28 formata mensagens aos buffers dos samplers, f 21;
#X connect 0 0 2 0;
#X connect 2 0 3 0;
#X connect 3 0 1 0;
#X restore 219 324 pd controle_dos_buffers_samplers;
#X connect 1 0 4 0;
#X connect 2 0 12 0;
#X connect 2 1 7 0;
#X connect 3 0 8 0;
#X connect 4 0 5 0;
#X connect 4 1 3 1;
#X connect 5 0 3 0;
#X connect 7 0 5 1;
#X connect 8 0 6 0;
#X connect 9 0 10 0;
#X connect 10 0 6 0;
#X connect 11 0 2 0;
#X connect 12 0 14 0;
#X connect 12 1 13 0;
#X connect 13 0 14 1;
#X connect 14 0 9 0;
#X connect 15 0 16 0;
#X connect 16 0 6 0;
#X restore 13 46 pd processador_de_mensagens_dos_samplers;
#N canvas 410 -998 593 467 anotações_do_Sampler 0;
#X text 35 59 comment;
#X obj 108 61 keyboard 17 80 1 3 0 0 empty empty;
#X obj 16 34 vradio 15 1 0 8 empty empty empty 0 -8 0 10 -262144 -1
-1 0;
#X text 38 32 seletor de timbre;
#X obj 11 181 vsl 15 128 0 127 0 0 empty empty empty 0 -9 0 10 -262144
-1 -1 0 1;
#X text 30 181 processamento;
#X text 277 118 <--- drumpad;
#X text 237 144 1 buffer dedicado;
#X obj 250 174 bng 15 250 50 0 empty empty inicia 17 7 0 10 -262144
-1 -1;
#X obj 250 194 bng 15 250 50 0 empty empty finaliza 17 7 0 10 -262144
-1 -1;
#X text 127 307 - cortar o silêncio do sample no começo e final automaticamente
;
#X obj 237 106 tgl 35 0 empty empty empty 17 7 0 10 -262144 -1 -1 0
1;
#X text 313 74 Sampler;
#X text 235 76 gravar-->;
#X text 378 62 --->;
#X text 414 55 reproduz pad sampleado com pitshift temperado, f 23
;
#X text 378 86 ---> saida para processador;
#X obj 426 389 s player_in;
#X text 76 389 PARA CONTROLAR O SAMPLER DE CADA PAD (<pad_n> + 1000)
-->;
#X restore 119 15 pd anotações_do_Sampler;
#X obj 345 10 declare -path ./esa_gravadores~_abs;
#X obj 369 30 declare -path ./esa_player~_abs;
#X obj 375 70 declare -path ./esa_looper_abs;
#X obj 369 50 declare -path ./esa_sampler_abs;
#N canvas 98 112 620 547 Samplers 1;
#X msg 159 107 pd~ start ./esa_sampler_abs/samplers.pd;
#X obj 159 81 loadbang;
#X obj 57 77 list trim;
#X msg 164 126 pd~ stop;
#X obj 37 106 r~ gravador_in~;
#X obj 57 56 list prepend core2;
#X obj 27 9 r samplers_in;
#X obj 57 153 pd~ -noutsig 16, f 59;
#X obj 78 510 throw~ sampler~_0;
#X obj 100 490 throw~ sampler~_1;
#X obj 122 470 throw~ sampler~_2;
#X obj 144 450 throw~ sampler~_3;
#X obj 166 430 throw~ sampler~_4;
#X obj 188 410 throw~ sampler~_5;
#X obj 210 390 throw~ sampler~_6;
#X obj 232 370 throw~ sampler~_7;
#X obj 254 350 throw~ sampler~_8;
#X obj 276 330 throw~ sampler~_9;
#X obj 298 310 throw~ sampler~_10;
#X obj 320 290 throw~ sampler~_11;
#X obj 342 270 throw~ sampler~_12;
#X obj 364 250 throw~ sampler~_13;
#X obj 386 230 throw~ sampler~_14;
#X obj 408 210 throw~ sampler~_15;
#X connect 0 0 7 0;
#X connect 1 0 0 0;
#X connect 2 0 7 0;
#X connect 3 0 7 0;
#X connect 4 0 7 0;
#X connect 5 0 2 0;
#X connect 6 0 5 0;
#X connect 7 1 8 0;
#X connect 7 2 9 0;
#X connect 7 3 10 0;
#X connect 7 4 11 0;
#X connect 7 5 12 0;
#X connect 7 6 13 0;
#X connect 7 7 14 0;
#X connect 7 8 15 0;
#X connect 7 9 16 0;
#X connect 7 10 17 0;
#X connect 7 11 18 0;
#X connect 7 12 19 0;
#X connect 7 13 20 0;
#X connect 7 14 21 0;
#X connect 7 15 22 0;
#X connect 7 16 23 0;
#X restore 13 66 pd Samplers;
