#N canvas 0 22 450 300 10;
#X floatatom 316 233 0 0 0 0 - - -;
#X obj 316 145 cputime;
#X obj 316 25 loadbang;
#X obj 316 89 metro 1000;
#X obj 316 117 t b b;
#X obj 316 205 * 0.1;
#X obj 316 174 int;
#X text 293 274 CPU load in percent;
#X text 339 55 <= on/off;
#X obj 316 56 tgl 15 0 empty empty empty 17 7 0 10 -262144 -1 -1 1
1;
#X obj 127 248 s \$0-cpu_meter;
#X msg 127 222 label \$1;
#X obj 127 199 makefilename CPU\ %d%%;
#X msg 15 49 symbol CPU_90%;
#X obj 210 80 sel 0;
#X obj 100 100 tgl 30 0 empty empty empty 17 7 0 10 -262144 -1 -1 0
1;
#X obj 127 100 tgl 30 0 empty empty empty 17 7 0 10 -262144 -1 -1 0
1;
#X obj 155 100 tgl 30 0 empty empty empty 17 7 0 10 -262144 -1 -1 0
1;
#X obj 232 34 bng 15 250 50 0 empty empty empty 17 7 0 10 -262144 -1
-1;
#X obj 100 100 cnv 15 85 30 empty \$0-cpu_meter CPU\ 48% 6 15 0 18
-66577 -228856 0;
#X obj 27 172 makefilename CPU\ **%;
#X connect 0 0 12 0;
#X connect 1 0 6 0;
#X connect 2 0 9 0;
#X connect 3 0 4 0;
#X connect 4 0 1 0;
#X connect 4 1 1 1;
#X connect 5 0 0 0;
#X connect 6 0 5 0;
#X connect 9 0 3 0;
#X connect 9 0 14 0;
#X connect 11 0 10 0;
#X connect 12 0 11 0;
#X connect 13 0 11 0;
#X connect 14 0 20 0;
#X connect 15 0 18 0;
#X connect 16 0 18 0;
#X connect 17 0 18 0;
#X connect 18 0 9 0;
#X connect 20 0 11 0;
#X coords 0 -1 1 1 85 30 2 100 100;
