#N canvas 40 43 534 308 10;
#X declare -path abl_link~;
#X declare -path ../scripts;
#X declare -lib ofelia;
#X obj 381 28 declare -path abl_link~;
#X obj 375 9 declare -path ../scripts;
#X obj 212 95 abl_link~, f 20;
#X msg 212 163 step \$1;
#X msg 241 142 phase \$1;
#X msg 270 122 beat_time \$1;
#X msg 171 55 read -c abl_link.lua;
#X obj 171 29 loadbang;
#X obj 300 229 list trim;
#X obj 13 16 inlet;
#X obj 212 257 outlet;
#X obj 262 257 outlet;
#X obj 312 257 outlet;
#X obj 362 122 r #abl_link_num_peers;
#X msg 362 144 peers \$1;
#X obj 171 207 ofelia d -c12 abl_link;
#X obj 171 257 outlet;
#X obj 405 47 declare -lib ofelia;
#X obj 362 257 outlet;
#X obj 412 257 outlet;
#X obj 60 261 switch~;
#X obj 77 234 else/initmess 1;
#X obj 33 70 t a a;
#X obj 60 89 route on-off;
#X connect 2 0 3 0;
#X connect 2 0 10 0;
#X connect 2 1 4 0;
#X connect 2 1 11 0;
#X connect 2 2 5 0;
#X connect 2 2 12 0;
#X connect 2 3 18 0;
#X connect 2 4 19 0;
#X connect 3 0 15 0;
#X connect 4 0 15 0;
#X connect 5 0 15 0;
#X connect 6 0 15 0;
#X connect 7 0 6 0;
#X connect 8 0 2 0;
#X connect 9 0 22 0;
#X connect 13 0 14 0;
#X connect 14 0 15 0;
#X connect 15 0 16 0;
#X connect 15 1 8 0;
#X connect 21 0 20 0;
#X connect 22 0 15 0;
#X connect 22 1 23 0;
#X connect 23 0 20 0;
