#N canvas 521 138 592 463 12;
#X floatatom 80 304 9 0 0 0 - - -;
#X obj 72 314 bng 8 250 50 0 empty empty empty 17 7 0 10 -262144 -1
-1;
#X floatatom 256 254 5 0 0 0 - - -;
#X floatatom 254 303 9 0 0 0 - - -;
#X obj 256 280 change;
#X obj 246 313 bng 8 250 50 0 empty empty empty 17 7 0 10 -262144 -1
-1;
#N canvas 0 22 417 300 if_note_value_equal_1 0;
#X obj 105 24 inlet;
#X text 109 6 tempo phase;
#X obj 128 102 else/quantizer 1 1;
#X obj 128 126 change;
#X obj 128 150 route 0;
#X obj 128 174 bang;
#X obj 128 248 outlet;
#X obj 128 74 spigot 0;
#X obj 225 24 inlet;
#X text 229 6 note_value;
#X text 18 218 if phase==0 and note_value==1 then bang, f 16;
#X obj 221 245 outlet;
#X text 225 209 else output phase quantized, f 15;
#X obj 225 48 == 1;
#X connect 0 0 7 0;
#X connect 2 0 3 0;
#X connect 3 0 4 0;
#X connect 4 0 5 0;
#X connect 4 1 11 0;
#X connect 5 0 6 0;
#X connect 7 0 2 0;
#X connect 8 0 13 0;
#X connect 13 0 7 1;
#X restore 80 154 pd if_note_value_equal_1;
#X obj 80 123 t f f, f 11;
#X obj 256 230 quantizer 1 1;
#X obj 258 127 t f f f, f 15;
#X obj 256 197 spigot 1;
#X obj 309 173 != 1;
#X text 472 181 (?);
#X text 389 190 quantum value divided by, f 13;
#X obj 360 192 /;
#X obj 360 149 t b f;
#X msg 360 170 4, f 1;
#X floatatom 373 258 5 0 0 0 - - -;
#X obj 80 369 outlet;
#X obj 21 13 r~ phase;
#X obj 21 37 else/sig2float~ 5;
#X obj 198 22 r.mess tempo out note_value;
#X connect 0 0 1 0;
#X connect 0 0 18 0;
#X connect 2 0 4 0;
#X connect 3 0 5 0;
#X connect 3 0 18 0;
#X connect 4 0 3 0;
#X connect 6 0 0 0;
#X connect 7 0 6 0;
#X connect 7 1 10 0;
#X connect 8 0 2 0;
#X connect 9 0 6 1;
#X connect 9 1 11 0;
#X connect 9 2 15 0;
#X connect 10 0 8 0;
#X connect 11 0 10 1;
#X connect 14 0 8 1;
#X connect 14 0 17 0;
#X connect 15 0 16 0;
#X connect 15 1 14 1;
#X connect 16 0 14 0;
#X connect 19 0 20 0;
#X connect 20 0 7 0;
#X connect 21 0 9 0;
