#N canvas 310 388 324 239 10;
#X obj 98 69 route all;
#X obj 38 69 route \$1;
#X obj 38 142 else/tabwriter~ pad_\$1, f 31;
#X obj 38 168 recorder_out \$1;
#X obj 38 114 tabwriter_input_message;
#X obj 15 18 r gravador_in;
#X obj 191 18 r~ gravador_in~;
#X obj 28 204 s gravador_out;
#N canvas 222 288 217 203 cpu_saver 0;
#X obj 31 21 inlet;
#X obj 51 137 outlet;
#X msg 61 81 1;
#X msg 112 81 0;
#X obj 112 60 loadbang;
#X obj 61 50 t f f;
#X connect 0 0 5 0;
#X connect 2 0 1 0;
#X connect 3 0 1 0;
#X connect 4 0 3 0;
#X connect 5 0 2 0;
#X connect 5 1 3 0;
#X restore 234 107 pd cpu_saver;
#X obj 38 91 t a a;
#X obj 234 128 switch~;
#X connect 0 0 9 0;
#X connect 1 0 9 0;
#X connect 1 1 0 0;
#X connect 2 0 3 0;
#X connect 3 0 7 0;
#X connect 4 0 2 0;
#X connect 4 1 2 0;
#X connect 5 0 1 0;
#X connect 6 0 2 1;
#X connect 8 0 10 0;
#X connect 9 0 4 0;
#X connect 9 1 8 0;
