#N canvas 487 309 292 112 10;
#X declare -path esa_gravadores~_abs;
#N canvas 239 185 291 187 notas 0;
#X text 24 105 4 minutos em 16 bancos = 339 Mb;
#X text 108 123 1 minuto = 5 \, 292 Mb;
#X obj 20 65 bng 15 250 50 0 empty empty empty 17 7 0 10 -262144 -1
-1;
#N canvas 684 430 450 174 calculadora_internet 0;
#X obj 37 37 inlet;
#X msg 37 58 browse https://www.colincrawley.com/audio-file-size-calculator/
;
#X obj 37 90 pdcontrol;
#X connect 0 0 1 0;
#X connect 1 0 2 0;
#X restore 20 82 pd calculadora_internet;
#X text 24 12 usando 2 minutos = 170Mb;
#X connect 2 0 3 0;
#X restore 232 26 pd notas;
#N canvas 262 122 667 369 recorder_message_processor 0;
#X obj 90 96 list trim;
#X obj 56 223 list trim;
#N canvas 486 217 283 259 rec 0;
#X obj 63 21 inlet;
#X obj 63 201 outlet;
#X obj 63 57 route bang;
#X msg 63 119 rec;
#X obj 130 94 sel 0 1, f 11;
#X msg 130 119 0, f 1;
#X msg 167 119 1, f 1;
#X connect 0 0 2 0;
#X connect 2 0 3 0;
#X connect 2 1 4 0;
#X connect 3 0 1 0;
#X connect 4 0 5 0;
#X connect 4 1 6 0;
#X connect 5 0 1 0;
#X connect 6 0 1 0;
#X restore 90 151 pd rec;
#N canvas 548 335 199 292 stop 0;
#X obj 46 37 inlet;
#X obj 86 204 outlet;
#X msg 86 89 stop;
#X connect 0 0 2 0;
#X connect 2 0 1 0;
#X restore 164 151 pd stop;
#N canvas 533 369 242 275 start 0;
#X obj 33 31 inlet;
#X obj 100 198 outlet;
#X obj 33 77 route bang;
#X msg 100 119 start \$1;
#X connect 0 0 2 0;
#X connect 2 1 3 0;
#X connect 3 0 1 0;
#X restore 238 151 pd start;
#N canvas 633 254 212 269 reset 0;
#X obj 43 26 inlet;
#X obj 73 223 outlet;
#X msg 73 77 reset;
#X connect 0 0 2 0;
#X connect 2 0 1 0;
#X restore 386 151 pd reset;
#N canvas 570 316 242 275 end 0;
#X obj 33 31 inlet;
#X obj 90 198 outlet;
#X floatatom 90 99 5 0 0 1 end - -;
#X obj 33 77 route bang;
#X msg 90 119 end \$1;
#X connect 0 0 3 0;
#X connect 2 0 4 0;
#X connect 3 1 2 0;
#X connect 4 0 1 0;
#X restore 312 151 pd end;
#N canvas 514 262 242 275 continue 0;
#X obj 33 31 inlet;
#X obj 90 198 outlet;
#X floatatom 90 99 5 0 0 1 continue - -;
#X obj 33 77 route bang;
#X msg 90 119 continue \$1;
#X connect 0 0 3 0;
#X connect 2 0 4 0;
#X connect 3 1 2 0;
#X connect 4 0 1 0;
#X restore 460 151 pd continue;
#N canvas 666 330 242 275 loop 0;
#X obj 33 31 inlet;
#X obj 90 198 outlet;
#X floatatom 90 99 5 0 0 1 loop - -;
#X obj 33 77 route bang;
#X msg 90 119 loop \$1;
#X connect 0 0 3 0;
#X connect 2 0 4 0;
#X connect 3 1 2 0;
#X connect 4 0 1 0;
#X restore 534 151 pd loop;
#X obj 56 202 list append;
#X obj 56 61 list split 1;
#X obj 90 124 route rec stop start end reset continue loop, f 87;
#X msg 309 294 <pad> <<control_message>>;
#X obj 26 19 r recorder~_entrada;
#X obj 46 318 s gravador_in;
#N canvas 530 226 572 296 Mensagens_de_controle_dos_gravadores 0;
#X text 99 177 reset;
#X text 57 207 loop <float>;
#X text 139 147 - start point in ms (default 0), f 58;
#X text 139 207 -;
#X text 139 192 -;
#X text 139 177 -;
#X text 51 147 start <float>;
#X text 63 162 end <float>;
#X text 111 116 rec;
#X text 139 116 - (re)starts recording, f 58;
#X text 105 131 stop;
#X text 139 131 - stops recording, f 58;
#X text 33 192 continue <float>;
#X text 139 162 - end point in ms (default array's initial size),
f 58;
#X text 151 177 resets start/end from 0 to (current) array's size,
f 56;
#X text 151 192 non-zero: continue recording from where it last stopped
, f 56;
#X text 151 207 non-zero enables loop recording \, 0 disables it,
f 56;
#X msg 13 9 <pad> <<control_message>>;
#X text 32 44 <pad> - integer 0-15;
#X text 74 57 - all;
#X text 31 93 <<control_message>>;
#X restore 309 313 pd Mensagens_de_controle_dos_gravadores;
#X connect 0 0 11 0;
#X connect 1 0 14 0;
#X connect 2 0 9 1;
#X connect 3 0 9 1;
#X connect 4 0 9 1;
#X connect 5 0 9 1;
#X connect 6 0 9 1;
#X connect 7 0 9 1;
#X connect 8 0 9 1;
#X connect 9 0 1 0;
#X connect 10 0 9 0;
#X connect 10 1 0 0;
#X connect 11 0 2 0;
#X connect 11 1 3 0;
#X connect 11 2 4 0;
#X connect 11 3 6 0;
#X connect 11 4 5 0;
#X connect 11 5 7 0;
#X connect 11 6 8 0;
#X connect 13 0 10 0;
#X restore 7 52 pd recorder_message_processor;
#X obj 83 8 declare -path esa_gravadores~_abs;
#X obj 7 71 gravadores \$1 \$2;
