#N canvas 228 240 436 339 10;
#X obj 164 127 route all;
#X obj 104 127 route \$1;
#X obj 104 226 recorder_out \$1;
#X obj 104 172 tabwriter_input_message;
#X obj 81 76 r gravador_in;
#X obj 257 76 r~ gravador_in~;
#X obj 94 282 s gravador_out;
#N canvas 222 288 433 278 cpu_saver 0;
#X obj 100 47 inlet;
#X obj 120 193 outlet;
#X msg 130 117 1;
#X msg 181 137 0;
#X obj 238 121 loadbang;
#X obj 181 115 del 20;
#X obj 130 86 sel 1 0;
#X connect 0 0 6 0;
#X connect 2 0 1 0;
#X connect 3 0 1 0;
#X connect 4 0 3 0;
#X connect 5 0 3 0;
#X connect 6 0 2 0;
#X connect 6 1 5 0;
#X restore 300 165 pd cpu_saver;
#X obj 104 149 t a a;
#X obj 300 186 switch~;
#X obj 23 17 else/note 425 18 Menlo empty 0 0 0 0 0 255 255 255 0 0
Módulo individual de gravação;
#X obj 104 200 else/tabwriter~ pad_\$1, f 31;
#X connect 0 0 8 0;
#X connect 1 0 8 0;
#X connect 1 1 0 0;
#X connect 2 0 6 0;
#X connect 3 0 11 0;
#X connect 3 1 11 0;
#X connect 4 0 1 0;
#X connect 5 0 11 1;
#X connect 7 0 9 0;
#X connect 8 0 3 0;
#X connect 8 1 7 0;
#X connect 11 0 2 0;
