#N canvas 526 142 267 390 10;
#X declare -path ../;
#N canvas 495 44 542 379 metapatch 1;
#N canvas 473 430 158 249 args 1;
#X msg 40 64 args;
#X obj 40 85 pdcontrol;
#X obj 40 194 outlet;
#X obj 40 13 loadbang;
#X obj 40 106 list trim;
#X text 67 142 pad number;
#X msg 40 139 \$1;
#X obj 40 34 del 100;
#X connect 0 0 1 0;
#X connect 1 0 4 0;
#X connect 3 0 7 0;
#X connect 4 0 6 0;
#X connect 6 0 2 0;
#X connect 7 0 0 0;
#X restore 68 13 pd args;
#X text 214 296 \$1 - posY;
#N canvas 494 363 294 345 calculate_posY_list 0;
#X obj 27 19 inlet;
#N canvas 222 109 290 324 count_to 0;
#X obj 112 21 inlet;
#X obj 52 260 outlet;
#X obj 25 117 until;
#X obj 82 146 + 1;
#X obj 25 147 float;
#X obj 116 146 sel;
#X msg 116 167 0;
#X obj 141 151 loadbang;
#X obj 112 62 t f f f;
#X obj 197 208 ==;
#X obj 25 168 t f f;
#X obj 197 229 sel 1;
#X obj 197 260 outlet;
#X obj 212 161 - 1;
#X connect 0 0 8 0;
#X connect 2 0 4 0;
#X connect 3 0 4 1;
#X connect 3 0 5 0;
#X connect 4 0 3 0;
#X connect 4 0 10 0;
#X connect 5 0 6 0;
#X connect 6 0 4 1;
#X connect 7 0 6 0;
#X connect 8 0 2 0;
#X connect 8 1 5 1;
#X connect 8 2 13 0;
#X connect 9 0 11 0;
#X connect 10 0 9 0;
#X connect 10 1 1 0;
#X connect 11 0 12 0;
#X connect 11 0 6 0;
#X connect 13 0 9 1;
#X restore 27 71 pd count_to;
#X obj 170 87 t b b;
#X msg 27 236;
#X msg 27 175 add2 \$1;
#X msg 170 122 set;
#X text 109 212 Create a list with posY of the n objects, f 22;
#X obj 27 298 outlet;
#X text 65 21 number of measures to be created;
#X obj 27 92 * 19;
#X text 56 93 deltaY = 19;
#X text 56 143 \$1 = 68;
#X obj 27 143 + 68;
#X connect 0 0 1 0;
#X connect 1 0 9 0;
#X connect 1 1 2 0;
#X connect 2 0 5 0;
#X connect 2 1 3 0;
#X connect 3 0 7 0;
#X connect 4 0 3 0;
#X connect 5 0 3 0;
#X connect 9 0 12 0;
#X connect 12 0 4 0;
#X restore 288 134 pd calculate_posY_list;
#X obj 61 124 until;
#X msg 179 214 reset;
#X obj 231 207 list split 1;
#X obj 231 182 list store;
#X msg 61 264 353 15;
#X msg 231 228 set \$1;
#X msg 98 237 add2 \$1;
#X obj 88 48 t f f f, f 31;
#X obj 403 61 declare -path ../;
#X obj 98 196 else/count 0 3;
#X obj 179 91 - 1;
#X text 214 313 \$2 - pad number (argument defined);
#X obj 61 166 t b b b, f 10;
#X text 458 35 k>=1;
#X msg 61 104 \$1;
#X obj 61 318 s \$0-recorders;
#X msg 61 298 obj 36 \$1 recorder \$2;
#X text 367 35 [recorder k];
#X text 352 17 creates [recorder] object:;
#X connect 0 0 10 0;
#X connect 2 0 6 1;
#X connect 3 0 15 0;
#X connect 4 0 12 0;
#X connect 5 0 8 0;
#X connect 5 1 6 1;
#X connect 6 0 5 0;
#X connect 7 0 19 0;
#X connect 8 0 7 0;
#X connect 9 0 7 0;
#X connect 10 0 17 0;
#X connect 10 1 13 0;
#X connect 10 2 2 0;
#X connect 12 0 9 0;
#X connect 12 1 4 0;
#X connect 13 0 12 1;
#X connect 15 0 7 0;
#X connect 15 1 12 0;
#X connect 15 2 6 0;
#X connect 17 0 3 0;
#X connect 19 0 18 0;
#X restore 11 7 pd metapatch;
#N canvas 693 206 400 395 info 0;
#X text 23 63 Argumentos:;
#X msg 40 197 <float-all> <<mensagem_de_controle>>;
#X text 51 219 Sendo:;
#X text 63 237 <float-all> -;
#X text 22 13 Abstração que cria banco de players para looper;
#X msg 30 317 <float-all> <<mensagem_de_controle>>;
#X text 105 63 [recorders <float>];
#X text 44 87 De acordo com argumento \$1 \, <float> \, cria a quantidade
de recorder que ficarão disponíveis para gravação de samples,
f 54;
#X text 23 163 Mensagens podem ser enviadas para [s recorder_in] no
formato:;
#X text 153 237 índice do objeto recorder (0-k);
#X text 153 254 todos os [recorder] (all);
#X text 23 285 Retorno de mensagens podem ser recebidas através de
[r recorder_out] no formato:, f 52;
#X restore 11 29 pd info;
#X obj 111 7 namecanvas \$0-recorders;
