#N struct 2316-cell float x float y float cellsize float color;
#N canvas 429 130 538 269 10;
#X declare -lib else;
#X declare -path abl_link~;
#X declare -path rjlib/rj;
#X declare -path rjlib/pd;
#X declare -path list-abs;
#X declare -lib ofelia;
#X declare -path ./abs;
#X declare -path ./data;
#X declare -path ./scripts;
#X declare -path ./abs/esa_fx_controle_abs;
#X declare -path ./abs/esa_gravadores~_abs;
#X declare -path ./abs/esa_looper_abs;
#X declare -path ./abs/esa_player~_abs;
#X declare -path ./abs/esa_sampler_abs;
#X declare -path ./abs/esa_sequencer-abs;
#X declare -path ./abs/stuff;
#X declare -path ./testes;
#X declare -path ./abs/esa_sequencer_abs;
#X obj 379 15 dsp;
#N canvas 976 181 223 147 dependﾃｪncias 0;
#X obj 10 37 sel 1;
#N canvas 651 107 269 324 sobre\ dependﾃｪncias 0;
#X obj 8 11 cnv 15 250 300 empty empty empty 20 12 0 14 -233017 -66577
0;
#X obj 15 175 declare -lib else;
#N canvas 427 299 450 300 instalar_externals 0;
#X obj 10 10 bng 45 250 50 0 empty empty empty 17 7 0 10 -99865 -228856
-228856;
#X msg 10 60 browse https://gpi-nusom.gitbook.io/documentacao/atividades/tutoriais/pure-data/instalar-externals-no-pd
;
#X obj 10 112 pdcontrol;
#X text 75 26 Site com instruﾃｧﾃｵes para como instalar externals;
#X connect 0 0 1 0;
#X connect 1 0 2 0;
#X coords 0 -1 1 1 45 45 2 10 10;
#X restore 45 115 pd instalar_externals;
#X obj 15 219 declare -path abl_link~;
#X obj 15 241 declare -path rjlib/rj;
#X obj 15 263 declare -path rjlib/pd;
#X obj 15 286 declare -path list-abs;
#X obj 15 197 declare -lib ofelia;
#X obj 17 20 else/note 425 13 helvetica empty 0 22 22 22 0 255 255
255 0 0 Depende das bibliotecas:;
#X obj 27 40 else/note 425 13 helvetica empty 0 22 22 22 0 255 255
255 0 0 - ELSE \; - abl-link~ \; - list-abs \; - ofelia;
#X obj 94 123 else/note 425 13 helvetica empty 0 22 22 22 0 255 255
255 0 0 <-- como instalar;
#X obj 141 138 else/note 425 13 helvetica empty 0 22 22 22 0 255 255
255 0 0 externals;
#X restore 10 109 pd sobre\ dependﾃｪncias;
#X msg 10 61 \; pd-sobre\ dependﾃｪncias vis 1;
#X obj 10 10 else/button 86 22 255 255 255 128 128 159;
#X obj 11 11 cnv 15 84 20 empty empty DEPENDﾃ劾CIAS 7 10 0 10 -66577
-228856 0;
#X connect 0 0 2 0;
#X connect 3 0 0 0;
#X coords 0 -1 1 1 86 22 2 10 10;
#X restore 435 48 pd dependﾃｪncias;
#N canvas 627 244 223 151 estruturas 0;
#X obj 10 37 sel 1;
#X msg 10 61 \; pd-sobre\ estrutura vis 1;
#N canvas 413 54 392 332 sobre\ estrutura 0;
#X obj 16 13 cnv 15 360 300 empty empty empty 20 12 0 14 -233017 -66577
0;
#X obj 70 24 note 425 13 helvetica empty 0 22 22 22 0 255 255 255 0
0 Configuraﾃｧﾃ｣o da estrutura de pastas;
#X obj 25 59 declare -path ./abs;
#X obj 25 80 declare -path ./data;
#X obj 25 100 declare -path ./scripts;
#X obj 25 120 declare -path ./abs/esa_fx_controle_abs;
#X obj 25 140 declare -path ./abs/esa_gravadores~_abs;
#X obj 25 160 declare -path ./abs/esa_looper_abs;
#X obj 25 180 declare -path ./abs/esa_player~_abs;
#X obj 25 200 declare -path ./abs/esa_sampler_abs;
#X obj 25 220 declare -path ./abs/esa_sequencer-abs;
#X obj 25 240 declare -path ./abs/stuff;
#X obj 25 259 declare -path ./testes;
#X restore 10 109 pd sobre\ estrutura;
#X obj 10 10 else/button 86 22 255 255 255 128 128 159;
#X obj 11 11 cnv 15 84 20 empty empty ESTRUTURA 13 10 0 10 -66577 -228856
0;
#X connect 0 0 1 0;
#X connect 3 0 0 0;
#X coords 0 -1 1 1 86 22 2 10 10;
#X restore 435 73 pd estruturas;
#X obj 436 14 cpuMeter;
#N canvas 136 214 478 500 ToDo 0;
#X text 41 332 - disponibilizar botﾃ｣o de modo Loop para [[looper]]
;
#X text 31 319 - Criar e documentar modo Loop do [[looper]];
#X text 31 365 - Tratar entrada do microfone (cliques no sampler) (??)
;
#X text 31 275 - Melhorar consumo de CPU pra evitar cliques;
#X text 31 195 - Implementar mensagens dos FXs;
#X text 41 210 - documentar;
#X text 51 40 - retornar mensagens armazenadas no prﾃｳximo ciclo de
compassos, f 62;
#X text 31 15 - Criar o sequencer em E2-A2;
#X text 31 397 - Implementar quantizaﾃｧﾃ｣o da saﾃｭda do Sequencer;
#X text 31 425 - Implementar quantizaﾃｧﾃ｣o do primeiro ataque de uma
gravaﾃｧﾃ｣o em Sampler/Looper;
#X obj 55 239 else/openfile https://forum.pdpatchrepo.info/topic/13253/fx3000-30-effect-abstraction-for-use-with-guitar-stompboxes-effects-racks-etc
-h;
#X text 51 57 - implementar recepﾃｧﾃ｣o de mensagens MIDI ctlin, f
62;
#X text 51 94 - implementar recepﾃｧﾃ｣o de mensagens para Efeitos,
f 62;
#X text 51 112 - modificar a estrutura de dados para garantir retorno
de mensagens na mesma ordem de entrada tb para entradas simultﾃ｢neas
(mesmo ﾃｭndice [idx]) (Nﾃ｣o ﾃｩ urgente);
#X text 31 155 - Implementar Sampler integrado com Sequencer;
#X text 41 225 - implementar mais efeitos(?)(nﾃ｣o ﾃｩ urgente):;
#X text 41 287 - jﾃ｡ melhorou muito! agora cuidar pra manter performance
;
#X text 41 168 - esquema de buffer temporﾃ｡rio com o buffer do Looper
;
#X text 51 76 - implementar buffer de dados do sequencer (1 compasso)
, f 62;
#X restore 475 127 pd ToDo;
#X obj 435 98 esa_diagramas;
#N canvas 266 191 534 157 T-Geradora_de_sinal_temporal 0;
#X text 319 33 ToDo:;
#X text 335 85 - bolar teste de latﾃｪncia na;
#X text 349 103 inicializaﾃｧﾃ｣o da interface;
#X obj 353 125 latency-tester;
#N canvas 481 410 189 123 doc_E3 0;
#X obj 11 57 sel 1;
#X obj 11 10 else/button 108 22 255 255 255 128 128 159;
#X obj 11 11 cnv 15 108 20 empty empty T-documentaﾃｧﾃ｣o 8 10 0 10 -66577
-228856 0;
#X msg 11 81 \; pd-ESA-estadoT vis 1;
#X connect 0 0 3 0;
#X connect 1 0 0 0;
#X coords 0 -1 1 1 109 22 2 10 10;
#X restore 19 13 pd doc_E3;
#N canvas 441 208 571 329 T1-Processador_de_mensagens_de_entrada 0
;
#X obj 83 140 of_abl_link_metro;
#N canvas 178 173 889 271 seta_abl_link 0;
#X obj 17 229 outlet;
#N canvas 461 116 414 165 erro 0;
#X obj 30 23 inlet;
#X obj 30 73 list prepend ERRO <T><seta_abl_link><tempo_transport>:\ 
;
#X obj 30 95 mensagem_de_erro;
#X connect 0 0 1 0;
#X connect 1 0 2 0;
#X restore 812 103 pd erro;
#N canvas 349 280 521 240 quantum 0;
#X obj 17 16 inlet;
#X obj 47 67 route bang;
#X msg 47 93 quantum;
#X msg 104 123 quantum \$1;
#X obj 104 91 route float, f 18;
#X obj 47 176 outlet;
#X obj 209 115 list prepend ERRO <T><seta_abl_link><tempo_transport><quantum>:\ 
;
#X obj 209 150 mensagem_de_erro;
#X connect 0 0 1 0;
#X connect 1 0 2 0;
#X connect 1 1 4 0;
#X connect 2 0 5 0;
#X connect 3 0 5 0;
#X connect 4 0 3 0;
#X connect 4 1 6 0;
#X connect 6 0 7 0;
#X restore 635 103 pd quantum;
#N canvas 358 131 415 172 beat 0;
#X obj 22 17 inlet;
#X msg 42 79 beat \$1;
#X obj 42 130 outlet;
#X obj 42 58 route float;
#X obj 105 80 list prepend ERRO <T><seta_abl_link><tempo_transport><beat>:\ 
;
#X obj 105 111 mensagem_de_erro;
#X connect 0 0 3 0;
#X connect 1 0 2 0;
#X connect 3 0 1 0;
#X connect 3 1 4 0;
#X connect 4 0 5 0;
#X restore 547 103 pd beat;
#N canvas 358 131 473 172 offset 0;
#X obj 22 17 inlet;
#X obj 42 130 outlet;
#X msg 42 79 offset \$1;
#X obj 42 58 route float, f 14;
#X obj 123 89 list prepend ERRO <T><seta_abl_link><tempo_transport><offset>:\ 
;
#X obj 123 118 mensagem_de_erro;
#X connect 0 0 3 0;
#X connect 2 0 1 0;
#X connect 3 0 2 0;
#X connect 3 1 4 0;
#X connect 4 0 5 0;
#X restore 458 103 pd offset;
#N canvas 358 131 164 172 reset 0;
#X obj 22 17 inlet;
#X obj 42 130 outlet;
#X msg 42 79 reset \$1 \$2;
#N canvas 186 218 440 300 teste 0;
#X obj 27 16 inlet;
#X obj 37 265 outlet;
#X obj 136 79 list length;
#X obj 136 100 == 2;
#X obj 136 184 sel 0;
#X obj 225 158 spigot 1;
#N canvas 633 84 266 355 teste_se_sﾃ｣o_float 0;
#X obj 41 7 inlet;
#X obj 116 315 outlet;
#X obj 71 147 route float;
#X obj 71 178 else/count;
#X obj 56 205 f;
#X msg 176 162 reset;
#X obj 176 141 t b b, f 9;
#X obj 176 113 del 1;
#X obj 56 226 == 1;
#X obj 56 247 sel 1 0;
#X msg 56 267 1;
#X obj 46 315 outlet;
#X obj 71 59 list-abs/list-drip;
#X connect 0 0 12 0;
#X connect 2 0 3 0;
#X connect 3 0 4 1;
#X connect 4 0 8 0;
#X connect 5 0 3 0;
#X connect 6 0 5 0;
#X connect 6 1 4 0;
#X connect 7 0 6 0;
#X connect 8 0 9 0;
#X connect 9 0 10 0;
#X connect 9 1 1 0;
#X connect 10 0 11 0;
#X connect 12 0 2 0;
#X connect 12 1 7 0;
#X restore 225 179 pd teste_se_sﾃ｣o_float;
#X obj 47 57 t a a a a, f 45;
#X obj 136 220 else/message, f 26;
#X obj 47 223 spigot 1;
#X obj 136 121 t f f f;
#X obj 136 239 list prepend ERRO <T><seta_abl_link><tempo_transport><reset>:\ 
;
#X obj 136 270 mensagem_de_erro;
#X connect 0 0 7 0;
#X connect 2 0 3 0;
#X connect 3 0 10 0;
#X connect 4 0 8 0;
#X connect 5 0 6 0;
#X connect 6 0 9 1;
#X connect 6 1 8 0;
#X connect 7 0 9 0;
#X connect 7 1 2 0;
#X connect 7 2 5 0;
#X connect 7 3 8 1;
#X connect 8 0 11 0;
#X connect 9 0 1 0;
#X connect 10 0 4 0;
#X connect 10 1 5 1;
#X connect 10 2 9 1;
#X connect 11 0 12 0;
#X restore 42 48 pd teste;
#X f 14;
#X connect 0 0 3 0;
#X connect 2 0 1 0;
#X connect 3 0 2 0;
#X restore 282 103 pd reset;
#N canvas 358 131 528 172 resolution 0;
#X obj 22 17 inlet;
#X obj 42 58 route bang, f 17;
#X obj 42 130 outlet;
#X msg 42 79 resolution \$1;
#X obj 141 128 mensagem_de_erro;
#X obj 141 89 list prepend ERRO <T><seta_abl_link><tempo_transport><resolution>:\ 
;
#X connect 0 0 1 0;
#X connect 1 0 3 0;
#X connect 1 1 5 0;
#X connect 3 0 2 0;
#X connect 5 0 4 0;
#X restore 193 103 pd resolution;
#N canvas 358 131 558 172 play 0;
#X obj 22 17 inlet;
#X obj 42 130 outlet;
#X msg 42 79 play \$1;
#X obj 42 58 route float, f 14;
#X obj 123 101 mensagem_de_erro;
#X obj 123 79 list prepend ERRO <T><seta_abl_link><tempo_transport><play>:\ 
, f 62;
#X connect 0 0 3 0;
#X connect 2 0 1 0;
#X connect 3 0 2 0;
#X connect 3 1 5 0;
#X connect 5 0 4 0;
#X restore 105 103 pd play;
#N canvas 498 93 485 172 connect 0;
#X obj 22 17 inlet;
#X obj 42 130 outlet;
#X msg 42 79 connect \$1;
#X obj 42 58 route float, f 14;
#X obj 123 145 mensagem_de_erro;
#X obj 123 110 list prepend ERRO <T><seta_abl_link><tempo_transport><connect>:
;
#X connect 0 0 3 0;
#X connect 2 0 1 0;
#X connect 3 0 2 0;
#X connect 3 1 5 0;
#X connect 5 0 4 0;
#X restore 17 103 pd connect;
#X obj 17 70 route connect play resolution reset bpm offset beat quantum
on-off, f 133;
#N canvas 358 131 438 172 on-off 0;
#X obj 22 17 inlet;
#X obj 42 130 outlet;
#X msg 42 79 on-off \$1;
#X obj 42 58 route float, f 14;
#X obj 123 80 list prepend ERRO <T><seta_abl_link><tempo_transport><on-off>:\ 
;
#X obj 123 110 mensagem_de_erro;
#X connect 0 0 3 0;
#X connect 2 0 1 0;
#X connect 3 0 2 0;
#X connect 3 1 4 0;
#X connect 4 0 5 0;
#X restore 723 103 pd on-off;
#N canvas 358 131 537 172 bpm 0;
#X obj 22 17 inlet;
#X obj 42 130 outlet;
#X msg 42 79 tempo \$1;
#X obj 42 58 route float, f 14;
#X obj 123 109 mensagem_de_erro;
#X obj 123 89 list prepend ERRO <T><seta_abl_link><tempo_transport><bpm>:\ 
;
#X connect 0 0 3 0;
#X connect 2 0 1 0;
#X connect 3 0 2 0;
#X connect 3 1 5 0;
#X connect 5 0 4 0;
#X restore 370 103 pd bpm;
#X obj 17 13 r T_entrada;
#X connect 2 0 0 0;
#X connect 3 0 0 0;
#X connect 4 0 0 0;
#X connect 5 0 0 0;
#X connect 6 0 0 0;
#X connect 7 0 0 0;
#X connect 8 0 0 0;
#X connect 9 0 8 0;
#X connect 9 1 7 0;
#X connect 9 2 6 0;
#X connect 9 3 5 0;
#X connect 9 4 11 0;
#X connect 9 5 4 0;
#X connect 9 6 3 0;
#X connect 9 7 2 0;
#X connect 9 8 10 0;
#X connect 9 9 1 0;
#X connect 10 0 0 0;
#X connect 11 0 0 0;
#X connect 12 0 9 0;
#X restore 70 110 pd seta_abl_link;
#N canvas 226 444 730 300 variﾃ｡veis_globais_de_tempo 0;
#X obj 29 18 inlet;
#X obj 49 59 t a b b b b, f 85;
#X obj 229 245 v bpm;
#X obj 164 154 v peers;
#X obj 297 160 v abl_link_connected;
#X obj 429 160 v resolution;
#X obj 556 160 v quantum;
#X obj 229 224 r T_saida_bpm;
#X msg 164 102 peers;
#X msg 297 100 is_connected;
#X obj 164 123 ofelia get abl_link;
#X obj 297 123 ofelia get abl_link;
#X obj 429 123 ofelia get abl_link;
#X msg 429 100 resolution;
#X obj 556 123 ofelia get abl_link;
#X msg 556 100 quantum;
#X obj 323 223 r T_saida_phase;
#X obj 323 244 v phase;
#X obj 130 224 r T_saida_step;
#X obj 130 245 v step;
#X obj 438 223 r T_saida_tempo_decorrido;
#X obj 438 246 v tempo_decorrido;
#X obj 106 15 r T_saida_step;
#X obj 106 36 bang;
#X connect 0 0 1 0;
#X connect 1 1 8 0;
#X connect 1 2 9 0;
#X connect 1 3 13 0;
#X connect 1 4 15 0;
#X connect 7 0 2 0;
#X connect 8 0 10 0;
#X connect 9 0 11 0;
#X connect 10 0 3 0;
#X connect 11 0 4 0;
#X connect 12 0 5 0;
#X connect 13 0 12 0;
#X connect 14 0 6 0;
#X connect 15 0 14 0;
#X connect 16 0 17 0;
#X connect 18 0 19 0;
#X connect 20 0 21 0;
#X connect 22 0 23 0;
#X connect 23 0 1 0;
#X restore 83 266 pd variﾃ｡veis_globais_de_tempo;
#X obj 162 180 s T_saida_bpm;
#X obj 122 219 s T_saida_phase;
#X obj 102 240 s T_saida_step;
#X obj 142 200 s T_saida_tempo_decorrido;
#X obj 182 161 v is_playing;
#X obj 23 17 else/note 348 18 Menlo empty 0 0 0 0 0 255 255 255 0 0
Processamento de mensagens de entrada do gerador de Timestamp;
#X text 207 76 com [abl_link~] gera timestamp para ser usado no gereciamento
temporal do instrumento;
#X connect 0 0 2 0;
#X connect 0 1 5 0;
#X connect 0 2 4 0;
#X connect 0 3 6 0;
#X connect 0 4 3 0;
#X connect 0 5 7 0;
#X connect 1 0 0 0;
#X restore 18 56 pd T1-Processador_de_mensagens_de_entrada;
#N canvas 444 220 573 376 T2-Gerador_de_Timestamp 0;
#X msg 398 296 0;
#X obj 328 276 t a b, f 12;
#X obj 47 70 r T_saida_phase;
#X obj 166 157 v step;
#X obj 77 157 v resolution;
#X obj 344 157 v quantum;
#X obj 434 158 v bpm;
#X obj 77 182 pack f f f f f, f 60;
#X obj 420 20 array d T2_timestamp 5;
#X obj 328 316 array set T2_timestamp;
#X obj 328 255 r T2_saida_timestamp;
#X obj 23 17 else/note 425 18 Menlo empty 0 0 0 0 0 255 255 255 0 0
TIMESTAMP;
#X text 143 20 <resolution> <step> <phase> <quantum> <bpm>;
#X obj 77 211 s T2_timestamp;
#X obj 77 121 t b b f b b, f 55;
#X connect 0 0 9 1;
#X connect 1 0 9 0;
#X connect 1 1 0 0;
#X connect 2 0 14 0;
#X connect 3 0 7 1;
#X connect 4 0 7 0;
#X connect 5 0 7 3;
#X connect 6 0 7 4;
#X connect 7 0 13 0;
#X connect 10 0 1 0;
#X connect 14 0 4 0;
#X connect 14 1 3 0;
#X connect 14 2 7 2;
#X connect 14 3 5 0;
#X connect 14 4 6 0;
#X restore 18 80 pd T2-Gerador_de_Timestamp;
#X text 335 58 - Terminar DOCUMENTAﾃﾃグ;
#X restore 12 106 pd T-Geradora_de_sinal_temporal;
#N canvas 713 216 480 234 E1-Processamento_de_mensagens_de_entrada
0;
#N canvas 170 328 635 313 M1-recepﾃｧﾃ｣o_de_mensagens_MIDI 0;
#X obj 74 73 notein;
#X obj 74 162 s E1_entradaMIDI_notein;
#X obj 74 108 pack;
#X text 110 107 (pitch \, velocity);
#X floatatom 365 126 0 0 0 0 - - -;
#X floatatom 349 155 0 0 0 0 - - -;
#X floatatom 381 93 0 0 0 0 - - -;
#X obj 349 68 ctlin;
#X text 380 156 value;
#X text 393 67 (all controllers \, omni);
#X text 396 126 controller #;
#X text 412 94 channel/port;
#X obj 349 184 pack f f f;
#X obj 349 212 s E1_entradaMIDI_ctlin;
#X text 220 165 m1;
#X text 489 214 m1;
#X obj 23 17 else/note 425 18 Menlo empty 0 0 0 0 0 255 255 255 0 0
Recepﾃｧﾃ｣o de Mensagens MIDI;
#X connect 0 0 2 0;
#X connect 0 1 2 1;
#X connect 2 0 1 0;
#X connect 4 0 12 1;
#X connect 5 0 12 0;
#X connect 6 0 12 2;
#X connect 7 0 5 0;
#X connect 7 1 4 0;
#X connect 7 2 6 0;
#X connect 12 0 13 0;
#X restore 49 76 pd M1-recepﾃｧﾃ｣o_de_mensagens_MIDI;
#N canvas 481 410 189 123 doc_E1 0;
#X obj 11 57 sel 1;
#X msg 11 81 \; pd-ESA-estadoE1 vis 1;
#X obj 11 10 else/button 108 22 255 255 255 128 128 159;
#X obj 11 11 cnv 15 108 20 empty empty E1-documentaﾃｧﾃ｣o 8 10 0 10
-66577 -228856 0;
#X connect 0 0 1 0;
#X connect 2 0 0 0;
#X coords 0 -1 1 1 109 22 2 10 10;
#X restore 18 12 pd doc_E1;
#N canvas 99 243 852 361 M2-traduﾃｧﾃ｣o_de_mensagens_MIDI_para_ESA-API
0;
#X obj 67 87 r E1_entradaMIDI_notein;
#X obj 290 86 r E1_entradaMIDI_ctlin;
#X text 140 67 m1;
#X text 362 66 m1;
#X text 638 65 m1;
#X text 500 84 chegada de dados do controlador temporal;
#X obj 92 295 s E1_entradaMIDI_notein_M2;
#X obj 323 290 s E1_entradaMIDI_ctlin_M2;
#X obj 23 17 else/note 425 18 Menlo empty 0 0 0 0 0 255 255 255 0 0
Traduﾃｧﾃ｣o de mensagens MIDI para ESA-API;
#X connect 0 0 6 0;
#X connect 1 0 7 0;
#X restore 49 95 pd M2-traduﾃｧﾃ｣o_de_mensagens_MIDI_para_ESA-API;
#X restore 12 15 pd E1-Processamento_de_mensagens_de_entrada;
#N canvas 66 27 568 168 E2-Armazenamento_de_mensagens 0;
#N canvas 367 147 450 300 A1-Processador_de_requisiﾃｧﾃｵes 0;
#N canvas 404 435 649 300 controle_do_sampler 0;
#N canvas 453 242 450 300 sampler_mensagens 0;
#X obj 90 25 else/click 1;
#X msg 90 46 \; pd-mensagens_entrada_sampler vis 1;
#X connect 0 0 1 0;
#X restore 497 15 pd sampler_mensagens;
#X obj 23 17 else/note 425 18 Menlo empty 0 0 0 0 0 255 255 255 0 0
Controle do sampler;
#X restore 21 27 pd controle_do_sampler;
#N canvas 235 39 635 676 controle_do_sequencer 0;
#X obj 22 17 else/note 425 18 Menlo empty 0 0 0 0 0 255 255 255 0 0
Controladora do SEQUENCER;
#N canvas 471 398 450 300 diretrizes 0;
#X obj 67 30 else/click 1;
#X msg 67 51 \; pd-diretrizes_de_criaﾃｧﾃ｣o_do_sequencer vis 1;
#X connect 0 0 1 0;
#X restore 79 313 pd diretrizes;
#N canvas 209 0 640 676 documentaﾃｧﾃ｣o_sequencer 0;
#X obj 59 82 else/pic 1 ./data/diagrama_sequencer.gif empty empty 0
0;
#X text 28 291 ENTRADAS:;
#X text 48 320 mensagem de controle do sequencer -;
#N canvas 408 135 450 513 Mensagens_de_controle_do_sequencer 0;
#X restore 266 320 pd Mensagens_de_controle_do_sequencer;
#N canvas 347 91 449 520 diretrizes_de_criaﾃｧﾃ｣o_do_sequencer 0;
#X text 30 62 Comportamento:;
#X text 57 88 Sobre reproduzir compassos ativados:;
#X text 78 103 compassos sﾃ｣o ativados quando em modo de tocar instrumento.
Sampler ou Synth, f 39;
#X text 67 103 -;
#X text 67 133 -;
#X text 78 133 o compasso ﾃｩ ativado quando:;
#X text 88 148 1) recebe uma nota MIDI apﾃｳs ativado;
#X text 88 164 2) e tb termina virando o compasso;
#X text 67 187 -;
#X text 78 187 um compasso virado que nﾃ｣o recebeu nenhuma entrada
MIDI permanecerﾃ｡ inalterado;
#X text 67 297 -;
#X text 30 272 Lembrar:;
#X text 78 297 O sequencer precisa saber qual a localizaﾃｧﾃ｣o temporal
do tranporte;
#X text 67 327 -;
#X text 78 327 Confirmar se sempre o phase do abl_link bate com as
indicaﾃｧﾃｵes de beat-resoluﾃｧﾃ｣o, f 56;
#X text 67 359 -;
#X text 78 359 Com as <mensagens de tempo> gerenciar a saﾃｭda de mensagens
;
#X text 67 427 -;
#X text 30 402 Dﾃｺvidas:;
#X text 78 427 quando eu tiver apenas 2 compassos gravados em uma sessﾃ｣o
que utiliza 4 compassos \, o que vai acontecer?;
#X obj 20 15 else/note 425 18 Menlo empty 0 0 0 0 0 255 255 255 0 0
Diretrizes de criaﾃｧﾃ｣o;
#X text 67 224 -;
#X text 78 224 cada pad tem no mﾃ｡ximo 4 ciclos de 4 compassos;
#X restore 58 61 pd diretrizes_de_criaﾃｧﾃ｣o_do_sequencer;
#X obj 21 17 else/note 425 18 Menlo empty 0 0 0 0 0 255 255 255 0 0
Documentaﾃｧﾃ｣o do SEQUENCER;
#X text 144 346 mensagem de tempo -;
#N canvas 562 393 450 300 Timestamp 0;
#X obj 98 41 else/click 1;
#X msg 98 62 \; pd-T2-Gerador_de_Timestamp vis 1;
#X connect 0 0 1 0;
#X restore 266 345 pd Timestamp;
#X text 30 406 mensagem de controle de procesadores -;
#X text 266 406 Instrumentos:;
#X text 296 456 Efeitos:;
#N canvas 0 22 450 300 Synth 0;
#X restore 356 405 pd Synth;
#N canvas 0 22 450 300 Sampler 0;
#X restore 356 425 pd Sampler;
#N canvas 472 256 450 300 pitch-shift 0;
#X obj 72 43 else/click 1;
#X msg 72 64 \; pd-pitch-shift_info vis 1;
#X connect 0 0 1 0;
#X restore 356 456 pd pitch-shift;
#N canvas 643 320 450 300 vibrato 0;
#X obj 72 43 else/click 1;
#X msg 72 64 \; pd-vibrato_info vis 1;
#X connect 0 0 1 0;
#X restore 356 476 pd vibrato;
#N canvas 709 146 450 300 tremolo 0;
#X obj 72 43 else/click 1;
#X msg 72 64 \; pd-tremolo_info vis 1;
#X connect 0 0 1 0;
#X restore 356 496 pd tremolo;
#X text 272 546 Moduladores:;
#N canvas 334 320 450 300 LFO 0;
#X obj 193 85 else/click 1;
#X msg 193 106 \; pd-LFO_info vis 1;
#X connect 0 0 1 0;
#X restore 356 545 pd LFO;
#N canvas 590 263 450 300 cutoff 0;
#X obj 72 43 else/click 1;
#X msg 72 64 \; pd-cutoff_info vis 1;
#X connect 0 0 1 0;
#X restore 356 516 pd cutoff;
#X text 186 380 notas MIDI -;
#X text 266 380 <float \, float>: pitch e velocity;
#X text 28 581 SAﾃ好AS:;
#X text 48 610 mensagem para Instrumentos -;
#X text 228 610 MIDI;
#X text 438 641 ver acima mensagem de controle de processadores, f
25;
#X text 48 641 mensagem de controle para Instrumentos \, Efeitos e
Moduladores -, f 64;
#N canvas 509 176 450 300 sobre_eventos_no_sequencer 0;
#X restore 380 60 pd sobre_eventos_no_sequencer;
#X restore 437 70 pd documentaﾃｧﾃ｣o_sequencer;
#X restore 22 52 pd controle_do_sequencer;
#X restore 64 75 pd A1-Processador_de_requisiﾃｧﾃｵes;
#N canvas 481 410 189 123 doc_E2 0;
#X obj 11 57 sel 1;
#X obj 11 10 else/button 108 22 255 255 255 128 128 159;
#X obj 11 11 cnv 15 108 20 empty empty E2-documentaﾃｧﾃ｣o 8 10 0 10
-66577 -228856 0;
#X msg 11 81 \; pd-ESA-estadoE2 vis 1;
#X connect 0 0 3 0;
#X connect 1 0 0 0;
#X coords 0 -1 1 1 109 22 2 10 10;
#X restore 16 12 pd doc_E2;
#X obj 318 16 declare -path ./abs/esa_sequencer_abs;
#N canvas 95 81 1071 458 A2-Sequencer_registrador_de_eventos 0;
#N canvas 562 393 450 300 Timestamp 0;
#X obj 98 41 else/click 1;
#X msg 98 62 \; pd-T2-Gerador_de_Timestamp vis 1;
#X connect 0 0 1 0;
#X restore 944 22 pd Timestamp;
#X obj 23 17 else/note 425 18 Menlo empty 0 0 0 0 0 255 255 255 0 0
SEQUENCER;
#N canvas 471 398 450 300 diretrizes 0;
#X obj 67 30 else/click 1;
#X msg 67 51 \; pd-diretrizes_de_criaﾃｧﾃ｣o_do_sequencer vis 1;
#X connect 0 0 1 0;
#X restore 23 50 pd diretrizes;
#N canvas 563 355 450 300 documentaﾃｧﾃ｣o 0;
#X obj 138 91 else/click 1;
#X msg 138 112 \; pd-documentaﾃｧﾃ｣o_sequencer vis 1;
#X connect 0 0 1 0;
#X restore 23 69 pd documentaﾃｧﾃ｣o;
#X text 140 87 Mensagens de controle;
#X text 185 112 - para processadores;
#X text 185 102 - para sequencer;
#X text 185 122 - notas midi para instrumentos;
#X obj 66 153 r E1_entradaMIDI_notein_M2;
#X obj 117 171 r E1_entradaMIDI_ctlin_M2;
#X msg 471 45 \$5;
#X text 503 66 bpm;
#X obj 90 329 spigot 0;
#X obj 139 312 tgl 15 0 empty empty empty 17 7 0 10 -262144 -1 -1 0
1;
#X floatatom 471 66 5 0 0 0 - - -;
#X obj 387 67 s T_entrada;
#X floatatom 387 22 5 0 0 0 - - -;
#X msg 387 42 bpm \$1;
#X obj 296 21 tgl 15 0 empty empty empty 17 7 0 10 -262144 -1 -1 0
1;
#X msg 296 41 connect \$1;
#X obj 90 373 teste_MIDIout;
#X obj 526 221 tgl 15 0 empty empty liga/desl 17 7 0 10 -262144 -1
-1 1 1;
#X obj 168 189 r E3_D2_Sampler-Sequencer_E2_A2;
#X obj 224 207 r E3_D2_Synth-Sequencer_E2_A2;
#X obj 247 340 s E2_A2_Sequencer_Sampler_E3_D2;
#X obj 294 320 s E2_A2_Sequencer_Synth_E3_D2;
#N canvas 417 183 450 366 sequencer_timestamp 0;
#X obj 34 20 inlet;
#X obj 117 299 outlet;
#X obj 229 54 r T2_timestamp;
#X text 231 34 Mensagens de tempo;
#X text 201 84 fase;
#X msg 229 82 fase \$3;
#X obj 59 142 pad_beat 4 16;
#X text 151 143 <-- retorna onde o pad estﾃ｡ no loop;
#X text 102 329 <ﾃｭndice_do_compasso> <ﾃｭndice_do_beat> <fase_do_beat>
;
#X obj 56 236 pack 0 0 0;
#X obj 278 232 tgl 15 0 empty empty activate_beat_phase 17 7 0 10 -262144
-1 -1 0 1;
#N canvas 0 22 450 300 seletor 0;
#X obj 56 34 inlet;
#X obj 206 34 inlet;
#X obj 356 34 inlet;
#X obj 56 105 spigot 0;
#X obj 206 105 spigot 0;
#X obj 101 80 == 0;
#X obj 251 80 == 1;
#X obj 146 176 outlet;
#X connect 0 0 3 0;
#X connect 1 0 4 0;
#X connect 2 0 5 0;
#X connect 2 0 6 0;
#X connect 3 0 7 0;
#X connect 4 0 7 0;
#X connect 5 0 3 1;
#X connect 6 0 4 1;
#X restore 117 272 pd seletor;
#X obj 281 204 else/initmess 0;
#X obj 170 119 r seq_resolution;
#X obj 55 192 pack f f;
#X obj 55 213 unpack;
#X obj 163 196 pack f f f;
#X msg 163 217 \$2 \$3 \$1;
#N canvas 229 -430 450 300 debug_dsp_off 0;
#X obj 69 99 else/rescale 0 127 0 4;
#X msg 69 150 fase \$1;
#X obj 69 122 else/quantizer;
#X obj 69 211 spigot 0;
#X obj 211 133 r debug_seq_timestamp_dsp_off;
#X obj 69 232 outlet;
#X text 226 34 Gera fase de 120 bpm quantum = 4 com DSP desligado,
f 34;
#X obj 69 78 else/phasor 0;
#X msg 69 55 0.5;
#X obj 211 154 sel 1 0;
#X msg 211 174 1;
#X msg 239 173 0;
#X connect 0 0 2 0;
#X connect 1 0 3 0;
#X connect 2 0 1 0;
#X connect 3 0 5 0;
#X connect 4 0 9 0;
#X connect 7 0 0 0;
#X connect 8 0 7 0;
#X connect 9 0 10 0;
#X connect 9 1 11 0;
#X connect 10 0 3 1;
#X connect 10 0 8 0;
#X connect 11 0 3 1;
#X connect 11 0 7 1;
#X connect 11 0 7 0;
#X restore 71 87 pd debug_dsp_off;
#X connect 0 0 6 0;
#X connect 2 0 5 0;
#X connect 5 0 6 0;
#X connect 6 0 14 1;
#X connect 6 0 16 1;
#X connect 6 1 14 0;
#X connect 6 1 16 2;
#X connect 6 2 16 0;
#X connect 9 0 11 0;
#X connect 10 0 11 2;
#X connect 11 0 1 0;
#X connect 12 0 10 0;
#X connect 13 0 6 1;
#X connect 14 0 15 0;
#X connect 15 0 9 1;
#X connect 15 1 9 0;
#X connect 16 0 17 0;
#X connect 17 0 11 1;
#X connect 18 0 6 0;
#X restore 526 248 pd sequencer_timestamp;
#X obj 471 17 r T2_timestamp;
#X obj 525 201 else/lb;
#X msg 584 56 1;
#X msg 612 56 2;
#X msg 644 56 4;
#X msg 672 56 8;
#X msg 704 56 16;
#X msg 732 56 32;
#X msg 764 56 64;
#X msg 792 56 128;
#X msg 824 56 256;
#X msg 852 56 512;
#X obj 624 86 s seq_resolution;
#X msg 882 56 1024;
#X msg 918 56 2048;
#X floatatom 834 148 5 0 15 1 pad_n - -;
#X obj 834 169 v pad_n;
#X obj 836 123 else/initmess 0;
#X text 824 102 contﾃｩm PAD acionado;
#X text 880 170 = -1 -> todos inativos;
#X obj 646 22 else/initmess 128;
#X obj 282 225 r E3_D2_Efeitos-Sequencer_E2_A2;
#X obj 342 300 s E2_A2_Sequencer_Efeitos_E3_D2;
#X obj 277 264 esa_sequencer;
#X connect 8 0 50 0;
#X connect 9 0 50 1;
#X connect 10 0 14 0;
#X connect 12 0 20 0;
#X connect 13 0 12 1;
#X connect 16 0 17 0;
#X connect 17 0 15 0;
#X connect 18 0 19 0;
#X connect 19 0 15 0;
#X connect 21 0 26 0;
#X connect 22 0 50 2;
#X connect 23 0 50 3;
#X connect 26 0 50 5;
#X connect 27 0 10 0;
#X connect 28 0 21 0;
#X connect 29 0 39 0;
#X connect 30 0 39 0;
#X connect 31 0 39 0;
#X connect 32 0 39 0;
#X connect 33 0 39 0;
#X connect 34 0 39 0;
#X connect 35 0 39 0;
#X connect 36 0 39 0;
#X connect 37 0 39 0;
#X connect 38 0 39 0;
#X connect 40 0 39 0;
#X connect 41 0 39 0;
#X connect 42 0 43 0;
#X connect 44 0 42 0;
#X connect 47 0 39 0;
#X connect 48 0 50 4;
#X connect 50 0 24 0;
#X connect 50 1 25 0;
#X connect 50 2 49 0;
#X restore 64 97 pd A2-Sequencer_registrador_de_eventos;
#X restore 12 35 pd E2-Armazenamento_de_mensagens;
#N canvas 467 393 450 300 E3-Processador_DSP 0;
#N canvas 166 304 576 341 D1-Gerenciador_dos_Processadores_de_Som 0
;
#X obj 118 176 s sampler_in;
#X obj 100 137 r E2_A2_Sequencer_Sampler_E3_D2;
#X obj 303 135 r E2_A2_Sequencer_Synth_E3_D2;
#X obj 333 176 s synth_in;
#X text 210 115 Mensagens do sequencer;
#X obj 23 17 else/note 425 18 Menlo empty 0 0 0 0 0 255 255 255 0 0
Gerenciador dos Processadores de Som;
#X text 94 44 Mensagens sﾃ｣o recebidas e modificadas caso necessﾃ｡rio
;
#N canvas 178 353 659 324 controles_looper 0;
#N canvas 580 50 558 287 pads_hold_time 0;
#X obj 232 232 array set \$0-pads_hold_time;
#X obj 60 16 inlet;
#X obj 232 194 unpack f f;
#X msg 60 209 arrayviewlistnew;
#X obj 60 232 s \$0-pads_hold_time;
#X obj 60 97 route show, f 25;
#X obj 366 17 array d \$0-pads_hold_time 16;
#X connect 1 0 5 0;
#X connect 2 0 0 0;
#X connect 2 1 0 1;
#X connect 3 0 4 0;
#X connect 5 0 3 0;
#X connect 5 1 2 0;
#X restore 115 255 pd pads_hold_time;
#X text 126 23 vem do gui em [pd controla_recorder];
#X obj 50 63 unpack, f 13;
#X obj 125 85 sel 1 0;
#X obj 125 111 timer;
#X text 167 109 calcula o tempo de gravaﾃｧﾃ｣o para setar o tempo do
loop, f 19;
#X obj 152 172 f;
#X obj 125 231 pack;
#X obj 125 132 t f b;
#X msg 55 164 show;
#X obj 410 105 r tgl_loop_snd;
#X obj 307 274 s player~_entrada;
#X msg 430 135 loop \$1;
#X obj 317 225 list prepend;
#X obj 313 164 bng 15 250 50 0 empty empty empty 17 7 0 10 -262144
-1 -1;
#X obj 317 249 list trim;
#X obj 50 84 t f f;
#X obj 314 139 t b f, f 9;
#N canvas 422 251 210 251 ﾃｭndice-estado 0;
#X obj 25 19 inlet;
#X obj 55 60 unpack f f f;
#X obj 89 85 * 4;
#X obj 55 101 +;
#X obj 55 139 pack f f;
#X obj 45 190 outlet;
#X connect 0 0 1 0;
#X connect 1 0 3 0;
#X connect 1 1 2 0;
#X connect 1 2 4 1;
#X connect 2 0 3 1;
#X connect 3 0 4 0;
#X connect 4 0 5 0;
#X restore 310 75 pd ﾃｭndice-estado;
#X obj 20 22 r estado_gui_pad;
#X obj 301 53 r pads_gui;
#X obj 310 96 unpack;
#X obj 317 190 message loop 0;
#X connect 2 0 16 0;
#X connect 2 1 3 0;
#X connect 3 0 4 0;
#X connect 3 1 4 1;
#X connect 4 0 8 0;
#X connect 6 0 7 1;
#X connect 7 0 0 0;
#X connect 8 0 7 0;
#X connect 8 1 6 0;
#X connect 9 0 0 0;
#X connect 10 0 12 0;
#X connect 12 0 22 1;
#X connect 13 0 15 0;
#X connect 14 0 22 0;
#X connect 15 0 11 0;
#X connect 16 0 6 1;
#X connect 17 0 14 0;
#X connect 17 1 13 1;
#X connect 18 0 21 0;
#X connect 19 0 2 0;
#X connect 20 0 18 0;
#X connect 21 0 17 0;
#X connect 22 0 13 0;
#X restore 204 235 pd controles_looper;
#X connect 1 0 0 0;
#X connect 2 0 3 0;
#X restore 45 100 pd D1-Gerenciador_dos_Processadores_de_Som;
#N canvas 481 410 189 123 doc_E3 0;
#X obj 11 57 sel 1;
#X obj 11 10 else/button 108 22 255 255 255 128 128 159;
#X obj 11 11 cnv 15 108 20 empty empty E3-documentaﾃｧﾃ｣o 8 10 0 10
-66577 -228856 0;
#X msg 11 81 \; pd-ESA-estadoE3 vis 1;
#X connect 0 0 3 0;
#X connect 1 0 0 0;
#X coords 0 -1 1 1 109 22 2 10 10;
#X restore 19 13 pd doc_E3;
#N canvas 52 80 569 339 D2-Processadores_de_Som 0;
#X obj 159 82 esa_sampler 0;
#X obj 98 225 esa_metronomo;
#X text 169 195 <-- cadeia de efeitos (tipo um send nas daws);
#X obj 40 66 esa_pads 16;
#X obj 40 82 catch~ player~_out;
#X obj 244 82 synth_julia;
#N canvas 744 97 450 300 mensagens 0;
#N canvas 683 163 476 437 mensagens_entrada_sampler 0;
#N canvas 203 623 450 114 Mensagens_de_controle_buffers 0;
#X obj 44 18 else/click 1;
#X msg 44 39 \; pd-Mensagens_de_controle_dos_buffers vis 1;
#X connect 0 0 1 0;
#X restore 223 79 pd Mensagens_de_controle_buffers;
#X text 169 79 buffer -;
#X text 157 103 gravador -;
#X msg 24 31 <mﾃｳdulo_do_sampler> <<Mensagens_de_controle_do_mﾃｳdulo>>
;
#X text 19 10 Formato das mensagens ao chegar no mﾃｳdulo:;
#N canvas 501 347 403 124 Mensagens_de_controle_gravadores 0;
#X obj 23 28 else/click 1;
#X msg 23 49 \; pd-Mensagens_de_controle_dos_gravadores vis 1;
#X connect 0 0 1 0;
#X restore 223 102 pd Mensagens_de_controle_gravadores;
#X text 34 78 <mﾃｳdulo_do_sampler>:;
#X text 53 205 O sampler ao ser inicializado deverﾃ｡ ter a tabela do
buffer do pad atual copiado para o [buffer 100], f 61;
#X text 43 205 -;
#X text 43 238 -;
#X text 53 238 Uma vez o sampler acionado \, qualquer nova gravaﾃｧﾃ｣o
serﾃ｡ feita no [buffer 100], f 61;
#X text 43 268 -;
#X text 53 268 O sampler farﾃ｡ a operaﾃｧﾃ｣o de pitch-shift de acordo
com as mensagens MIDI recebidas diretamente pela entrada MIDI, f 61
;
#X text 43 304 -;
#X text 53 304 O resultado em sinal de ﾃ｡udio serﾃ｡ armazenado em [buffer
101], f 61;
#X text 43 328 -;
#X text 43 360 -;
#X text 53 328 Se a mudanﾃｧa for confirmada o [buffer 101] ﾃｩ copiado
adequadamente para o buffer do pad atual, f 61;
#X text 53 360 A confirmaﾃｧﾃ｣o da mudanﾃｧa ﾃｩ controlada via mensagem
do sequencer, f 61;
#X text 163 128 sampler -;
#X text 41 167 o id do buffer usado pelo sampler ﾃｩ sempre 100;
#N canvas 501 347 403 124 Mensagens_de_controle_sampler 0;
#X obj 23 28 else/click 1;
#X msg 23 49 \; pd-Mensagem_sampler_in vis 1;
#X connect 0 0 1 0;
#X restore 223 127 pd Mensagens_de_controle_sampler;
#X restore 42 119 pd mensagens_entrada_sampler;
#N canvas 732 209 450 300 buffer_mensagens 0;
#X obj 51 36 else/click 1;
#X msg 51 57 \; pd-Mensagens_de_controle_dos_buffers vis 1;
#X connect 0 0 1 0;
#X restore 42 58 pd buffer_mensagens;
#N canvas 732 209 450 300 player_mensagens 0;
#X obj 51 36 else/click 1;
#X msg 51 57 \; pd-Player_Control_Messages vis 1;
#X connect 0 0 1 0;
#X restore 42 78 pd player_mensagens;
#N canvas 732 209 450 300 gravador_mensagens 0;
#X obj 51 36 else/click 1;
#X msg 51 57 \; pd-Mensagens_de_controle_dos_gravadores vis 1;
#X connect 0 0 1 0;
#X restore 42 98 pd gravador_mensagens;
#X obj 23 17 else/note 425 18 Menlo empty 0 0 0 0 0 255 255 255 0 0
Documentaﾃｧﾃ｣o de mensagens;
#X restore 470 19 pd mensagens;
#X obj 70 277 throw~ E3_D2_out~;
#X text 359 76 Contﾃｩm os geradores sonoros como looper \, sampler
e synth mais uma mandada de efeitos, f 28;
#X obj 23 17 else/note 425 18 Menlo empty 0 0 0 0 0 255 255 255 0 0
Processadores de som (DSP);
#X obj 70 196 esa_efeitos 1 0;
#X connect 0 0 10 0;
#X connect 1 0 7 0;
#X connect 4 0 10 0;
#X connect 5 0 10 0;
#X connect 10 0 7 0;
#X restore 45 124 pd D2-Processadores_de_Som;
#X restore 12 54 pd E3-Processador_DSP;
#N canvas 189 519 345 168 E4-Processamento_de_ﾃ「dio_Mixagem 0;
#N canvas 420 91 653 405 J-Processamento_de_mensagens_de_entrada 0
;
#X obj 23 17 else/note 613 18 Menlo empty 0 0 0 0 0 255 255 255 0 0
Processamento de mensagens (Mixer/Efeitos Masterizaﾃｧﾃ｣o);
#X restore 17 64 pd J-Processamento_de_mensagens_de_entrada;
#N canvas 605 278 549 382 J1-Mixer 0;
#N canvas 131 371 582 188 entrada_de_gravaﾃｧﾃ｣o 0;
#X obj 139 28 inlet~;
#X obj 234 27 inlet;
#X obj 23 27 adc~;
#X text 41 149 entrada em:;
#X text 58 26 mic;
#X obj 264 51 + 1;
#X obj 53 57 e_agc;
#X obj 43 132 s~ gravador_in~;
#X text 46 164 [pd gravador~] --> [pd gravadores];
#X obj 53 85 else/xselect~ 2 50 1;
#X connect 0 0 9 1;
#X connect 1 0 5 0;
#X connect 2 0 6 0;
#X connect 2 1 6 0;
#X connect 5 0 9 0;
#X connect 6 0 9 0;
#X connect 9 0 7 0;
#X restore 215 118 pd entrada_de_gravaﾃｧﾃ｣o;
#X f 24;
#X obj 356 63 vradio 15 1 0 3 empty empty empty 0 -8 0 10 -262144 -1
-1 0;
#X text 375 61 entrada de microfone;
#X text 376 78 sintetizador;
#X text 219 93 <--entrada para synth;
#X obj 215 68 synth_julia;
#X text 376 93 ﾃｺltimo pad reproduzindo;
#X obj 48 338 dac~ 1 2;
#X obj 48 268 *~ 1;
#X text 105 341 Saﾃｭda estﾃｩreo da interface de ﾃ｡udio;
#X text 79 271 <--- verificar melhor maneira de garantir que nﾃ｣o irﾃ｡
clipar;
#X obj 38 207 catch~ E4-J2_out~;
#X text 187 201 sinal de ﾃ｡udio vindo do processador final de efeitos
para masterizaﾃｧﾃ｣o J2-Efeitos_de_Masterizaﾃｧﾃ｣o aqui em E4-Processamento_de_ﾃ「dio_Mixagem
, f 52;
#X text 150 208 <----;
#X obj 23 17 else/note 425 18 Menlo empty 0 0 0 0 0 255 255 255 0 0
Mixer;
#X text 94 20 onde os sinais de ﾃ｡udio sﾃ｣o misturados;
#X connect 1 0 0 1;
#X connect 5 0 0 0;
#X connect 8 0 7 1;
#X connect 8 0 7 0;
#X connect 11 0 8 0;
#X restore 17 84 pd J1-Mixer;
#N canvas 334 393 638 331 J2-Efeitos_de_Masterizaﾃｧﾃ｣o 0;
#X obj 103 98 catch~ E3_D2_out~;
#N canvas 673 442 450 300 Masterizaﾃｧﾃ｣o_rt 0;
#X obj 37 37 inlet~;
#X obj 37 218 outlet~;
#X connect 0 0 1 0;
#X restore 133 159 pd Masterizaﾃｧﾃ｣o_rt;
#X obj 123 240 throw~ E4-J2_out~;
#X text 283 153 aqui criar cadeia de processamento para timbrar textura
sonora final, f 36;
#X text 248 159 <----;
#X text 211 96 sinal de ﾃ｡udio vindo de E3-Processador_DSP, f 18;
#X text 241 242 sinal de ﾃ｡udio que irﾃ｡ para J1-Mixer em E4-Processamento_de_ﾃ「dio_Mixagem
;
#X obj 23 17 else/note 425 18 Menlo empty 0 0 0 0 0 255 255 255 0 0
Efeitos de Masterizaﾃｧﾃ｣o;
#X text 290 20 ﾃｺltima oportunidade de processar o sinal de ﾃ｡udio
;
#X connect 0 0 1 0;
#X connect 1 0 2 0;
#X restore 17 104 pd J2-Efeitos_de_Masterizaﾃｧﾃ｣o;
#N canvas 481 410 189 123 doc_E4 0;
#X obj 11 57 sel 1;
#X obj 11 10 else/button 108 22 255 255 255 128 128 159;
#X obj 11 11 cnv 15 108 20 empty empty E4-documentaﾃｧﾃ｣o 8 10 0 10
-66577 -228856 0;
#X msg 11 81 \; pd-ESA-estadoE4 vis 1;
#X connect 0 0 3 0;
#X connect 1 0 0 0;
#X coords 0 -1 1 1 109 22 2 10 10;
#X restore 19 13 pd doc_E4;
#X restore 12 74 pd E4-Processamento_de_ﾃ「dio_Mixagem;
#N canvas 495 246 616 336 gui 0;
#N canvas 191 187 346 132 pd 0;
#X obj 20 40 cnv 10 60 28 empty empty empty 9 15 0 18 -66577 -228856
0;
#X obj 28 46 tgl 16 0 \$0-tgl-tempo_transport_send \$0-tgl-tempo_transport_receive
empty 17 7 0 10 -228856 -66577 -1 1 1;
#X msg 108 27 set \$1;
#X obj 108 62 s.mess tempo in play;
#X obj 108 6 r.mess tempo out is_playing;
#N canvas 0 22 305 200 inicializaﾃｧﾃ｣o_do_playing 0;
#X obj 25 96 s \$0-tgl-tempo_transport_receive;
#X obj 25 30 loadbang;
#X msg 25 74 1;
#X text 61 74 auto-start tempo transport;
#X obj 25 53 del 10;
#X connect 1 0 4 0;
#X connect 2 0 0 0;
#X connect 4 0 2 0;
#X restore 20 96 pd inicializaﾃｧﾃ｣o_do_playing;
#X connect 1 0 3 0;
#X connect 2 0 1 0;
#X connect 4 0 2 0;
#X coords 0 -1 1 1 60 28 2 20 40;
#X restore 22 25 pd pd liga-desl_gui-transporte;
#X obj 25 78 else/mtx.ctl 4 4 45 0 0 0 0 0 0 0 0 0 0 0 0;
#N canvas 409 369 599 362 Controla_Looper 0;
#X obj 21 12 inlet;
#X obj 21 93 list prepend 0;
#X text 81 117 0 - Modo de Reproduﾃｧﾃ｣o;
#X text 81 133 1 - Modo de Gravaﾃｧﾃ｣o;
#N canvas 422 251 210 251 ﾃｭndice-estado 0;
#X obj 25 19 inlet;
#X obj 55 60 unpack f f f;
#X obj 89 85 * 4;
#X obj 55 101 +;
#X obj 55 139 pack f f;
#X obj 45 190 outlet;
#X connect 0 0 1 0;
#X connect 1 0 3 0;
#X connect 1 1 2 0;
#X connect 1 2 4 1;
#X connect 2 0 3 1;
#X connect 3 0 4 0;
#X connect 4 0 5 0;
#X restore 62 213 pd ﾃｭndice-estado;
#N canvas 422 251 210 251 ﾃｭndice-estado 0;
#X obj 25 19 inlet;
#X obj 55 60 unpack f f f;
#X obj 89 85 * 4;
#X obj 55 101 +;
#X obj 55 139 pack f f;
#X obj 45 190 outlet;
#X connect 0 0 1 0;
#X connect 1 0 3 0;
#X connect 1 1 2 0;
#X connect 1 2 4 1;
#X connect 2 0 3 1;
#X connect 3 0 4 0;
#X connect 4 0 5 0;
#X restore 203 213 pd ﾃｭndice-estado;
#X obj 62 307 s player~_entrada;
#X obj 203 307 s recorder~_entrada;
#N canvas 616 417 361 281 controla_player 0;
#X obj 30 15 inlet;
#X obj 38 244 outlet;
#X obj 60 76 unpack, f 11;
#X obj 123 95 sel 0 1, f 13;
#X msg 123 147 stop;
#X obj 60 186 list append;
#X obj 60 207 list trim;
#N canvas 79 447 315 326 mostra_buffer 0;
#X obj 43 22 inlet;
#X obj 63 273 s buffers_entrada;
#X obj 73 113 spigot 0;
#X obj 91 47 r mostra_buffer_gui_tgl_snd;
#X obj 73 144 unpack;
#X obj 73 94 else/message;
#X obj 91 68 t b f;
#X obj 106 165 sel 1 0, f 23;
#X msg 106 184 show;
#X msg 173 184 hide;
#X obj 73 208 list append;
#X obj 73 229 list trim;
#X text 165 96 envia mensagens de mostrar ou esconder visualizaﾃｧﾃ｣o
da forma de onda para buffer, f 21;
#X connect 0 0 5 0;
#X connect 2 0 4 0;
#X connect 3 0 6 0;
#X connect 4 0 10 0;
#X connect 4 1 7 0;
#X connect 5 0 2 0;
#X connect 6 0 5 0;
#X connect 6 1 2 1;
#X connect 7 0 8 0;
#X connect 7 1 9 0;
#X connect 8 0 10 1;
#X connect 9 0 10 1;
#X connect 10 0 11 0;
#X connect 11 0 1 0;
#X restore 141 72 pd mostra_buffer;
#X obj 60 56 t a a;
#N canvas 194 386 450 300 play_message 0;
#X obj 29 16 inlet;
#X msg 88 73 play;
#X obj 66 275 outlet;
#X obj 232 73 array get \$0-pads_hold_time;
#X obj 292 17 inlet;
#X obj 87 140 else/message;
#X msg 232 33 \$1 1;
#X obj 232 54 unpack;
#X obj 232 94 t b f;
#X obj 87 161 list append 0;
#X obj 87 187 list append;
#X obj 87 208 list append 1;
#X obj 87 229 list trim;
#X connect 0 0 1 0;
#X connect 1 0 5 0;
#X connect 3 0 8 0;
#X connect 4 0 6 0;
#X connect 5 0 9 0;
#X connect 6 0 7 0;
#X connect 7 0 3 0;
#X connect 7 1 3 1;
#X connect 8 1 10 1;
#X connect 9 0 10 0;
#X connect 10 0 11 0;
#X connect 11 0 12 0;
#X connect 12 0 2 0;
#X restore 160 170 pd play_message;
#X obj 60 99 t f f;
#X connect 0 0 8 0;
#X connect 2 0 10 0;
#X connect 2 1 3 0;
#X connect 3 0 4 0;
#X connect 3 1 9 0;
#X connect 4 0 5 1;
#X connect 5 0 6 0;
#X connect 6 0 1 0;
#X connect 8 0 2 0;
#X connect 8 1 7 0;
#X connect 9 0 5 1;
#X connect 10 0 5 0;
#X connect 10 1 9 1;
#X restore 62 271 pd controla_player;
#N canvas 648 399 442 363 controla_recorder 0;
#X obj 30 15 inlet;
#X obj 38 284 outlet;
#X obj 60 126 unpack, f 11;
#X obj 123 145 sel 0 1, f 25;
#X obj 60 226 list append;
#X obj 60 247 list trim;
#X msg 123 183 rec 0;
#X msg 196 185 rec 1;
#N canvas 79 447 315 326 mostra_buffer 0;
#X obj 43 22 inlet;
#X obj 63 273 s buffers_entrada;
#X obj 73 113 spigot 0;
#X obj 91 47 r mostra_buffer_gui_tgl_snd;
#X obj 73 144 unpack;
#X obj 73 94 else/message;
#X obj 91 68 t b f;
#X obj 106 165 sel 1 0, f 23;
#X msg 106 184 show;
#X msg 173 184 hide;
#X obj 73 208 list append;
#X obj 73 229 list trim;
#X text 165 96 envia mensagens de mostrar ou esconder visualizaﾃｧﾃ｣o
da forma de onda para buffer, f 21;
#X connect 0 0 5 0;
#X connect 2 0 4 0;
#X connect 3 0 6 0;
#X connect 4 0 10 0;
#X connect 4 1 7 0;
#X connect 5 0 2 0;
#X connect 6 0 5 0;
#X connect 6 1 2 1;
#X connect 7 0 8 0;
#X connect 7 1 9 0;
#X connect 8 0 10 1;
#X connect 9 0 10 1;
#X connect 10 0 11 0;
#X connect 11 0 1 0;
#X restore 79 103 pd mostra_buffer;
#X obj 123 164 t b b, f 8;
#X obj 196 164 t b b, f 8;
#X msg 168 221 0;
#X msg 241 220 1;
#X obj 168 248 s ativar_processamento_em_adc;
#X obj 60 56 t a a a;
#X obj 99 78 s estado_gui_pad;
#X connect 0 0 14 0;
#X connect 2 0 4 0;
#X connect 2 1 3 0;
#X connect 3 0 9 0;
#X connect 3 1 10 0;
#X connect 4 0 5 0;
#X connect 5 0 1 0;
#X connect 6 0 4 1;
#X connect 7 0 4 1;
#X connect 9 0 6 0;
#X connect 9 1 11 0;
#X connect 10 0 7 0;
#X connect 10 1 12 0;
#X connect 11 0 13 0;
#X connect 12 0 13 0;
#X connect 14 0 2 0;
#X connect 14 1 8 0;
#X connect 14 2 15 0;
#X restore 203 271 pd controla_recorder;
#X text 81 149 2 - SAMPLER;
#X obj 272 94 * 2;
#X obj 62 183 route 0 1 2, f 71;
#N canvas 177 247 295 232 seleciona_sampler 0;
#X obj 21 12 inlet;
#N canvas 422 251 210 251 ﾃｭndice-estado 0;
#X obj 25 19 inlet;
#X obj 55 60 unpack f f f;
#X obj 89 85 * 4;
#X obj 55 101 +;
#X obj 55 139 pack f f;
#X obj 45 190 outlet;
#X connect 0 0 1 0;
#X connect 1 0 3 0;
#X connect 1 1 2 0;
#X connect 1 2 4 1;
#X connect 2 0 3 1;
#X connect 3 0 4 0;
#X connect 4 0 5 0;
#X restore 51 53 pd ﾃｭndice-estado;
#X obj 41 174 s samplers_entrada;
#N canvas 197 386 393 380 mostra_buffer 0;
#X obj 43 22 inlet;
#X obj 73 113 spigot 0;
#X obj 91 47 r mostra_buffer_gui_tgl_snd;
#X obj 73 144 unpack;
#X obj 73 94 else/message;
#X obj 91 68 t b f;
#X obj 106 165 sel 1 0, f 23;
#X msg 106 214 show;
#X msg 173 214 hide;
#X obj 73 258 list append;
#X obj 73 279 list trim;
#X text 165 96 envia mensagens de mostrar ou esconder visualizaﾃｧﾃ｣o
da forma de onda para buffer, f 21;
#X obj 63 323 s samplers_buffers_entrada;
#X connect 0 0 4 0;
#X connect 1 0 3 0;
#X connect 2 0 5 0;
#X connect 3 0 9 0;
#X connect 3 1 6 0;
#X connect 4 0 1 0;
#X connect 5 0 4 0;
#X connect 5 1 1 1;
#X connect 6 0 7 0;
#X connect 6 1 8 0;
#X connect 7 0 9 1;
#X connect 8 0 9 1;
#X connect 9 0 10 0;
#X connect 10 0 12 0;
#X restore 70 127 pd mostra_buffer;
#X obj 51 78 t a a a;
#N canvas 104 314 450 198 controlador_cpu_saver 0;
#X obj 79 147 s ativar_processamento_em_adc;
#X obj 26 24 inlet;
#X obj 56 75 unpack;
#X connect 1 0 2 0;
#X connect 2 1 0 0;
#X restore 90 102 pd controlador_cpu_saver;
#X connect 0 0 1 0;
#X connect 1 0 4 0;
#X connect 4 0 2 0;
#X connect 4 1 3 0;
#X connect 4 2 5 0;
#X restore 344 212 pd seleciona_sampler;
#X obj 272 73 r Tgl-sampler_select_snd;
#X obj 102 73 r Vradio-modo_looper_snd;
#X obj 21 34 t a a;
#X obj 47 54 s pads_gui;
#X connect 0 0 16 0;
#X connect 1 0 12 0;
#X connect 4 0 8 0;
#X connect 5 0 9 0;
#X connect 8 0 6 0;
#X connect 9 0 7 0;
#X connect 11 0 1 1;
#X connect 12 0 4 0;
#X connect 12 1 5 0;
#X connect 12 2 13 0;
#X connect 14 0 11 0;
#X connect 15 0 1 1;
#X connect 16 0 1 0;
#X connect 16 1 17 0;
#X restore 25 266 pd Controla_Looper;
#N canvas 195 405 619 300 bpm-gui 0;
#X floatatom 195 122 5 1 350 0 - - -;
#X msg 195 234 label \$1;
#X obj 11 20 nbx 8 28 0 450 0 0 \$0-number_BPM_send empty empty 0 -8
0 10 -262144 -258113 -1 0 256;
#X obj 10 20 cnv 5 140 28 empty \$0-BPM_receive BPM120 9 15 0 18 -66577
-228856 0;
#X text 241 121 <= click and drag;
#X obj 195 176 makefilename BPM\ %d;
#X obj 195 201 tcktk_save;
#X obj 195 267 send \$0-BPM_receive;
#X obj 195 94 receive \$0-number_BPM_send;
#X obj 169 18 loadbang;
#X msg 169 72 120;
#X obj 195 145 t f f, f 27;
#X obj 169 46 del 10;
#X obj 10 64 r T_saida_bpm;
#X msg 385 173 bpm \$1;
#X obj 375 199 s T_entrada;
#X connect 0 0 11 0;
#X connect 1 0 7 0;
#X connect 5 0 6 0;
#X connect 6 0 1 0;
#X connect 8 0 0 0;
#X connect 9 0 12 0;
#X connect 10 0 0 0;
#X connect 11 0 5 0;
#X connect 11 1 14 0;
#X connect 12 0 10 0;
#X connect 13 0 5 0;
#X connect 14 0 15 0;
#X coords 0 -1 1 1 140 28 2 10 20;
#X restore 51 25 pd bpm-gui;
#N canvas 140 82 314 338 bar 0;
#X obj 128 121 tgl 26 0 empty empty empty 17 7 0 10 -262144 -1 -1 0
1;
#X obj 147 121 tgl 26 0 empty empty empty 17 7 0 10 -262144 -1 -1 0
1;
#X obj 30 120 nbx 2 28 1 99 0 0 \$0-number_BEATS_PER_BAR_send \$0-number_BEATS_PER_BAR_receive
empty 0 -8 0 10 -262144 -258113 -1 1 256;
#X obj 79 120 nbx 2 28 0 20 0 0 \$0-number_BEAT_LENGTH_send \$0-number_BEAT_LENGTH_receive
empty 0 -8 0 10 -262144 -258113 -1 4 129;
#X obj 20 120 cnv 8 160 28 empty empty | -4 12 0 18 -66577 -228856
0;
#X obj 119 120 cnv 5 4 28 empty empty | -4 12 0 18 -66577 -228856 0
;
#X obj 36 120 cnv 8 15 28 empty \$0-cnv_BEATS_PER_BAR_receive 1 2 14
0 15 -66577 -228856 0;
#X obj 69 120 cnv 5 4 28 empty empty / -4 12 0 18 -66577 -228856 0
;
#X obj 83 120 cnv 8 15 28 empty \$0-cnv-number_BEAT_LENGTH_receive
4 2 14 0 15 -66577 -228856 0;
#X obj 128 121 cnv 8 45 26 empty empty empty -4 12 0 18 -66577 -228856
0;
#X obj 129 124 bng 20 50 10 0 empty empty empty 17 7 0 10 -66577 -257985
-1;
#X obj 152 124 bng 20 50 10 0 empty empty empty 17 7 0 10 -66577 -257985
-1;
#X obj 128 185 bng 15 250 50 0 empty empty empty 17 7 0 10 -262144
-1 -1;
#X obj 128 215 tgl 15 0 \$0-tgl-tempo_sound_send empty tgl-tempo_sound
17 7 0 10 -262144 -1 -1 0 1;
#N canvas 233 99 541 480 visual_indicator_control 0;
#X obj 129 443 outlet;
#X obj 285 443 outlet;
#X msg 253 341 flashtime \$1 \$1;
#X obj 253 156 else/bpm;
#X obj 253 365 t a a;
#X obj 129 208 sel 0 1;
#X obj 40 189 mod 2;
#X obj 40 58 bng 15 250 50 0 empty empty empty 17 7 0 10 -262144 -1
-1;
#X obj 40 99 spigot 0;
#X obj 93 78 r \$0-tgl-tempo_sound_send;
#N canvas 542 22 495 374 phase_beat 0;
#X floatatom 50 254 9 0 0 0 - - -;
#X obj 42 264 bng 8 250 50 0 empty empty empty 17 7 0 10 -262144 -1
-1;
#X floatatom 226 204 5 0 0 0 - - -;
#X floatatom 224 253 9 0 0 0 - - -;
#X obj 226 230 change;
#X obj 216 263 bng 8 250 50 0 empty empty empty 17 7 0 10 -262144 -1
-1;
#N canvas 0 22 417 300 if_note_value_equal_1 0;
#X obj 105 24 inlet;
#X text 109 6 tempo phase;
#X obj 128 102 else/quantizer 1 1;
#X obj 128 126 change;
#X obj 128 150 route 0;
#X obj 128 174 bang;
#X obj 128 248 outlet;
#X obj 128 74 spigot 0;
#X obj 225 24 inlet;
#X text 229 6 note_value;
#X text 18 218 if phase==0 and note_value==1 then bang, f 16;
#X obj 221 245 outlet;
#X text 225 209 else output phase quantized, f 15;
#X obj 225 48 == 1;
#X connect 0 0 7 0;
#X connect 2 0 3 0;
#X connect 3 0 4 0;
#X connect 4 0 5 0;
#X connect 4 1 11 0;
#X connect 5 0 6 0;
#X connect 7 0 2 0;
#X connect 8 0 13 0;
#X connect 13 0 7 1;
#X restore 50 104 pd if_note_value_equal_1;
#X obj 50 73 t f f, f 11;
#X obj 226 180 quantizer 1 1;
#X obj 228 77 t f f f, f 15;
#X obj 226 147 spigot 1;
#X obj 279 123 != 1;
#X text 442 131 (?);
#X text 359 140 quantum value divided by, f 13;
#X obj 330 142 /;
#X obj 330 99 t b f;
#X msg 330 120 4, f 1;
#X floatatom 343 208 5 0 0 0 - - -;
#X obj 50 319 outlet;
#X obj 198 22 r.mess tempo out note_value;
#X obj 20 21 r T_saida_phase;
#X connect 0 0 1 0;
#X connect 0 0 18 0;
#X connect 2 0 4 0;
#X connect 3 0 5 0;
#X connect 3 0 18 0;
#X connect 4 0 3 0;
#X connect 6 0 0 0;
#X connect 7 0 6 0;
#X connect 7 1 10 0;
#X connect 8 0 2 0;
#X connect 9 0 6 1;
#X connect 9 1 11 0;
#X connect 9 2 15 0;
#X connect 10 0 8 0;
#X connect 11 0 10 1;
#X connect 14 0 8 1;
#X connect 14 0 17 0;
#X connect 15 0 16 0;
#X connect 15 1 14 1;
#X connect 16 0 14 0;
#X connect 19 0 9 0;
#X connect 20 0 7 0;
#X restore 40 21 pd phase_beat;
#X text 370 205 quantum value divided by, f 13;
#X obj 341 227 /;
#X obj 341 184 t b f;
#X msg 341 205 4, f 1;
#X obj 341 251 t b f;
#X obj 253 276 f;
#X obj 253 300 *;
#X obj 253 319 * 0.75;
#X obj 233 125 r.mess tempo out bpm;
#X obj 341 163 r.mess tempo out note_value;
#X obj 40 165 else/count 0 1;
#X connect 2 0 4 0;
#X connect 3 0 16 0;
#X connect 4 0 0 0;
#X connect 4 1 1 0;
#X connect 5 0 0 0;
#X connect 5 1 1 0;
#X connect 6 0 5 0;
#X connect 7 0 8 0;
#X connect 8 0 21 0;
#X connect 9 0 8 1;
#X connect 10 0 7 0;
#X connect 12 0 15 0;
#X connect 13 0 14 0;
#X connect 13 1 12 1;
#X connect 14 0 12 0;
#X connect 15 0 16 0;
#X connect 15 1 17 1;
#X connect 16 0 17 0;
#X connect 17 0 18 0;
#X connect 18 0 2 0;
#X connect 19 0 3 0;
#X connect 20 0 13 0;
#X connect 21 0 6 0;
#X restore 18 47 pd visual_indicator_control;
#X text 180 123 <---;
#X text 214 120 click and metronome sounds, f 10;
#N canvas 128 257 1026 468 time_signature_control 0;
#X floatatom 314 215 5 1 350 0 - - -;
#X msg 314 365 label \$1;
#X obj 314 332 tcktk_save;
#X floatatom 628 214 5 0 0 0 - - -;
#X obj 628 103 t b b;
#X obj 314 307 makefilename %d;
#X msg 628 365 label \$1;
#X obj 628 332 tcktk_save;
#X obj 628 307 makefilename %d;
#N canvas 589 270 474 341 subdivisions 0;
#X obj 38 13 inlet;
#X obj 38 286 outlet;
#X msg 38 215 1;
#X msg 84 215 2;
#X obj 38 57 moses 2;
#X obj 84 79 moses 4;
#X obj 130 101 moses 8;
#X msg 130 215 4;
#X msg 176 215 8;
#X msg 229 215 16;
#X msg 282 215 32;
#X msg 335 215 64;
#X msg 388 215 128;
#X obj 176 123 moses 12;
#X obj 229 144 moses 16;
#X obj 282 166 moses 20;
#X obj 335 188 moses 24;
#X connect 0 0 4 0;
#X connect 2 0 1 0;
#X connect 3 0 1 0;
#X connect 4 0 2 0;
#X connect 4 1 5 0;
#X connect 5 0 3 0;
#X connect 5 1 6 0;
#X connect 6 0 7 0;
#X connect 6 1 13 0;
#X connect 7 0 1 0;
#X connect 8 0 1 0;
#X connect 9 0 1 0;
#X connect 13 0 8 0;
#X connect 13 1 14 0;
#X connect 14 0 9 0;
#X connect 14 1 15 0;
#X connect 14 1 9 0;
#X connect 15 0 10 0;
#X connect 15 1 16 0;
#X connect 16 0 11 0;
#X connect 16 1 12 0;
#X restore 628 239 pd subdivisions;
#X msg 628 150 4;
#X msg 314 157 1;
#X obj 628 49 loadbang;
#X msg 778 322 set \$1;
#X msg 70 304 set \$1;
#X obj 274 22 receive \$0-number_BEATS_PER_BAR_send;
#X obj 70 328 s \$0-number_BEATS_PER_BAR_send;
#X obj 588 22 receive \$0-number_BEAT_LENGTH_send;
#X obj 778 344 s \$0-number_BEAT_LENGTH_receive;
#X obj 628 396 send \$0-cnv-number_BEAT_LENGTH_receive;
#X obj 314 396 send \$0-cnv_BEATS_PER_BAR_receive;
#X obj 38 231 t f f;
#X obj 628 73 del 100;
#X obj 758 258 s.mess tempo out note_value;
#X obj 28 188 r.mess tempo in beats_per_bar;
#X obj 724 195 r.mess tempo in note_value;
#X obj 758 288 r.mess tempo out note_value;
#X obj 328 240 s.mess tempo out beats_per_bar;
#X connect 0 0 5 0;
#X connect 0 0 27 0;
#X connect 1 0 20 0;
#X connect 2 0 1 0;
#X connect 3 0 9 0;
#X connect 4 0 10 0;
#X connect 4 1 11 0;
#X connect 5 0 2 0;
#X connect 6 0 19 0;
#X connect 7 0 6 0;
#X connect 8 0 7 0;
#X connect 9 0 8 0;
#X connect 9 0 23 0;
#X connect 10 0 3 0;
#X connect 11 0 0 0;
#X connect 12 0 22 0;
#X connect 13 0 18 0;
#X connect 14 0 16 0;
#X connect 15 0 0 0;
#X connect 17 0 3 0;
#X connect 21 0 5 0;
#X connect 21 1 14 0;
#X connect 22 0 4 0;
#X connect 24 0 21 0;
#X connect 25 0 3 0;
#X connect 26 0 8 0;
#X connect 26 0 13 0;
#X restore 18 15 pd time_signature_control;
#N canvas 542 22 495 374 phase_beat 0;
#X floatatom 50 254 9 0 0 0 - - -;
#X obj 42 264 bng 8 250 50 0 empty empty empty 17 7 0 10 -262144 -1
-1;
#X floatatom 226 204 5 0 0 0 - - -;
#X floatatom 224 253 9 0 0 0 - - -;
#X obj 226 230 change;
#X obj 216 263 bng 8 250 50 0 empty empty empty 17 7 0 10 -262144 -1
-1;
#N canvas 0 22 417 300 if_note_value_equal_1 0;
#X obj 105 24 inlet;
#X text 109 6 tempo phase;
#X obj 128 102 else/quantizer 1 1;
#X obj 128 126 change;
#X obj 128 150 route 0;
#X obj 128 174 bang;
#X obj 128 248 outlet;
#X obj 128 74 spigot 0;
#X obj 225 24 inlet;
#X text 229 6 note_value;
#X text 18 218 if phase==0 and note_value==1 then bang, f 16;
#X obj 221 245 outlet;
#X text 225 209 else output phase quantized, f 15;
#X obj 225 48 == 1;
#X connect 0 0 7 0;
#X connect 2 0 3 0;
#X connect 3 0 4 0;
#X connect 4 0 5 0;
#X connect 4 1 11 0;
#X connect 5 0 6 0;
#X connect 7 0 2 0;
#X connect 8 0 13 0;
#X connect 13 0 7 1;
#X restore 50 104 pd if_note_value_equal_1;
#X obj 50 73 t f f, f 11;
#X obj 226 180 quantizer 1 1;
#X obj 228 77 t f f f, f 15;
#X obj 226 147 spigot 1;
#X obj 279 123 != 1;
#X text 442 131 (?);
#X text 359 140 quantum value divided by, f 13;
#X obj 330 142 /;
#X obj 330 99 t b f;
#X msg 330 120 4, f 1;
#X floatatom 343 208 5 0 0 0 - - -;
#X obj 50 319 outlet;
#X obj 198 22 r.mess tempo out note_value;
#X obj 20 22 r T_saida_phase;
#X connect 0 0 1 0;
#X connect 0 0 18 0;
#X connect 2 0 4 0;
#X connect 3 0 5 0;
#X connect 3 0 18 0;
#X connect 4 0 3 0;
#X connect 6 0 0 0;
#X connect 7 0 6 0;
#X connect 7 1 10 0;
#X connect 8 0 2 0;
#X connect 9 0 6 1;
#X connect 9 1 11 0;
#X connect 9 2 15 0;
#X connect 10 0 8 0;
#X connect 11 0 10 1;
#X connect 14 0 8 1;
#X connect 14 0 17 0;
#X connect 15 0 16 0;
#X connect 15 1 14 1;
#X connect 16 0 14 0;
#X connect 19 0 9 0;
#X connect 20 0 7 0;
#X restore 47 259 pd phase_beat;
#X floatatom 47 283 5 0 0 0 - - -;
#X obj 47 306 bng 15 250 50 0 empty empty empty 17 7 0 10 -262144 -1
-1;
#X connect 0 0 12 0;
#X connect 1 0 12 0;
#X connect 12 0 13 0;
#X connect 14 0 10 0;
#X connect 14 1 11 0;
#X connect 18 0 19 0;
#X connect 19 0 20 0;
#X coords 0 -1 1 1 160 28 2 20 120;
#X restore 149 25 pd bar;
#X obj 24 296 tgl 15 0 mostra_buffer_gui_tgl_snd mostra_buffer_gui_tgl_rcv
mostra_forma_de_onda 22 7 0 10 -262144 -1 -1 0 1;
#X obj 416 227 else/keyboard 17 80 1 3 0 0 empty empty;
#N canvas 754 337 450 334 FXs 0;
#X obj 31 58 vsl 15 60 0 127 0 0 empty empty vibrato -12 -9 0 10 -191407
-1 -1 0 1;
#X obj 91 58 vsl 15 60 0 127 0 0 empty empty tremolo -12 -9 0 10 -191407
-1 -1 0 1;
#X obj 151 58 vsl 15 60 0.0001 127 1 0 empty empty cutoff -12 -9 0
10 -191407 -1 -1 5900 1;
#X obj 266 1 r pads_gui;
#N canvas 422 251 210 251 ﾃｭndice-estado 0;
#X obj 25 19 inlet;
#X obj 55 60 unpack f f f;
#X obj 89 85 * 4;
#X obj 55 101 +;
#X obj 55 139 pack f f;
#X obj 45 190 outlet;
#X connect 0 0 1 0;
#X connect 1 0 3 0;
#X connect 1 1 2 0;
#X connect 1 2 4 1;
#X connect 2 0 3 1;
#X connect 3 0 4 0;
#X connect 4 0 5 0;
#X restore 279 28 pd ﾃｭndice-estado;
#X obj 279 49 unpack;
#X obj 279 70 t f f f;
#N canvas 333 336 450 335 cutoff 0;
#X obj 37 35 inlet;
#X obj 272 36 inlet;
#X text 286 19 pad_n;
#X text 49 15 cutoff slider;
#X obj 37 106 t f f f, f 21;
#X obj 53 198 pack f f f;
#X text 163 163 dry/wet;
#X text 22 184 freq;
#X text 94 177 res;
#X obj 27 154 * 127;
#X obj 53 289 s cutoff_in;
#X obj 53 229 list prepend;
#X obj 53 250 list trim;
#X obj 159 149 else/rescale 0 127 100 0;
#X obj 98 135 / 6;
#X obj 160 126 - 0;
#X obj 91 161 + 0.5;
#X obj 27 133 + 0.25;
#X obj 43 173 + 0;
#X connect 0 0 4 0;
#X connect 1 0 11 1;
#X connect 4 0 17 0;
#X connect 4 1 14 0;
#X connect 4 2 15 0;
#X connect 5 0 11 0;
#X connect 9 0 18 0;
#X connect 11 0 12 0;
#X connect 12 0 10 0;
#X connect 13 0 5 2;
#X connect 14 0 16 0;
#X connect 15 0 13 0;
#X connect 16 0 5 1;
#X connect 17 0 9 0;
#X connect 18 0 5 0;
#X restore 151 143 pd cutoff;
#X obj 125 3 else/initmess 127;
#N canvas 52 295 450 383 tremolo 0;
#X obj 37 37 inlet;
#X obj 55 351 s tremolo_in;
#X obj 37 106 t f f f, f 21;
#X obj 53 228 pack f f f;
#X text 257 170 dry/wet;
#X obj 53 259 list prepend;
#X obj 53 280 list trim;
#X obj 336 38 inlet;
#X text 43 153 rate;
#X text 114 174 depth;
#X obj 254 133 != 0;
#X obj 93 158 != 0;
#X obj 254 152 * 100;
#X obj 37 136 else/rescale 0 127 0.1 10;
#X connect 0 0 2 0;
#X connect 2 0 13 0;
#X connect 2 1 11 0;
#X connect 2 2 10 0;
#X connect 3 0 5 0;
#X connect 5 0 6 0;
#X connect 6 0 1 0;
#X connect 7 0 5 1;
#X connect 10 0 12 0;
#X connect 11 0 3 1;
#X connect 12 0 3 2;
#X connect 13 0 3 0;
#X restore 91 172 pd tremolo;
#N canvas 52 295 450 383 vibrato 0;
#X obj 37 37 inlet;
#X obj 55 321 s tremolo_in;
#X obj 37 106 t f f f, f 31;
#X obj 53 238 pack f f f;
#X text 257 170 dry/wet;
#X obj 53 269 list prepend;
#X obj 53 290 list trim;
#X obj 336 38 inlet;
#X text 43 153 rate;
#X text 90 206 depth;
#X obj 220 128 != 0;
#X obj 216 148 * 100;
#X obj 37 136 else/rescale 0 127 0 3;
#X obj 66 179 else/rescale 0 127 0 30;
#X connect 0 0 2 0;
#X connect 2 0 12 0;
#X connect 2 1 13 0;
#X connect 2 2 10 0;
#X connect 3 0 5 0;
#X connect 5 0 6 0;
#X connect 6 0 1 0;
#X connect 7 0 5 1;
#X connect 10 0 11 0;
#X connect 11 0 3 2;
#X connect 12 0 3 0;
#X connect 13 0 3 1;
#X restore 45 210 pd vibrato;
#X connect 0 0 10 0;
#X connect 1 0 9 0;
#X connect 2 0 7 0;
#X connect 3 0 4 0;
#X connect 4 0 5 0;
#X connect 5 0 6 0;
#X connect 6 0 10 1;
#X connect 6 1 9 1;
#X connect 6 2 7 1;
#X connect 8 0 2 0;
#X coords 0 -1 1 1 180 120 1 10 10;
#X restore 402 77 pd FXs;
#X obj 332 29 tgl 30 0 tgl_loop_snd tgl_loop_rcv Loop 3 14 0 10 -262144
-1 -1 1 1;
#N canvas 458 115 450 300 MIDIinput 0;
#X obj 129 183 outlet;
#X obj 139 81 r E1_entradaMIDI_notein;
#X connect 1 0 0 0;
#X restore 416 206 pd MIDIinput;
#N canvas 366 -955 450 300 mode_control 0;
#X obj 24 37 vradio 35 1 0 2 Vradio-modo_looper_snd Vradio-modo_looper_rcv
looper 0 -8 0 10 -262144 -1 -1 0;
#X obj 65 79 else/note 425 18 Dejavu\ Sans\ Mono empty 0 0 0 0 0 255
255 255 0 0 Rec Mode;
#X obj 65 41 else/note 425 18 Dejavu\ Sans\ Mono empty 0 0 0 0 0 255
255 255 0 0 Play mode;
#X obj 24 112 tgl 35 0 Tgl-sampler_select_snd Tgl-sampler_select_rcv
SAMPLER 48 18 0 18 -262144 -1 -1 0 1;
#X coords 0 -1 1 1 180 160 2 10 10;
#X restore 216 77 pd mode_control;
#N canvas 662 -344 450 300 ESA_in 0;
#X obj 35 238 outlet;
#N canvas 341 -944 450 300 MIDIinput 0;
#X obj 42 262 outlet;
#X obj 42 130 r E1_entradaMIDI_notein;
#X obj 70 172 unpack;
#X obj 42 151 t a a;
#X obj 36 220 spigot 0;
#X obj 72 199 >= 25;
#X connect 1 0 3 0;
#X connect 2 0 5 0;
#X connect 3 0 4 0;
#X connect 3 1 2 0;
#X connect 4 0 0 0;
#X connect 5 0 4 1;
#X restore 33 31 pd MIDIinput;
#X obj 33 54 route 27 26 28 29, f 20;
#X obj 33 101 sel 110;
#X obj 93 101 sel 110;
#X obj 153 100 sel 110;
#X obj 213 100 sel 110;
#X msg 33 157 0 0 \$1;
#X obj 33 138 tgl 15 0 empty empty empty 17 7 0 10 -262144 -1 -1 0
1;
#X obj 93 138 tgl 15 0 empty empty empty 17 7 0 10 -262144 -1 -1 0
1;
#X obj 153 138 tgl 15 0 empty empty empty 17 7 0 10 -262144 -1 -1 0
1;
#X obj 213 138 tgl 15 0 empty empty empty 17 7 0 10 -262144 -1 -1 0
1;
#X msg 93 157 1 0 \$1;
#X msg 153 157 2 0 \$1;
#X msg 213 157 3 0 \$1;
#X connect 1 0 2 0;
#X connect 2 0 3 0;
#X connect 2 1 4 0;
#X connect 2 2 5 0;
#X connect 2 3 6 0;
#X connect 3 0 8 0;
#X connect 4 0 9 0;
#X connect 5 0 10 0;
#X connect 6 0 11 0;
#X connect 7 0 0 0;
#X connect 8 0 7 0;
#X connect 9 0 12 0;
#X connect 10 0 13 0;
#X connect 11 0 14 0;
#X connect 12 0 0 0;
#X connect 13 0 0 0;
#X connect 14 0 0 0;
#X restore 25 58 pd ESA_in;
#X connect 1 0 2 0;
#X connect 9 0 6 0;
#X connect 11 0 1 0;
#X restore 381 96 pd gui;
