#N canvas 394 165 817 445 10;
#X obj 10 10 cnv 15 300 220 empty empty empty 20 12 0 14 -262130 -66577
0;
#N canvas 65 348 683 412 teste_gravar-reproduzir 0;
#X obj 52 31 inlet;
#X obj 371 16 inlet;
#X obj 63 99 until;
#X msg 65 74 30;
#X obj 63 204 list prepend notein;
#X obj 63 225 list trim;
#X obj 63 120 else/count 0 29;
#X obj 125 163 + 30;
#X obj 63 183 pack f f f f, f 16;
#X obj 156 163 + 90;
#X text 164 22 gravar 30 mensagens nos primeiros 30 índices do sequencer
, f 20;
#X obj 63 286 outlet;
#X obj 513 96 v padSeq_dim;
#X obj 513 117 - 1;
#X obj 513 168 until;
#X obj 512 78 bng 15 250 50 0 empty empty empty 17 7 0 10 -262144 -1
-1;
#X floatatom 441 60 5 0 0 0 - - -;
#X obj 513 139 t f f;
#X obj 513 189 else/count 0 639;
#X obj 323 161 +;
#X floatatom 367 82 5 0 0 0 - - -;
#X obj 323 103 until;
#X obj 339 142 * 20;
#X obj 371 37 else/routeall bang float;
#X obj 512 55 route all;
#X msg 323 82 30;
#X obj 323 120 else/count 0 29;
#X obj 441 316 outlet;
#X obj 63 163 f 0;
#X obj 601 26 inlet;
#X text 616 45 pad_n;
#X floatatom 195 103 5 0 0 0 - - -;
#X obj 58 53 route bang float;
#X text 515 302 'play' <pad_n> <idx>;
#X obj 441 258 pack;
#X obj 477 238 else/initmess 0;
#X msg 441 293 play \$2 \$1;
#X obj 63 143 t b f f f, f 16;
#X text 104 264 'notein' <pad_n> <idx> <pitch> <velocity>;
#X connect 0 0 32 0;
#X connect 1 0 23 0;
#X connect 2 0 6 0;
#X connect 3 0 2 0;
#X connect 4 0 5 0;
#X connect 5 0 11 0;
#X connect 6 0 37 0;
#X connect 7 0 8 2;
#X connect 8 0 4 0;
#X connect 9 0 8 3;
#X connect 12 0 13 0;
#X connect 13 0 17 0;
#X connect 14 0 18 0;
#X connect 15 0 12 0;
#X connect 16 0 34 0;
#X connect 17 0 14 0;
#X connect 17 1 18 1;
#X connect 18 0 34 0;
#X connect 19 0 34 0;
#X connect 20 0 22 0;
#X connect 21 0 26 0;
#X connect 22 0 19 1;
#X connect 23 0 25 0;
#X connect 23 1 16 0;
#X connect 23 2 24 0;
#X connect 24 0 15 0;
#X connect 25 0 21 0;
#X connect 26 0 19 0;
#X connect 28 0 8 0;
#X connect 29 0 28 1;
#X connect 29 0 34 1;
#X connect 31 0 37 0;
#X connect 32 0 3 0;
#X connect 32 1 31 0;
#X connect 34 0 36 0;
#X connect 35 0 34 1;
#X connect 36 0 27 0;
#X connect 37 0 28 0;
#X connect 37 1 8 1;
#X connect 37 2 7 0;
#X connect 37 3 9 0;
#X restore 557 160 pd teste_gravar-reproduzir;
#X obj 27 96 bng 15 250 50 0 empty empty gravar_30_índices 17 7 0
10 -262144 -1 -1;
#X obj 27 119 bng 15 250 50 0 empty empty reproduzir_30_índices 17
7 0 10 -262144 -1 -1;
#X floatatom 27 144 5 0 15 1 pad_n(0-15) - -;
#X text 18 15 TESTES PARA LUA SCRIPT DO SEQUENCIADOR;
#X obj 557 294 outlet;
#X text 182 119 play <idx> <pad_n>;
#X text 170 97 notein <idx> <pad_n>;
#X obj 227 147 tgl 15 0 empty empty sampler 17 7 0 10 -262144 -1 -1
0 1;
#X obj 227 166 tgl 15 0 empty empty synth 17 7 0 10 -262144 -1 -1 0
1;
#X obj 227 185 tgl 15 0 empty empty FX 17 7 0 10 -262144 -1 -1 0 1
;
#N canvas 0 22 450 300 seletor 0;
#X obj 187 125 sel 0 1, f 30;
#X obj 157 65 inlet;
#X obj 177 200 outlet;
#X msg 187 146 symbol off;
#X msg 275 146 symbol on;
#X connect 0 0 3 0;
#X connect 0 1 4 0;
#X connect 1 0 0 0;
#X connect 3 0 2 0;
#X connect 4 0 2 0;
#X restore 361 257 pd seletor;
#X obj 28 169 bng 15 250 50 0 empty empty resetar_sequencer 17 7 0
10 -262144 -1 -1;
#X obj 28 188 bng 15 250 50 0 empty empty carregar_lua_script 17 7
0 10 -262144 -1 -1;
#X msg 377 364 read -c sequencer.lua;
#X obj 80 312 else/trigger2 0 0 0;
#X obj 113 235 t b b;
#X obj 27 46 bng 15 250 50 0 empty empty gravar_evento_no_índice:
17 7 0 10 -262144 -1 -1;
#X obj 27 69 bng 15 250 50 0 empty empty reproduzir_evento_no_índice:
17 7 0 10 -262144 -1 -1;
#X floatatom 191 45 5 0 0 0 - - -;
#X floatatom 214 68 5 0 0 0 - - -;
#X obj 673 259 s teste_luaScriptSeq;
#X obj 28 207 bng 15 250 50 0 empty empty limpar_pd_console 17 7 0
10 -262144 -1 -1;
#X obj 28 377 ofelia f \; ofSysGui(string.format("menu_clear_console"))
;
#X obj 177 209 tgl 15 0 empty empty saídas_modo_debug 17 7 0 10 -262144
-1 -1 0 1;
#X obj 177 234 s ofelia_outs_debug_mode;
#X obj 97 337 s classePad;
#X obj 46 247 t b b b b;
#X msg 361 278 fx 0 \$1;
#X msg 307 307 reset \$1;
#X obj 304 283 f 0;
#N canvas 69 286 450 352 synth_message 0;
#X obj 87 37 inlet;
#X obj 107 288 outlet;
#X obj 117 101 sel 0 1, f 30;
#X msg 117 122 symbol off;
#X msg 205 122 symbol on;
#X text 200 262 'synth' <pad_n> <on-off>;
#X obj 117 151 t b s, f 20;
#X obj 117 196 list append;
#X obj 117 217 list prepend synth;
#X obj 117 173 v pad_n_teste;
#X obj 117 241 list trim;
#X connect 0 0 2 0;
#X connect 2 0 3 0;
#X connect 2 1 4 0;
#X connect 3 0 6 0;
#X connect 4 0 6 0;
#X connect 6 0 9 0;
#X connect 6 1 7 1;
#X connect 7 0 8 0;
#X connect 8 0 10 0;
#X connect 9 0 7 0;
#X connect 10 0 1 0;
#X restore 405 223 pd synth_message;
#N canvas 69 286 450 352 sampler_message 0;
#X obj 87 37 inlet;
#X obj 107 288 outlet;
#X obj 117 101 sel 0 1, f 30;
#X msg 117 122 symbol off;
#X msg 205 122 symbol on;
#X obj 117 151 t b s, f 20;
#X obj 117 196 list append;
#X obj 117 173 v pad_n_teste;
#X obj 117 217 list prepend sampler;
#X text 200 262 'sampler' <pad_n> <on-off>;
#X obj 117 238 list trim;
#X connect 0 0 2 0;
#X connect 2 0 3 0;
#X connect 2 1 4 0;
#X connect 3 0 5 0;
#X connect 4 0 5 0;
#X connect 5 0 7 0;
#X connect 5 1 6 1;
#X connect 6 0 8 0;
#X connect 7 0 6 0;
#X connect 8 0 10 0;
#X connect 10 0 1 0;
#X restore 436 184 pd sampler_message;
#X obj 386 52 v pad_n_teste;
#X msg 214 354 inicializar 1;
#X connect 1 0 6 0;
#X connect 1 0 22 0;
#X connect 1 1 6 0;
#X connect 1 1 22 0;
#X connect 2 0 1 0;
#X connect 3 0 1 1;
#X connect 4 0 1 2;
#X connect 4 0 31 1;
#X connect 4 0 34 0;
#X connect 9 0 33 0;
#X connect 10 0 32 0;
#X connect 11 0 12 0;
#X connect 12 0 29 0;
#X connect 13 0 17 0;
#X connect 14 0 28 0;
#X connect 15 0 6 0;
#X connect 15 0 22 0;
#X connect 16 0 11 0;
#X connect 16 1 10 0;
#X connect 16 2 9 0;
#X connect 17 0 16 0;
#X connect 17 1 31 0;
#X connect 18 0 20 0;
#X connect 19 0 21 0;
#X connect 20 0 1 0;
#X connect 21 0 1 1;
#X connect 23 0 24 0;
#X connect 25 0 26 0;
#X connect 28 0 16 0;
#X connect 28 1 35 0;
#X connect 28 2 15 0;
#X connect 28 3 27 0;
#X connect 29 0 6 0;
#X connect 29 0 22 0;
#X connect 30 0 6 0;
#X connect 30 0 22 0;
#X connect 31 0 30 0;
#X connect 32 0 6 0;
#X connect 32 0 22 0;
#X connect 33 0 6 0;
#X connect 33 0 22 0;
#X connect 35 0 6 0;
#X connect 35 0 22 0;
#X coords 0 -1 1 1 300 220 2 10 10;
