#N canvas 394 165 817 445 10;
#X obj 10 10 cnv 15 300 220 empty empty empty 20 12 0 14 -262130 -66577
0;
#N canvas 195 345 683 300 teste_gravar-reproduzir 0;
#X obj 52 31 inlet;
#X obj 371 16 inlet;
#X obj 63 99 until;
#X msg 65 74 30;
#X obj 63 204 list prepend notein;
#X obj 63 225 list trim;
#X obj 63 120 else/count 0 29;
#X obj 125 163 + 30;
#X obj 63 183 pack f f f f, f 16;
#X obj 156 163 + 90;
#X text 164 22 gravar 30 mensagens nos primeiros 30 índices do sequencer
, f 20;
#X obj 63 266 outlet;
#X obj 513 96 v padSeq_dim;
#X obj 513 117 - 1;
#X obj 513 168 until;
#X obj 512 78 bng 15 250 50 0 empty empty empty 17 7 0 10 -262144 -1
-1;
#X floatatom 441 60 5 0 0 0 - - -;
#X obj 513 139 t f f;
#X obj 513 189 else/count 0 639;
#X obj 323 161 +;
#X floatatom 367 82 5 0 0 0 - - -;
#X obj 323 103 until;
#X obj 339 142 * 20;
#X obj 371 37 else/routeall bang float;
#X obj 512 55 route all;
#X msg 323 82 30;
#X obj 323 120 else/count 0 29;
#X obj 422 259 outlet;
#X msg 422 238 play \$1 0;
#X obj 94 162 f 0;
#X obj 601 26 inlet;
#X text 616 45 pad_n;
#X obj 516 222 else/initmess 0;
#X obj 422 219 pack f f;
#X obj 63 143 t f b f f, f 16;
#X floatatom 195 103 5 0 0 0 - - -;
#X obj 58 53 route bang float;
#X connect 0 0 36 0;
#X connect 1 0 23 0;
#X connect 2 0 6 0;
#X connect 3 0 2 0;
#X connect 4 0 5 0;
#X connect 5 0 11 0;
#X connect 6 0 34 0;
#X connect 7 0 8 2;
#X connect 8 0 4 0;
#X connect 9 0 8 3;
#X connect 12 0 13 0;
#X connect 13 0 17 0;
#X connect 14 0 18 0;
#X connect 15 0 12 0;
#X connect 16 0 33 0;
#X connect 17 0 14 0;
#X connect 17 1 18 1;
#X connect 18 0 33 0;
#X connect 19 0 33 0;
#X connect 20 0 22 0;
#X connect 21 0 26 0;
#X connect 22 0 19 1;
#X connect 23 0 25 0;
#X connect 23 1 16 0;
#X connect 23 2 24 0;
#X connect 24 0 15 0;
#X connect 25 0 21 0;
#X connect 26 0 19 0;
#X connect 28 0 27 0;
#X connect 29 0 8 1;
#X connect 30 0 33 1;
#X connect 30 0 29 1;
#X connect 32 0 33 1;
#X connect 33 0 28 0;
#X connect 34 0 8 0;
#X connect 34 1 29 0;
#X connect 34 2 7 0;
#X connect 34 3 9 0;
#X connect 35 0 34 0;
#X connect 36 0 3 0;
#X connect 36 1 35 0;
#X restore 557 160 pd teste_gravar-reproduzir;
#X obj 27 96 bng 15 250 50 0 empty empty gravar_30_índices 17 7 0
10 -262144 -1 -1;
#X obj 27 119 bng 15 250 50 0 empty empty reproduzir_30_índices 17
7 0 10 -262144 -1 -1;
#X floatatom 27 144 5 0 15 1 pad_n(0-15) - -;
#X text 18 15 TESTES PARA LUA SCRIPT DO SEQUENCIADOR;
#X obj 557 294 outlet;
#X text 182 119 play <idx> <pad_n>;
#X text 170 97 notein <idx> <pad_n>;
#X obj 227 147 tgl 15 0 empty empty sampler 17 7 0 10 -262144 -1 -1
1 1;
#X obj 227 166 tgl 15 0 empty empty synth 17 7 0 10 -262144 -1 -1 0
1;
#X obj 227 185 tgl 15 0 empty empty FX 17 7 0 10 -262144 -1 -1 0 1
;
#N canvas 0 22 450 300 seletor 0;
#X obj 187 125 sel 0 1, f 30;
#X obj 157 65 inlet;
#X obj 177 200 outlet;
#X msg 187 146 symbol off;
#X msg 275 146 symbol on;
#X connect 0 0 3 0;
#X connect 0 1 4 0;
#X connect 1 0 0 0;
#X connect 3 0 2 0;
#X connect 4 0 2 0;
#X restore 456 174 pd seletor;
#X msg 456 195 sampler \$1;
#N canvas 0 22 450 300 seletor 0;
#X obj 187 125 sel 0 1, f 30;
#X obj 157 65 inlet;
#X obj 177 200 outlet;
#X msg 187 146 symbol off;
#X msg 275 146 symbol on;
#X connect 0 0 3 0;
#X connect 0 1 4 0;
#X connect 1 0 0 0;
#X connect 3 0 2 0;
#X connect 4 0 2 0;
#X restore 419 218 pd seletor;
#N canvas 0 22 450 300 seletor 0;
#X obj 187 125 sel 0 1, f 30;
#X obj 157 65 inlet;
#X obj 177 200 outlet;
#X msg 187 146 symbol off;
#X msg 275 146 symbol on;
#X connect 0 0 3 0;
#X connect 0 1 4 0;
#X connect 1 0 0 0;
#X connect 3 0 2 0;
#X connect 4 0 2 0;
#X restore 361 257 pd seletor;
#X msg 419 239 synth \$1;
#X msg 361 278 fx \$1;
#X obj 28 169 bng 15 250 50 0 empty empty resetar_sequencer 17 7 0
10 -262144 -1 -1;
#X msg 318 310 reset;
#X obj 28 188 bng 15 250 50 0 empty empty carregar_lua_script 17 7
0 10 -262144 -1 -1;
#X msg 289 330 read -c sequencer.lua;
#X obj 141 322 else/trigger2 0 0 0;
#X obj 132 261 t b b;
#X obj 175 262 t b b;
#X obj 27 46 bng 15 250 50 0 empty empty gravar_evento_no_índice:
17 7 0 10 -262144 -1 -1;
#X obj 27 69 bng 15 250 50 0 empty empty reproduzir_evento_no_índice:
17 7 0 10 -262144 -1 -1;
#X floatatom 191 45 5 0 0 0 - - -;
#X floatatom 214 68 5 0 0 0 - - -;
#X obj 673 259 s teste_luaScriptSeq;
#X obj 28 207 bng 15 250 50 0 empty empty limpar_pd_console 17 7 0
10 -262144 -1 -1;
#X obj 28 377 ofelia f \; ofSysGui(string.format("menu_clear_console"))
;
#X obj 177 209 tgl 15 0 empty empty saídas_modo_debug 17 7 0 10 -262144
-1 -1 0 1;
#X obj 177 234 s ofelia_outs_debug_mode;
#X connect 1 0 6 0;
#X connect 1 0 29 0;
#X connect 1 1 6 0;
#X connect 1 1 29 0;
#X connect 2 0 1 0;
#X connect 3 0 1 1;
#X connect 4 0 1 2;
#X connect 9 0 12 0;
#X connect 10 0 14 0;
#X connect 11 0 15 0;
#X connect 12 0 13 0;
#X connect 13 0 6 0;
#X connect 13 0 29 0;
#X connect 14 0 16 0;
#X connect 15 0 17 0;
#X connect 16 0 6 0;
#X connect 16 0 29 0;
#X connect 17 0 6 0;
#X connect 17 0 29 0;
#X connect 18 0 24 0;
#X connect 19 0 6 0;
#X connect 19 0 29 0;
#X connect 20 0 23 0;
#X connect 21 0 6 0;
#X connect 21 0 29 0;
#X connect 22 0 11 0;
#X connect 22 1 10 0;
#X connect 22 2 9 0;
#X connect 23 0 21 0;
#X connect 23 1 22 0;
#X connect 24 0 19 0;
#X connect 24 1 22 0;
#X connect 25 0 27 0;
#X connect 26 0 28 0;
#X connect 27 0 1 0;
#X connect 28 0 1 1;
#X connect 30 0 31 0;
#X connect 32 0 33 0;
#X coords 0 -1 1 1 300 220 2 10 10;
