#N canvas 514 141 282 389 10;
#X declare -path ../;
#N canvas 495 44 542 379 metapatch 0;
#N canvas 473 430 603 249 args 0;
#X msg 40 42 args;
#X obj 40 63 pdcontrol;
#X obj 183 201 outlet;
#X obj 40 201 outlet;
#X obj 40 84 list trim;
#X text 210 149 pad number;
#X text 65 149 buffer size;
#X msg 183 146 \$1;
#X text 353 177 contagem inicial;
#X obj 326 201 outlet;
#X msg 40 147 \$2;
#X msg 326 175 \$3;
#X obj 40 104 t a a a a, f 72;
#X obj 469 126 list length;
#X obj 469 147 sel 2;
#X obj 326 127 spigot 1;
#X obj 469 185 t f f;
#X msg 469 166 0;
#X obj 40 11 else/lb -init;
#X connect 0 0 1 0;
#X connect 1 0 4 0;
#X connect 4 0 12 0;
#X connect 7 0 2 0;
#X connect 10 0 3 0;
#X connect 11 0 9 0;
#X connect 12 0 10 0;
#X connect 12 1 7 0;
#X connect 12 2 15 0;
#X connect 12 3 13 0;
#X connect 13 0 14 0;
#X connect 14 0 17 0;
#X connect 15 0 11 0;
#X connect 16 0 9 0;
#X connect 16 1 15 1;
#X connect 17 0 16 0;
#X connect 18 0 0 0;
#X restore 49 23 pd args;
#X f 14;
#X text 244 286 \$1 - posY;
#N canvas 494 363 294 345 calculate_posY_list 0;
#X obj 27 19 inlet;
#N canvas 222 109 290 324 count_to 0;
#X obj 112 21 inlet;
#X obj 52 260 outlet;
#X obj 25 117 until;
#X obj 82 146 + 1;
#X obj 25 147 float;
#X obj 116 146 sel;
#X msg 116 167 0;
#X obj 141 151 loadbang;
#X obj 112 62 t f f f;
#X obj 197 208 ==;
#X obj 25 168 t f f;
#X obj 197 229 sel 1;
#X obj 197 260 outlet;
#X obj 212 161 - 1;
#X connect 0 0 8 0;
#X connect 2 0 4 0;
#X connect 3 0 4 1;
#X connect 3 0 5 0;
#X connect 4 0 3 0;
#X connect 4 0 10 0;
#X connect 5 0 6 0;
#X connect 6 0 4 1;
#X connect 7 0 6 0;
#X connect 8 0 2 0;
#X connect 8 1 5 1;
#X connect 8 2 13 0;
#X connect 9 0 11 0;
#X connect 10 0 9 0;
#X connect 10 1 1 0;
#X connect 11 0 12 0;
#X connect 11 0 6 0;
#X connect 13 0 9 1;
#X restore 27 71 pd count_to;
#X obj 170 87 t b b;
#X msg 27 236;
#X msg 27 175 add2 \$1;
#X msg 170 122 set;
#X text 109 212 Create a list with posY of the n objects, f 22;
#X obj 27 298 outlet;
#X text 65 21 number of measures to be created;
#X obj 27 92 * 19;
#X text 56 93 deltaY = 19;
#X text 56 143 \$1 = 68;
#X obj 27 143 + 68;
#X connect 0 0 1 0;
#X connect 1 0 9 0;
#X connect 1 1 2 0;
#X connect 2 0 5 0;
#X connect 2 1 3 0;
#X connect 3 0 7 0;
#X connect 4 0 3 0;
#X connect 5 0 3 0;
#X connect 9 0 12 0;
#X connect 12 0 4 0;
#X restore 288 134 pd calculate_posY_list;
#X obj 61 145 f;
#X obj 23 124 until;
#X obj 49 64 pack;
#X obj 49 85 t a a;
#X msg 76 111 \$1;
#X msg 23 104 \$2;
#X msg 180 214 reset;
#X obj 231 207 list split 1;
#X obj 231 182 list store;
#X msg 61 264 68 100 1200;
#X msg 231 228 set \$1;
#X msg 99 237 add2 \$1;
#X msg 24 218 add2 \$1;
#X obj 61 166 t b f b b, f 10;
#X obj 89 48 t f f f, f 31;
#X text 352 17 creates measure object:;
#X obj 364 267 declare -path ../;
#X obj 99 196 else/count 0 3;
#X obj 180 91 - 1;
#X msg 61 298 obj 36 \$1 buffer \$2 \$3;
#X text 244 303 \$2 - pad number (argument defined);
#X text 244 321 \$3 - buffer size (ms);
#X text 367 35 [buffer k n];
#X obj 61 318 s \$0-buffers;
#X text 388 53 k>=1 and <int> n>=0;
#X obj 99 217 + 0;
#X connect 0 0 5 0;
#X connect 0 1 17 0;
#X connect 0 2 28 1;
#X connect 2 0 11 1;
#X connect 3 0 16 0;
#X connect 4 0 3 0;
#X connect 5 0 6 0;
#X connect 6 0 8 0;
#X connect 6 1 7 0;
#X connect 7 0 3 1;
#X connect 8 0 4 0;
#X connect 9 0 20 0;
#X connect 10 0 13 0;
#X connect 10 1 11 1;
#X connect 11 0 10 0;
#X connect 12 0 22 0;
#X connect 13 0 12 0;
#X connect 14 0 12 0;
#X connect 15 0 12 0;
#X connect 16 0 12 0;
#X connect 16 1 15 0;
#X connect 16 2 20 0;
#X connect 16 3 11 0;
#X connect 17 0 5 1;
#X connect 17 1 21 0;
#X connect 17 2 2 0;
#X connect 20 0 28 0;
#X connect 20 1 9 0;
#X connect 21 0 20 1;
#X connect 22 0 26 0;
#X connect 28 0 14 0;
#X restore 11 7 pd metapatch;
#X obj 111 7 namecanvas \$0-buffers;
#N canvas 846 96 400 339 info 0;
#X text 23 63 Argumentos:;
#X text 22 13 Abstração que cria banco de buffers para looper;
#X text 105 63 [buffer <float> <float>];
#X text 44 87 De acordo com argumento \$1 \, <float> \, cria a quantidade
de buffers que ficarão disponíveis para gravação e reprodução
de samples, f 54;
#X text 45 134 O segundo argumento <float> determina o tempo máximo
de duração do buffer em milissegundos (ms), f 54;
#X text 23 203 Mensagens podem ser enviadas para [s buffer_in] no formato:
;
#X msg 30 227 <float-all> <<mensagem_de_controle>>;
#X text 41 249 Sendo:;
#X text 53 267 <float-all> -;
#X text 143 267 índice do buffer (0-k);
#X text 143 284 todos os buffers (all);
#X restore 11 29 pd info;
