#N canvas 245 268 450 236 10;
#X obj 138 75 route all;
#X text 127 22 entrada para mensagens de controle;
#X obj 73 75 route \$1;
#X obj 73 126 buffer_outs \$1;
#X obj 73 104 else/sample~ pad_\$1 -ms \$2;
#X text 139 158 [buffer <float> <float>];
#X text 154 180 primeiro <float> -> número do pad;
#X text 154 198 segundo <float> -> tamanho do buffer em ms;
#X obj 63 187 s buffer_out;
#X obj 43 19 r buffer_in;
#X msg 249 74 save;
#X connect 0 0 4 0;
#X connect 2 0 4 0;
#X connect 2 1 0 0;
#X connect 3 0 8 0;
#X connect 4 0 3 0;
#X connect 9 0 2 0;
#X connect 10 0 4 0;
