#N canvas 549 161 286 186 10;
#X obj 23 23 inlet;
#X obj 43 153 outlet;
#X obj 53 67 list prepend buffer pad \$1 return;
#X obj 53 91 list trim;
#X connect 0 0 2 0;
#X connect 2 0 3 0;
#X connect 3 0 1 0;
