#N canvas 165 284 388 115 10;
#X declare -path esa_looper_abs;
#N canvas 490 214 645 319 buffer_message_processor 0;
#X obj 126 86 list trim;
#X obj 52 203 list trim;
#X obj 52 182 list append;
#X obj 52 61 list split 1;
#X msg 327 261 <pad> <<control_message>>;
#N canvas 486 217 336 259 clear 0;
#X obj 63 21 inlet;
#X obj 63 201 outlet;
#X obj 63 57 route bang;
#X msg 63 119 clear;
#X msg 144 88 invalid clear message;
#X obj 144 112 print ERROR:;
#X connect 0 0 2 0;
#X connect 2 0 3 0;
#X connect 2 1 4 0;
#X connect 3 0 1 0;
#X connect 4 0 5 0;
#X restore 126 141 pd clear;
#N canvas 548 335 372 292 show 0;
#X obj 63 21 inlet;
#X obj 63 201 outlet;
#X obj 63 57 route bang;
#X obj 144 112 print ERROR:;
#X msg 63 119 show;
#X msg 144 88 invalid show message;
#X connect 0 0 2 0;
#X connect 2 0 4 0;
#X connect 2 1 5 0;
#X connect 4 0 1 0;
#X connect 5 0 3 0;
#X restore 202 141 pd show;
#N canvas 533 369 358 275 hide 0;
#X obj 63 21 inlet;
#X obj 63 201 outlet;
#X obj 63 57 route bang;
#X obj 144 112 print ERROR:;
#X msg 63 119 hide;
#X msg 144 88 invalid hide message;
#X connect 0 0 2 0;
#X connect 2 0 4 0;
#X connect 2 1 5 0;
#X connect 4 0 1 0;
#X connect 5 0 3 0;
#X restore 279 141 pd hide;
#N canvas 570 316 303 254 normalize 0;
#X obj 33 31 inlet;
#X obj 177 203 outlet;
#X floatatom 177 104 5 0 0 1 end - -;
#X obj 33 77 route bang, f 21;
#X msg 177 124 normalize \$1;
#X msg 33 101 normalize 0.99;
#X connect 0 0 3 0;
#X connect 2 0 4 0;
#X connect 3 0 5 0;
#X connect 3 1 2 0;
#X connect 4 0 1 0;
#X connect 5 0 1 0;
#X restore 355 141 pd normalize;
#X obj 126 114 route clear show hide normalize ms size, f 77;
#N canvas 603 319 339 245 ms 0;
#X obj 23 21 inlet;
#X obj 195 201 outlet;
#X obj 23 57 route bang, f 25;
#X obj 23 122 print ERROR:;
#X msg 23 98 invalid ms message;
#X floatatom 195 95 5 0 0 1 milliseconds - -;
#X msg 195 115 ms \$1;
#X connect 0 0 2 0;
#X connect 2 0 4 0;
#X connect 2 1 5 0;
#X connect 4 0 3 0;
#X connect 5 0 6 0;
#X connect 6 0 1 0;
#X restore 455 141 pd ms;
#N canvas 603 319 339 245 size 0;
#X obj 23 21 inlet;
#X obj 195 201 outlet;
#X obj 23 57 route bang, f 25;
#X obj 23 122 print ERROR:;
#X floatatom 195 95 5 0 0 1 samples - -;
#X msg 23 98 invalid size message;
#X msg 195 115 size \$1;
#X connect 0 0 2 0;
#X connect 2 0 5 0;
#X connect 2 1 4 0;
#X connect 4 0 6 0;
#X connect 5 0 3 0;
#X connect 6 0 1 0;
#X restore 508 141 pd size;
#X obj 42 278 s buffer_in;
#X obj 22 19 r buffers_entrada;
#N canvas 617 480 572 245 Mensagens_de_controle_dos_buffers 1;
#X text 43 48 <pad> - integer 0-15;
#X msg 12 11 <pad> <<control_message>>;
#X text 42 87 <<control_message>>;
#X text 99 62 all;
#X text 112 108 clear;
#X text 119 125 show;
#X text 119 141 hide;
#X text 158 125 - shows/opens buffer supbatch window, f 53;
#X text 158 141 - hides/closes buffer supbatch window, f 53;
#X text 28 156 normalize <float>;
#X text 158 108 - fills all buffer arrays with zeros, f 53;
#X text 158 157 - normalizes buffer content to the given float value
, f 53;
#X text 77 176 ms <float>;
#X text 63 196 size <float>;
#X text 158 197 - sets maximum buffer size in samples, f 53;
#X text 158 177 - sets maximum buffer size in ms, f 53;
#N canvas 239 185 291 187 notas 0;
#X text 24 105 4 minutos em 16 bancos = 339 Mb;
#X text 108 123 1 minuto = 5 \, 292 Mb;
#X obj 20 65 bng 15 250 50 0 empty empty empty 17 7 0 10 -262144 -1
-1;
#N canvas 684 430 450 174 calculadora_internet 0;
#X obj 37 37 inlet;
#X msg 37 58 browse https://www.colincrawley.com/audio-file-size-calculator/
;
#X obj 37 90 pdcontrol;
#X connect 0 0 1 0;
#X connect 1 0 2 0;
#X restore 20 82 pd calculadora_internet;
#X text 24 12 usando 2 minutos = 170Mb;
#X connect 2 0 3 0;
#X restore 495 10 pd notas;
#X restore 327 280 pd Mensagens_de_controle_dos_buffers;
#X connect 0 0 9 0;
#X connect 1 0 12 0;
#X connect 2 0 1 0;
#X connect 3 0 2 0;
#X connect 3 1 0 0;
#X connect 5 0 2 1;
#X connect 6 0 2 1;
#X connect 7 0 2 1;
#X connect 8 0 2 1;
#X connect 9 0 5 0;
#X connect 9 1 6 0;
#X connect 9 2 7 0;
#X connect 9 3 8 0;
#X connect 9 4 10 0;
#X connect 9 5 11 0;
#X connect 10 0 2 1;
#X connect 11 0 2 1;
#X connect 13 0 3 0;
#X restore 9 41 pd buffer_message_processor;
#X obj 206 10 declare -path esa_looper_abs;
#X obj 9 62 buffers \$1 12000 \$2;
